<svg xmlns="http://www.w3.org/2000/svg" width="792" height="315"><path fill="none" d="M0 315h792V0H0zM127 30c3.31 2.72 6.21 5.86 9 9 10.27 9.87 12.97 23.5 18.92 36.08 5.96 12.57 10.76 28.91 13.08 42.92.67-8.7 1.98-13.92-1.22-21.22-3.2-7.31 1.79-15.25 4.99-21.01 3.2-5.75 8.98-11.18 15.23-11.77 5.28-9.48 8.98-18.47 18.75-26.25s15-8.88 25.25-12.75c.42 3.98-.99 8.44 1 12 3.97-3.63 11.82-5.23 15.69-8.31 3.88-3.07 9.51-4.44 10.31-8.69 5.21 1.15 4.72 5.12 5.75 8.39 1.04 3.28.4 9.04 3.25 13.61 9.33-4.07 16.82-11.49 27-12-2.86 8.09 3.39 13.94 3 21 .7.84 2.02.88 3 1 6.86.82 16.07-4.78 24-3-.31 13.98-3.54 24.06 5.77 32.24 9.31 8.17 3.97 26.22-1.77 33.76 12.3 8.52 4.65 31.69-11 30 .52 30-18.4 60.47-46 67 7.49 6.22 12.87 9.46 17.77 18.23 4.91 8.77 9.49 12.99 9.23 21.77 4.74-.24 15.38-1.14 19.74 5.26 4.37 6.39 7.84 15.77 19.26 12.74s21.23 2.01 29 1c-1.91 1.65 1.3 4.88 3 3-.3 4.36.45 10.01 1 17-4.38 3.36-9.13 5.46-17 5s-16.95-.35-25 0-15.84-1.51-24 0-11.19-4.48-15.77-7.24c-4.58-2.75-14.24.14-17.3-1.83-3.07-1.97-10.43-4.83-15.62-6.24-5.2-1.4-9.32-4.26-13.08-7.26s-5.04-9.05-11.23-8.43c-5.16-8.34-7.05-14.86-10.79-21.57-3.73-6.71-.07-17.21 1.79-24.43 2.35-1.02 4.85-2.58 6-5-5.04-3.81-12.32-4.07-17.7-9.3-5.37-5.24-9.62-10.82-16-16-6.39-5.17-4.58-14.72-7.63-20.37-3.06-5.65-3.27-14.82-4.67-23.33-3.57 1.85-6.74-1.21-10 0 3.69 12.27 1.65 31.9 0 44 0 1.31-.12 2.69 0 4 .25 2.65-.39 5.15-1 8-2.19 10.22-1.83 21.06-4.99 31.01-3.16 9.94-6.11 16.31-9.78 26.22s-8.24 11.77-15.48 20.52S128.14 290 116 290c-4.49 0-6.62-.4-10-2-15.16-7.17-29.4-15.41-36.31-31.69C62.79 240.02 53 225.18 53 207c-.23-2.41-.97-5.92-1-9-.87-.81.01-6.09 0-8-.01-1.33 0-2.67 0-4-1.27-9.32-2.08-18.06 0-27 1.91-16.24 5.61-33.27 3-48 6.16-3.03 3.82-13.44 10-17-.76-6.2 4.26-13.5 7.93-19.07 3.66-5.58 5.71-13.99 11.15-17.85s10.22-12.17 18.94-11.06c8.73 1.12 12.88-8.89 2.73-11.77C95.61 31.36 92.41 22.7 104 24c2.08-6.29 6.11-2.42 9.7.3 3.58 2.72 10.84.86 13.3 5.7m252 260c-1.3-5.27-.12-9.21 1-13 .04-2.33-.67-4.01 2-6 12.63-2.36 34.24.54 50-2-5.08-14.67-11.09-31.13-13-47-5.94-1.77-13.59-1.81-19 1 .39 5.75-3.18 15.33-4.4 18.74-1.22 3.42-3.1 13.5-9.83 15.03s-17.95-.1-20.07-7.47c-2.13-7.36 1.84-12.24 2.65-17s3.47-12.21 5.05-18.05 4.38-12.39 5.67-18.33c1.29-5.93 5.14-15.33 7.19-20.11 2.04-4.77 1.96-15.24 5.74-21.81-12.84.79-26.21-1.05-39 0s-10.41-14.55-10-26 .9-24.35 0-37 .85-26.64 0-40 13.14-12.79 25-12 27.86-.67 40 0 24.15-2.43 32 4c0 10.38-.25 20.63 0 32s-.61 23.3 0 35-1.38 22.94 0 35-9.69 8.61-19 10c-1.03 9.57-4.63 14.92-7 25 2.98 6.24 4.9 11.92 6.71 18.3 1.81 6.37 2.79 10.82 5.05 17.09 2.25 6.27 2.52 10.65 5 17.86 2.47 7.21 3.55 12.06 5.16 16.88s5.02 15.1 4.1 21.89c-.91 6.79 3.84 21.13-3.27 23.73-7.11 2.61-22.01 1.42-30.75 1.25s-25.36 4.06-27-7m234-95c2.88-1.08 4.3-1.97 8-2 4.62-.04 19.47-2.81 21.75 4.25 2.28 7.05-13.31 5.33-19.82 7.68-6.51 2.34-8.19 11.86-7.93 20.07 5.37-1.15 18.51 2.83 19.92 9.08S617.05 239.64 613 241c-.65 8.02-2.32 17.09 0 25 4.4-.89 9.48-4.07 10-9 13.32.79 2.56 12.16-1.75 18.25s-18.69 10.23-21.02.52-1.26-22.08-1.23-31.77 3.08-18.4 3.21-27.23.41-19.82 10.79-21.77m-270 1c-4.53 8.25-5.6 18.64-9.93 26.07-4.32 7.44-3.51 20.11-15.07 16.93.31-8.88 3.89-17.07 7.06-24.08 3.18-7.01 6.83-28.08 17.94-18.92m229 4c2.44-1.53 4.95-.54 7 0 6.93 1.83 10.05 5.77 13.92 12.08 3.88 6.3 1.62 14.75 1.75 21.59s-2.56 13.44-3.66 20.34c-1.1 6.89-5.03 13.42-7.93 19.07s-10.78 11.32-16.3 8.14S552.99 276.28 553 269c.02-7.28.56-12.05 1-20s-.33-17.63 0-26-1.63-12.89 1.92-22.08c3.56-9.18 10.29-3.56 16.08-.92m-27 8c-5.55 3.88 3.13 10.74 2.93 18.07-.21 7.34.03 18.2-2.26 25.6s-6.54 13.53-9.97 20.03c-3.44 6.49-11.1 14.05-18.77 9.37s-9.08-10.07-10.92-18.08-.36-19.3.77-27.21c1.12-7.91 3.96-15.62 7.99-22.01s6.41-13.1 13.48-16.52c7.06-3.43 17.41 2.94 16.75 10.75m-68 42c-.07 2.56-.03 6.18 0 8 .59 3.64.89 6.52 2 10 .15.45 0 1 0 1 7.58-2.12 7.26-7.71 14.25-12.75 6.98-5.05 10.14.72 4.83 7.83S491.38 273.5 485 279c-3.56 3.07-5.48 3.71-10 2-7.44-2.81-8.63-11.45-10.32-18.68-1.7-7.22-1.17-20.13 1.3-27.34 2.46-7.22 4.25-14.23 7.94-21.06 3.7-6.82 7.2-12.15 15.11-14.89 7.9-2.75 15.69 5.94 6.75 9.75-8.94 3.8-8.21 11.02-12.11 17.89-3.9 6.88-5.11 16.07-6.67 23.33m229 17c1.05-1.53 1.09-3.15 1-5-4.09-11.65-11.15-23.81-12-36-.54-2.66-.42-4.44 0-7 .38-7.66 3.1-16.45 10.23-19.77s20.03 1.38 14.02 8.02-8 14.37-7.92 22.42 2.61 17.48 5.44 24.56c2.83 7.07 11.15 15.06 2.55 19.09s-11.03 10.39-21.54 6.9 4.17-9.99 8.22-13.22m52-62c-5.95 4.88-12.69 14.06-11.99 22.01s2.14 20.84 5.98 28c3.85 7.16 10.56 15.79.76 20.74-9.79 4.95-18.83 9.35-23.75-.75 6.49-4.56 17.15-8.97 11.69-17.69-5.45-8.73-6.79-16.88-9.02-25.98-2.23-9.11-1.64-20.76 3.11-28.55 4.74-7.79 20.72-5.19 23.22 2.22m-448-4c5.11 4.77 4.1 9.01-1.75 13.25s3.78 9.78 6.75 12.75c-1.02 2.35-2.58 4.85-5 6-5.91-2.12-14.51-10.25-17-17 7.87-1.71 8.68-13.71 17-15m57 15c-1.19 4.99-7.04 6.97-9.75 11.25s-8.77 7.86-11.5 2 7.42-7.57 7.25-13.25c-5.21-3.48-12.91-10.94-4-15 6.75 2.95 11.74 9.99 18 15m301-9c9.37.64 12.67 7.95 11.02 16.02-1.64 8.08-5.33 13.55-9.79 20.21s-7.39 15.28.85 18.69c8.23 3.42 9.27 11.08 18.92 11.08-6.28 19.68-22.12-4.68-33-8 .12 8.07-3 21.35-14 16 .48-9.84.19-18.83.78-29.22s.99-20.08 1.22-30.78 3.59-15.73 15-15c3.26-.4 6.49.55 9 1"/><path fill="none" stroke="#F95657" stroke-opacity=".97" stroke-width=".3" d="M52 159c-1.08 9.14 0 17.79 0 27 0 1.33-.01 2.67 0 4 .3 2.2 1 5.16 1 8v9c0 18.18 9.79 33.02 16.69 49.31C76.6 272.59 90.84 280.83 106 288c2.83.86 7.51 1.76 10 2 12.14 0 17.51-2.5 24.75-11.25s11.81-10.61 15.48-20.52 6.62-16.28 9.78-26.22c3.16-9.95 2.8-20.79 4.99-31.01 0-2.79.45-5.15 1-8-.12-1.31 0-2.69 0-4 0-15.31.71-31.08-1-46-.93-8.14-3.64-16.63-3-25-2.32-14.01-7.12-30.35-13.08-42.92C148.97 62.5 146.27 48.87 136 39c-2.98-2.87-6.08-6.19-9-9-2.46-4.84-9.72-2.98-13.3-5.7-3.59-2.72-7.62-6.59-9.7-.3-11.59-1.3-8.39 7.36 1.75 10.25 10.15 2.88 6 12.89-2.73 11.77-8.72-1.11-13.5 7.2-18.94 11.06s-7.49 12.27-11.15 17.85C69.26 80.5 64.24 87.8 65 94c-6.18 3.56-3.84 13.97-10 17 2.61 14.73-1.09 31.76-3 48m87-24c.16 1.66.83 4.73 1 7 2.95 38.58-7.62 80.61-26 114-9.17-4.82-12.67-15.88-16-25-1.14-2.74-2.52-7.04-3-9-4.82-19.71-4.12-40.43-3-61-.11-2.46-.42-5.44 0-8 .42-7.67.36-16.53 3.32-23.68 2.96-7.14 2.8-15.51 5-23s3.2-11.29 5.61-19.39c2.4-8.1 6.04-10.29 8.84-19.16s7.13-11.17 9.21-.75c2.07 10.43 4.75 11.28 6.95 20.05 2.19 8.77 2.94 14.55 5.07 22.93s2.82 16.06 3 25Z"/><path fill="none" stroke="#020101" stroke-opacity=".98" stroke-width=".3" d="M168 118c-.64 8.37 2.07 16.86 3 25 .05.21.84 1.45 1 2 3.26-1.21 6.43 1.85 10 0 1.4 8.51 1.61 17.68 4.67 23.33 3.05 5.65 1.24 15.2 7.63 20.37 6.38 5.18 10.63 10.76 16 16 5.38 5.23 12.66 5.49 17.7 9.3-1.15 2.42-3.65 3.98-6 5-1.86 7.22-5.52 17.72-1.79 24.43 3.74 6.71 5.63 13.23 10.79 21.57 6.19-.62 7.47 5.43 11.23 8.43s7.88 5.86 13.08 7.26c5.19 1.41 12.55 4.27 15.62 6.24 3.06 1.97 12.72-.92 17.3 1.83 4.58 2.76 7.61 8.75 15.77 7.24s15.95.35 24 0 17.13-.46 25 0 12.62-1.64 17-5c-.55-6.99-1.3-12.64-1-17-1.7 1.88-4.91-1.35-3-3-7.77 1.01-17.58-4.03-29-1s-14.89-6.35-19.26-12.74c-4.36-6.4-15-5.5-19.74-5.26.26-8.78-4.32-13-9.23-21.77-4.9-8.77-10.28-12.01-17.77-18.23 27.6-6.53 46.52-37 46-67 15.65 1.69 23.3-21.48 11-30 5.74-7.54 11.08-25.59 1.77-33.76-9.31-8.18-6.08-18.26-5.77-32.24-7.93-1.78-17.14 3.82-24 3-2.76.89-2.27 2.84-3-1 .39-7.06-5.86-12.91-3-21-10.18.51-17.67 7.93-27 12-2.85-4.57-2.21-10.33-3.25-13.61-1.03-3.27-.54-7.24-5.75-8.39-.8 4.25-6.43 5.62-10.31 8.69-3.87 3.08-11.72 4.68-15.69 8.31-1.99-3.56-.58-8.02-1-12-10.25 3.87-15.48 4.97-25.25 12.75S192.28 54.52 187 64c-6.25.59-12.03 6.02-15.23 11.77-3.2 5.76-8.19 13.7-4.99 21.01 3.2 7.3 1.89 12.52 1.22 21.22m144-59c.63-.04 2.68-1.95 4-1-.16 3.05.81 7.11-2 9-1.49 5.51-8.04 18.44-16.08 18.92S275.34 82.19 265 84s-23.81-1.68-35 0-20.72.28-26.3-8.7c-5.59-8.97-7.94-13.97-.4-22 7.55-8.02 10.3-11.67 19.7-15.3v13c11.47-4.4 21.2-13.5 33-17-.3 6.99 2.71 13.13 3 20 10.06-1.93 17.96-9.9 28-12-.22 6.97 2.87 13.09 3 20 7.58.01 14.52-2.49 22-3m-126 43c-1.87 4.94-4.39 14.02-9 5-6.56-12.84-1.47-31.94 14-35 1.57 5.92 8.01 9.95 9 16-6.12 1.92-11.64 8.26-14 14m132-21c6.4 5.72 10.82 21.12 4.08 28.08-6.75 6.95-10.65-15.15-16.08-18.08 4.97-1.83 7.62-7.3 12-10m-14 30c-11.56 3.18-26.05-1.48-38 0-7.9 1.96-13.94 7.73-12 17h-9c1.61-7.92-3.68-16.71-12-17-11.95-1.48-26.44 3.18-38 0-.93-.26-2.06.2-3 0 5.65-24.72 37.2-18.12 57-18s52.29-7.01 58 18h-3m-71 9c8.93 4.92-.61 15.64 3 25s-11.32 12.44-19 10-21.23 4.64-25-4c-2.51-5.75-2.47-22.32 0-28 1.03-2.37.6-1.96 3-3 4.89-2.13 13.28-1.17 19-1s14.34-1.57 19 1m71 0c2.37 1.03 1.96.6 3 3 2.35 5.41 2.86 23.81 0 29-3.1 5.63-16.31 2.97-22 3s-18.79 2.52-22-3c-2.2-3.78-.88-13.67-1-18s-2.02-15.17 4-15c10-.9 29.33-2.77 38 1m-121 0v17c-11.24.88-12.02-19.08 0-17m133 17v-17c12.01-2.09 11.25 17.88 0 17m-52 26c6.17 1.11 16.13-.95 22 0s18.52-2.3 19 2c1.28 11.54-11.48 22.09-19.08 29.92-7.61 7.83-24.75 13.29-35.92 13.08s-28.97-4.37-36.7-12.3c-7.73-7.94-20.56-19.38-19.3-30.7.47-4.27 11.99-1.06 18-2s16.65 1.14 23 0c11.39-3.6 10.61-15.71 10-26h9c-.36 9.5-1.69 23.36 10 26m-36 75c-.62-3.01-.85-4.99 0-8 3.21-11.35 18.06-17.41 27.08-9.08S265.03 240.69 270 251c-6.22 2.77-11.72 3.3-17.69 7.31-5.98 4-12.16 3.83-15.61-3.01-3.45-6.83-8.79-9.28-8.7-17.3m60 11c-14.31 1.83-14.51-17.8-20-27 10.06 4.8 19.1 15.73 20 27m27 21c-8.59.6-24.39-3.51-25 9-13.24.05-29.46-1.09-38-11 18.07-10.57 49.54-17.95 63 2m-16 18c-1.72-1.2-1.68-7.82 0-9 4.58-3.2 14.12 1.41 20 0s14.58.74 21 0 14.44.55 21 0v9z"/><path fill="none" stroke="#CB595A" stroke-opacity=".6" stroke-width=".3" d="M136 39c-2.79-3.14-5.69-6.28-9-9 2.92 2.81 6.02 6.13 9 9Z"/><path fill="none" stroke="#AE7646" stroke-width=".3" d="M314 67c.69-2.54 1.37-5.16 1-8h-3c-7.48.51-14.42 3.01-22 3-.13-6.91-3.22-13.03-3-20-10.04 2.1-17.94 10.07-28 12-.29-6.87-3.3-13.01-3-20-11.8 3.5-21.53 12.6-33 17V38c-9.4 3.63-12.15 7.28-19.7 15.3-7.54 8.03-5.19 13.03.4 22 5.58 8.98 15.11 10.38 26.3 8.7s24.66 1.81 35 0 24.88 2.4 32.92 1.92S312.51 72.51 314 67Z"/><path fill="none" stroke="#000" stroke-opacity=".96" stroke-width=".3" d="M380 277c-.07 4.02-1.09 9.82-1 13 1.64 11.06 18.26 6.83 27 7s23.64 1.36 30.75-1.25c7.11-2.6 2.36-16.94 3.27-23.73.92-6.79-2.49-17.07-4.1-21.89s-2.69-9.67-5.16-16.88c-2.48-7.21-2.75-11.59-5-17.86-2.26-6.27-3.24-10.72-5.05-17.09-1.81-6.38-3.73-12.06-6.71-18.3 2.37-10.08 5.97-15.43 7-25 9.31-1.39 20.38 2.06 19-10s.61-23.3 0-35 .25-23.63 0-35 0-21.62 0-32c-7.85-6.43-19.86-3.33-32-4s-28.14.79-40 0-25.85-1.36-25 12-.9 27.35 0 40 .41 25.55 0 37-2.79 27.05 10 26 26.16.79 39 0c-3.78 6.57-3.7 17.04-5.74 21.81-2.05 4.78-5.9 14.18-7.19 20.11-1.29 5.94-4.09 12.49-5.67 18.33s-4.24 13.29-5.05 18.05-4.78 9.64-2.65 17c2.12 7.37 13.34 9 20.07 7.47s8.61-11.61 9.83-15.03c1.22-3.41 4.79-12.99 4.4-18.74 5.41-2.81 13.06-2.77 19-1 1.91 15.87 7.92 32.33 13 47-15.76 2.54-37.37-.36-50 2-2.67 1.99-1.96 3.67-2 6m8-211c-1.84-1.29-1-5.85-1-8-2.65.24-5.35-.18-8 0 4.84 11.96-14.83 11.98-10 0h-8c0 2.24.9 6.67-1 8-1.79 1.25-5.99-.94-8 0V48c8.34-.2 15.54.27 24 0s16.27.49 25 0 14.56 1.09 24 0 7.11 10.6 7 18h-44m8 77c-3.24 6.14-13.21 2.09-20 3s-16.91-.68-24 0V75h44c4.15 2.9.08 16.39 1 22s.22 16.67 0 23 1.83 17.64-1 23m36-68v71h-10c-1.28-7.64-10.14-10.05-17-9V75h27m-20 71c5.74 2.88-2.58 15.58-2.98 21.02-.39 5.45-5.63 14.9-6.8 21.2s-5.24 16.03-6.55 22.45c-1.31 6.43-5.89 15.34-6.65 21.35s-5.7 19.93-12.69 15.65 2.72-14.41 2.66-20.68c-.05-6.27 5.95-14.39 6.94-21.06.98-6.67 4.98-15.74 6.85-22.15 1.86-6.42 4.25-16.09 6.2-21.8 1.94-5.72 3.76-20.63 13.02-15.98m-1 49c.41 5.39-.19 6.11 2.91 11.1 3.09 4.99-4.12 10.32-9.91 5.9 3.2-4.56 1.85-13.84 7-17m-23 93c-1.72-1.2-1.68-7.82 0-9 4.92-3.45 15.92 1.8 22 0s15.61 1.35 22 0v9z"/><path fill="none" stroke="#ADD37C" stroke-width=".3" d="M360 66c.54-2.89-1.17-6.92 1-9 2.98-.27 6.02.2 9 0v9c11.92 4.36 4.34-13.73 17-9 2.13 2.05.46 6.19 1 9h44c.11-7.4 2.44-19.09-7-18s-15.27-.49-24 0-16.54-.27-25 0-15.66-.2-24 0v18c2.01-.94 6.21 1.25 8 0Z"/><path fill="none" stroke="#000205" stroke-opacity=".67" stroke-width=".3" d="M300 52c-.98-.12-2.3-.16-3-1 .73 3.84.24 1.89 3 1Z"/><path fill="none" stroke="#7A915F" stroke-width=".3" d="M360 66c1.9-1.33 1-5.76 1-8v-1c-2.17 2.08-.46 6.11-1 9Z"/><path fill="none" stroke="#3C4D24" stroke-width=".3" d="M361 58h8c-4.83 11.98 14.84 11.96 10 0 2.65-.18 5.35.24 8 0v-1c-12.66-4.73-5.08 13.36-17 9v-9c-2.98.2-6.02-.27-9 0z"/><path fill="none" stroke="#65794A" stroke-width=".3" d="M387 58c0 2.15-.84 6.71 1 8-.54-2.81 1.13-6.95-1-9z"/><path fill="none" d="M92 153c-.14 2.66.14 5.34 0 8-1.12 20.57-1.82 41.29 3 61 1.1 3.07 2.11 5.73 3 9 3.33 9.12 6.83 20.18 16 25 18.38-33.39 28.95-75.42 26-114-.31-1.92-.95-4.46-1-7-.18-8.94-.87-16.62-3-25s-2.88-14.16-5.07-22.93c-2.2-8.77-4.88-9.62-6.95-20.05-2.08-10.42-6.41-8.12-9.21.75s-6.44 11.06-8.84 19.16c-2.41 8.1-3.41 11.9-5.61 19.39s-2.04 15.86-5 23c-2.96 7.15-2.9 16.01-3.32 23.68"/><path fill="none" stroke="#5F4229" stroke-width=".3" d="M312 59h3c.37 2.84-.31 5.46-1 8 2.81-1.89 1.84-5.95 2-9-1.32-.95-3.37.96-4 1Z"/><path fill="none" stroke="#AA7547" stroke-width=".3" d="M177 107c1.35 1.96 3.09 3.79 6 3-.35-2.97 1.03-6.11 3-8 2.36-5.74 7.88-12.08 14-14-.99-6.05-7.43-10.08-9-16-15.47 3.06-20.56 22.16-14 35Z"/><path fill="none" stroke="#DFE2E6" stroke-width=".3" d="M396 143c3.51-10.12-1.83-23.3 0-34s-1.37-23.14 0-34h-44v71c7.09-.68 17.21.91 24 0s16.76 3.14 20-3m-9-50c-2.91 2.04-9.41-1.06-13 0s-9.22-.8-13 0v-9h26c1.72 1.2 1.68 7.82 0 9m0 17c-1.64 2.35-10.14.99-13 1s-11.37 1.33-13-1c-1.25-1.79.94-5.99 0-8h26v8m0 18c-2.91 2.04-9.41-1.06-13 0s-9.22-.8-13 0v-8c3.31-4.72 13.25 2.01 18-1s14.17 4.68 8 9Z"/><path fill="none" stroke="#565759" stroke-width=".3" d="M396 143c2.83-5.36.78-16.67 1-23s.92-17.39 0-23 3.15-19.1-1-22c-1.37 10.86 1.83 23.3 0 34s3.51 23.88 0 34Z"/><path fill="none" stroke="#DEE1E5" stroke-width=".3" d="M432 75h-27v62c6.86-1.05 15.72 1.36 17 9h10V75m-9 9v9h-9v-9h9m0 18c.42.6.42 7.4 0 8-1.2 1.72-7.82 1.68-9 0-1.04-1.49.02-7.02 1-8 1.42-1.42 6.7-1.85 8 0m0 18c1.25 1.79-.94 5.99 0 8h-9c.56-2.52-1.19-6.3 1-8 1.42-1.42 6.7-1.85 8 0Z"/><path fill="none" stroke="#A77447" stroke-width=".3" d="M318 81c-4.38 2.7-7.03 8.17-12 10 5.43 2.93 9.33 25.03 16.08 18.08 6.74-6.96 2.32-22.36-4.08-28.08Z"/><path fill="none" stroke="#020203" stroke-width=".3" d="M387 93v-9h-26v9c3.78-.8 9.41 1.06 13 0s10.09 2.04 13 0Z"/><path fill="none" stroke="#838487" stroke-width=".3" d="M387 93c1.68-1.18 1.72-7.8 0-9z"/><path fill="none" stroke="#0C0C0E" stroke-width=".3" d="M423 84h-9v9h9z"/><path fill="none" stroke="#EBCDB3" stroke-width=".3" d="M195 111c11.18 1.91 26.42-2.87 38 0 8.32.29 13.61 9.08 12 17h9c-1.94-9.27 4.1-15.04 12-17 11.64-2.88 26.9 1.9 38 0h3c-5.71-25.01-38.2-17.88-58-18s-51.35-6.72-57 18c.94.2 2.07-.26 3 0Z"/><path fill="none" stroke="#818286" stroke-width=".3" d="M415 102c1.79-1.25 5.99.94 8 0-1.3-1.85-6.58-1.42-8 0Z"/><path fill="none" stroke="#523922" stroke-width=".3" d="M177 107c4.61 9.02 7.13-.06 9-5-1.97 1.89-3.35 5.03-3 8-2.91.79-4.65-1.04-6-3Z"/><path fill="none" stroke="#000001" stroke-width=".3" d="M361 110h26v-8h-26c.94 2.01-1.25 6.21 0 8Z"/><path fill="none" stroke="#020507" stroke-width=".3" d="M414 110h9c.42-.6.42-7.4 0-8-2.01.94-6.21-1.25-8 0-.98.98-2.04 6.51-1 8Z"/><path fill="none" stroke="#88796C" stroke-width=".3" d="M195 111c11.56 3.18 26.05-1.48 38 0-11.58-2.87-26.82 1.91-38 0Z"/><path fill="none" stroke="#877A6C" stroke-width=".3" d="M266 111c11.95-1.48 26.44 3.18 38 0-11.1 1.9-26.36-2.88-38 0Z"/><path fill="none" stroke="#606164" stroke-width=".3" d="M387 110h-26c1.63 2.33 10.14 1.01 13 1s11.36 1.35 13-1Z"/><path fill="none" stroke="#65666A" stroke-width=".3" d="M423 110h-9c1.18 1.68 7.8 1.72 9 0Z"/><path fill="none" stroke="#3B6F76" stroke-width=".3" d="M195 120c5.24-1.43 13.57-.15 19 0s13.97-1.83 19 0c-4.66-2.57-13.28-.83-19-1s-14.11-1.13-19 1Z"/><path fill="none" stroke="#012835" stroke-width=".3" d="M263 152c-1.63-4.2.39-12.6 0-17s-1.72-13.07 3-15c.17-.07 0-1 0-1-6.02-.17-4.12 10.67-4 15s-1.2 14.22 1 18Z"/><path fill="none" stroke="#3A6F76" stroke-width=".3" d="M266 120c11.84 1.07 26.59-3.12 38 0-8.67-3.77-28-1.9-38-1 0 0 .17.93 0 1Z"/><path fill="none" stroke="#717276" stroke-width=".3" d="M361 120h26v8c6.17-4.32-3.25-12.01-8-9s-14.69-3.72-18 1Z"/><path fill="none" stroke="#6F7074" stroke-width=".3" d="M415 120c1.79-1.25 5.99.94 8 0-1.3-1.85-6.58-1.42-8 0Z"/><path fill="none" stroke="#DCC1AC" stroke-width=".3" d="M183 120c-12.02-2.08-11.24 17.88 0 17z"/><path fill="none" stroke="#6BD0EC" stroke-width=".3" d="M192 123c-1.09 3.98 0 9.85 0 14s-1.09 10.02 0 14c3.77 8.64 17.32 1.56 25 4s22.61-.64 19-10 5.93-20.08-3-25c-5.03-1.83-13.57.15-19 0s-13.76-1.43-19 0c-2.4 1.04-1.97.63-3 3m31 20c-7.17-14.69-17.56 4.87-26-3 2.24-9.33 13.07-12.85 21.22-11.22 8.16 1.63 18.74 13.09 4.78 14.22Z"/><path fill="none" stroke="#6CD0EB" stroke-width=".3" d="M263 152c3.21 5.52 16.31 3.03 22 3s18.9 2.63 22-3c1.38-3.79-.01-9.83 0-14s1.11-10.93 0-15c-1.04-2.4-.63-1.97-3-3-11.41-3.12-26.16 1.07-38 0-4.72 1.93-3.39 10.6-3 15s-1.63 12.8 0 17m31-9c-2.66-8.02-14.66-7.41-18 0-2.95-.13-5.02-2.88-8-3 2.5-9.46 12.79-12.45 21.07-11.07 8.29 1.37 19.27 12.85 4.93 14.07Z"/><path fill="none" stroke="#DBC2AB" stroke-width=".3" d="M316 137c11.25.88 12.01-19.09 0-17z"/><path fill="none" stroke="#000" stroke-width=".3" d="M387 128v-8h-26v8c3.78-.8 9.41 1.06 13 0s10.09 2.04 13 0Z"/><path fill="none" stroke="#010207" stroke-width=".3" d="M423 120c-2.01.94-6.21-1.25-8 0-2.19 1.7-.44 5.48-1 8h9c-.94-2.01 1.25-6.21 0-8Z"/><path fill="none" stroke="#294F5A" stroke-width=".3" d="M192 151c-1.09-3.98 0-9.85 0-14s-1.09-10.02 0-14c-2.47 5.68-2.51 22.25 0 28Z"/><path fill="none" stroke="#265B6C" stroke-width=".3" d="M307 152c2.86-5.19 2.35-23.59 0-29 1.11 4.07.01 10.83 0 15s1.38 10.21 0 14Z"/><path fill="none" stroke="#030A0F" stroke-width=".3" d="M223 143c13.96-1.13 3.38-12.59-4.78-14.22-8.15-1.63-18.98 1.89-21.22 11.22 8.44 7.87 18.83-11.69 26 3Z"/><path fill="none" stroke="#01090D" stroke-width=".3" d="M294 143c14.34-1.22 3.36-12.7-4.93-14.07-8.28-1.38-18.57 1.61-21.07 11.07 2.98.12 5.05 2.87 8 3 3.34-7.41 15.34-8.02 18 0Z"/><path fill="none" stroke="#743639" stroke-opacity=".07" stroke-width=".3" d="M140 142c-.17-2.27-.84-5.34-1-7 .05 2.54.69 5.08 1 7Z"/><path fill="none" stroke="#E9CBB1" stroke-width=".3" d="M235 163c-4.97 1.57-14.97-.06-20 1s-18.44-2.97-21 1c-1.26 11.32 11.57 22.76 19.3 30.7 7.73 7.93 25.53 12.09 36.7 12.3s28.31-5.25 35.92-13.08c7.6-7.83 20.36-18.38 19.08-29.92-2.54-3.94-14.82-.06-20-1s-15.93.6-21-1c-11.69-2.64-10.36-16.5-10-26h-9c.61 10.29 1.39 22.4-10 26m41 17c-8.39 13.71-26.01 9.45-40 10-3.69-12.89 13.82-6.76 21-8s12.96-10.47 19-2Z"/><path fill="none" stroke="#773234" stroke-opacity=".3" stroke-width=".3" d="M172 189c1.65-12.1 3.69-31.73 0-44-.16-.55-.95-1.79-1-2 1.71 14.92 1 30.69 1 46Z"/><path fill="none" stroke="#C4C8D0" stroke-width=".3" d="M412 146c-9.26-4.65-11.08 10.26-13.02 15.98-1.95 5.71-4.34 15.38-6.2 21.8-1.87 6.41-5.87 15.48-6.85 22.15-.99 6.67-6.99 14.79-6.94 21.06.06 6.27-9.65 16.4-2.66 20.68s11.93-9.64 12.69-15.65 5.34-14.92 6.65-21.35c1.31-6.42 5.38-16.15 6.55-22.45s6.41-15.75 6.8-21.2c.4-5.44 8.72-18.14 2.98-21.02Z"/><path fill="none" stroke="#82282C" stroke-opacity=".2" stroke-width=".3" d="M92 161c.14-2.66-.14-5.34 0-8-.42 2.56-.11 5.54 0 8Z"/><path fill="none" stroke="#681B1C" stroke-opacity=".1" stroke-width=".3" d="M52 186c0-9.21-1.08-17.86 0-27-2.08 8.94-1.27 17.68 0 27Z"/><path fill="none" stroke="#5A4C40" stroke-width=".3" d="M194 165c2.56-3.97 15.97.06 21-1s15.03.57 20-1c-6.35 1.14-16.99-.94-23 0s-17.53-2.27-18 2Z"/><path fill="none" stroke="#5B4D41" stroke-width=".3" d="M305 165c-.48-4.3-13.13-1.05-19-2s-15.83 1.11-22 0c5.07 1.6 15.82.06 21 1s17.46-2.94 20 1Z"/><path fill="none" stroke="#040201" stroke-width=".3" d="M276 180c-6.04-8.47-11.82.76-19 2s-24.69-4.89-21 8c13.99-.55 31.61 3.71 40-10Z"/><path fill="none" stroke="#D15153" stroke-opacity=".42" stroke-width=".3" d="M52 198c.27.25 1 0 1 0 0-2.84-.7-5.8-1-8 .01 1.91-.87 7.19 0 8Z"/><path fill="none" stroke="#F7F7F7" stroke-opacity=".92" stroke-width=".3" d="M621 193c-2.04.21-5.58 1.43-8 2-10.38 1.95-10.66 12.94-10.79 21.77S599.03 234.31 599 244s-1.1 22.06 1.23 31.77 16.71 5.57 21.02-.52S636.32 257.79 623 257c-.52 4.93-5.6 8.11-10 9-2.32-7.91-.65-16.98 0-25 4.05-1.36 23.33-.67 21.92-6.92S620.37 223.85 615 225c-.26-8.21 1.42-17.73 7.93-20.07 6.51-2.35 22.1-.63 19.82-7.68-2.28-7.06-17.13-4.29-21.75-4.25Z"/><path fill="none" stroke="#CF575B" stroke-opacity=".62" stroke-width=".3" d="M171 201c-.67-2.94 1.09-5.18 1-8-.55 2.85-1 5.21-1 8Z"/><path fill="none" stroke="#76202A" stroke-opacity=".05" stroke-width=".3" d="M171 201c.61-2.85 1.25-5.35 1-8 .09 2.82-1.67 5.06-1 8Z"/><path fill="none" stroke="#000" stroke-opacity=".85" stroke-width=".3" d="M343 196c-11.11-9.16-14.76 11.91-17.94 18.92-3.17 7.01-6.75 15.2-7.06 24.08 11.56 3.18 10.75-9.49 15.07-16.93 4.33-7.43 5.4-17.82 9.93-26.07Z"/><path fill="none" stroke="#717171" stroke-opacity=".08" stroke-width=".3" d="M613 195c2.42-.57 5.96-1.79 8-2-3.7.03-5.12.92-8 2Z"/><path fill="none" stroke="#000" stroke-opacity=".12" stroke-width=".3" d="M411 195c-5.15 3.16-3.8 12.44-7 17 5.79 4.42 13-.91 9.91-5.9-3.1-4.99-2.5-5.71-2.91-11.1Z"/><path fill="none" stroke="#F8F8F8" stroke-opacity=".93" stroke-width=".3" d="M579 200c-2.86-.32-4.98.92-7 0-5.79-2.64-12.52-8.26-16.08.92-3.55 9.19-1.59 13.71-1.92 22.08s.44 18.05 0 26-.98 12.72-1 20c-.01 7.28 8.26 9.04 13.78 12.22s13.4-2.49 16.3-8.14 6.83-12.18 7.93-19.07c1.1-6.9 3.79-13.5 3.66-20.34s2.13-15.29-1.75-21.59c-3.87-6.31-6.99-10.25-13.92-12.08m-7 62c.34-.54.81 2.69-1 2-1.06-1.55-1.91-4.89 0-6-.08-1.66 0-3.34 0-5v-7c0-3.1.77-6.64 1-9 0-9.22.18-18.01 1-27 9.67.35 12.59 9.02 14 17-8.72 8.14-7.57 25.18-15 35Z"/><path fill="none" stroke="#F6F6F6" stroke-opacity=".92" stroke-width=".3" d="M545 208c.66-7.81-9.69-14.18-16.75-10.75-7.07 3.42-9.45 10.13-13.48 16.52s-6.87 14.1-7.99 22.01c-1.13 7.91-2.61 19.2-.77 27.21s3.25 13.4 10.92 18.08 15.33-2.88 18.77-9.37c3.43-6.5 7.68-12.63 9.97-20.03s2.05-18.26 2.26-25.6c.2-7.33-8.48-14.19-2.93-18.07m-9 22c.86-.35 2.11.28 3 0-.26 2.39-1.36 4.93-3 2-1.4 5.95-5.44 18.24-8.25 22.75-2.82 4.5-8.07 22.92-8.75 6.25s7.95-33.26 17-46c1 4.79 1.77 10.24 0 15m-3 24c-.3 2.04-1.29 5.27-4 5 .3-2.04 1.29-5.27 4-5Z"/><path fill="none" stroke="#872C2A" stroke-opacity=".31" stroke-width=".3" d="M53 207v-9s-.73.25-1 0c.03 3.08.77 6.59 1 9Z"/><path fill="none" stroke="#F3F3F3" stroke-opacity=".91" stroke-width=".3" d="M475 281c3.71.85 7.09-.14 10-2 6.38-5.5 7.77-7.81 13.08-14.92s2.15-12.88-4.83-7.83c-6.99 5.04-6.67 10.63-14.25 12.75 2.91.31 3.18 1.76-1 2-.19-1.56-1.98-4.83 1-3-1.11-3.48-1.41-6.36-2-10-.47-2.92-.62-5.09 0-8 1.56-7.26 2.77-16.45 6.67-23.33 3.9-6.87 3.17-14.09 12.11-17.89 8.94-3.81 1.15-12.5-6.75-9.75-7.91 2.74-11.41 8.07-15.11 14.89-3.69 6.83-5.48 13.84-7.94 21.06-2.47 7.21-3 20.12-1.3 27.34 1.69 7.23 2.88 15.87 10.32 18.68Z"/><path fill="none" stroke="#F6F6F6" stroke-opacity=".93" stroke-width=".3" d="M695 219c-.11 2.28-.16 4.73 0 7 .85 12.19 7.91 24.35 12 36 1.04 2.95 2.45 2.25-1 5-4.05 3.23-18.73 9.73-8.22 13.22s12.94-2.87 21.54-6.9.28-12.02-2.55-19.09c-2.83-7.08-5.36-16.51-5.44-24.56s1.91-15.78 7.92-22.42-6.89-11.34-14.02-8.02S695.38 211.34 695 219Z"/><path fill="none" stroke="#F6F6F6" stroke-opacity=".92" stroke-width=".3" d="M758 205c-2.5-7.41-18.48-10.01-23.22-2.22-4.75 7.79-5.34 19.44-3.11 28.55 2.23 9.1 3.57 17.25 9.02 25.98 5.46 8.72-5.2 13.13-11.69 17.69 4.92 10.1 13.96 5.7 23.75.75 9.8-4.95 3.09-13.58-.76-20.74-3.84-7.16-5.28-20.05-5.98-28S752.05 209.88 758 205Z"/><path fill="none" stroke="#757575" stroke-opacity=".3" stroke-width=".3" d="M572 200c2.02.92 4.14-.32 7 0-2.05-.54-4.56-1.53-7 0Z"/><path fill="none" stroke="#000" stroke-opacity=".87" stroke-width=".3" d="M310 201c-8.32 1.29-9.13 13.29-17 15 2.49 6.75 11.09 14.88 17 17 2.42-1.15 3.98-3.65 5-6-2.97-2.97-12.6-8.51-6.75-12.75s6.86-8.48 1.75-13.25Z"/><path fill="none" stroke="#000" stroke-opacity=".86" stroke-width=".3" d="M367 216c-6.26-5.01-11.25-12.05-18-15-8.91 4.06-1.21 11.52 4 15 .17 5.68-9.98 7.39-7.25 13.25s8.79 2.28 11.5-2 8.56-6.26 9.75-11.25Z"/><path fill="none" stroke="#F5F5F5" stroke-opacity=".91" stroke-width=".3" d="M668 207c-2.56-.17-7.24-1.05-9-1-11.41-.73-14.77 4.3-15 15s-.63 20.39-1.22 30.78-.3 19.38-.78 29.22c11 5.35 14.12-7.93 14-16 10.88 3.32 26.72 27.68 33 8-9.65 0-10.69-7.66-18.92-11.08-8.24-3.41-5.31-12.03-.85-18.69s8.15-12.13 9.79-20.21c1.65-8.07-1.65-15.38-11.02-16.02m4 13c-3.79 8.81-11.5 16.03-15 25-2.01-7.89-1.51-18.12 1-26 4.81-.17 9.49-.06 14 1Z"/><path fill="none" stroke="#7D7D7D" stroke-opacity=".32" stroke-width=".3" d="M668 207c-2.51-.45-5.74-1.4-9-1 1.76-.05 6.44.83 9 1Z"/><path fill="none" stroke="#000" stroke-opacity=".01" stroke-width=".3" d="M572 237c0 3 .06 6 0 9-.05 2.44-.81 5.27-1 7 0 1.66-.08 3.34 0 5 .08 1.63.81 2.98 1 4 7.43-9.82 6.28-26.86 15-35-1.41-7.98-4.33-16.65-14-17-.82 8.99-1 17.78-1 27Zm-36-5c.11-.47-.11-1.53 0-2 1.77-4.76 1-10.21 0-15-9.05 12.74-17.68 29.33-17 46s5.93-1.75 8.75-6.25c2.81-4.51 6.85-16.8 8.25-22.75Z"/><path fill="none" stroke="#F5D270" stroke-width=".3" d="M228 230c-.37 2.4-.22 5.58 0 8-.09 8.02 5.25 10.47 8.7 17.3 3.45 6.84 9.63 7.01 15.61 3.01 5.97-4.01 11.47-4.54 17.69-7.31-4.97-10.31-5.9-21.75-14.92-30.08S231.21 218.65 228 230Z"/><path fill="none" d="M672 220c-4.51-1.06-9.19-1.17-14-1-2.51 7.88-3.01 18.11-1 26 3.5-8.97 11.21-16.19 15-25"/><path fill="none" stroke="#5E5E5E" stroke-opacity=".15" stroke-width=".3" d="M695 226c-.16-2.27-.11-4.72 0-7-.42 2.56-.54 4.34 0 7Z"/><path fill="none" stroke="#BC5254" stroke-opacity=".5" stroke-width=".3" d="M98 231c-.89-3.27-1.9-5.93-3-9 .48 1.96 1.86 6.26 3 9Z"/><path fill="none" stroke="#E7C971" stroke-width=".3" d="M288 249c-.9-11.27-9.94-22.2-20-27 5.49 9.2 5.69 28.83 20 27Z"/><path fill="none" stroke="#897744" stroke-width=".3" d="M228 238c-.22-2.42-.37-5.6 0-8-.85 3.01-.62 4.99 0 8Z"/><path fill="none" stroke="#AAA" stroke-opacity=".65" stroke-width=".3" d="M536 232c1.64 2.93 2.74.39 3-2-.89.28-2.14-.35-3 0-.11.47.11 1.53 0 2Z"/><path fill="none" stroke="#727272" stroke-opacity=".29" stroke-width=".3" d="M571 246c.01-.07 1 0 1 0 .06-3 0-6 0-9-.23 2.36-1 5.9-1 9Z"/><path fill="none" stroke="#666" stroke-opacity=".08" stroke-width=".3" d="M571 253c.19-1.73.95-4.56 1-7 0 0-.99-.07-1 0z"/><path fill="none" stroke="#BFBFBF" stroke-opacity=".44" stroke-width=".3" d="M477 258c-.03-1.82-.07-5.44 0-8-.62 2.91-.47 5.08 0 8Z"/><path fill="none" stroke="#A9A9A8" stroke-opacity=".65" stroke-width=".3" d="M533 254c-2.71-.27-3.7 2.96-4 5 2.71.27 3.7-2.96 4-5Z"/><path fill="none" stroke="#E8CAB1" stroke-width=".3" d="M315 270c-13.46-19.95-44.93-12.57-63-2 8.54 9.91 24.76 11.05 38 11 .61-12.51 16.41-8.4 25-9Z"/><path fill="none" stroke="#8F8F8F" stroke-opacity=".24" stroke-width=".3" d="M572 262c-.19-1.02-.92-2.37-1-4-1.91 1.11-1.06 4.45 0 6 1.81.69 1.34-2.54 1-2Z"/><path fill="none" stroke="#969696" stroke-opacity=".25" stroke-width=".3" d="M706 267c3.45-2.75 2.04-2.05 1-5 .09 1.85.05 3.47-1 5Z"/><path fill="none" stroke="#E9E9E9" stroke-opacity=".65" stroke-width=".3" d="M479 269s.15-.55 0-1c-2.98-1.83-1.19 1.44-1 3 4.18-.24 3.91-1.69 1-2Z"/><path fill="none" stroke="#010101" stroke-opacity=".65" stroke-width=".3" d="M379 290c-.09-3.18.93-8.98 1-13-1.12 3.79-2.3 7.73-1 13Z"/><path fill="none" stroke="#5A5D62" stroke-width=".3" d="M299 288v-9c-1.68 1.18-1.72 7.8 0 9Z"/><path fill="none" stroke="#A3AAB4" stroke-width=".3" d="M299 288h62v-9c-6.56.55-14.58-.74-21 0s-15.12-1.41-21 0-15.42-3.2-20 0z"/><path fill="none" stroke="#5B5E63" stroke-width=".3" d="M388 288v-9c-1.68 1.18-1.72 7.8 0 9Z"/><path fill="none" stroke="#A3AAB4" stroke-width=".3" d="M388 288h44v-9c-6.39 1.35-15.92-1.8-22 0s-17.08-3.45-22 0z"/><path fill="none" stroke="#777877" stroke-opacity=".24" stroke-width=".3" d="M475 281c4.52 1.71 6.44 1.07 10-2-2.91 1.86-6.29 2.85-10 2Z"/><path fill="none" stroke="#6D1F1F" stroke-opacity=".17" stroke-width=".3" d="M116 290c-2.49-.24-7.17-1.14-10-2 3.38 1.6 5.51 2 10 2Z"/><path fill="none" stroke="None" d="M0 315h792V0H0v315M127 30c3.31 2.72 6.21 5.86 9 9 10.27 9.87 12.97 23.5 18.92 36.08 5.96 12.57 10.76 28.91 13.08 42.92.67-8.7 1.98-13.92-1.22-21.22-3.2-7.31 1.79-15.25 4.99-21.01 3.2-5.75 8.98-11.18 15.23-11.77 5.28-9.48 8.98-18.47 18.75-26.25s15-8.88 25.25-12.75c.42 3.98-.99 8.44 1 12 3.97-3.63 11.82-5.23 15.69-8.31 3.88-3.07 9.51-4.44 10.31-8.69 5.21 1.15 4.72 5.12 5.75 8.39 1.04 3.28.4 9.04 3.25 13.61 9.33-4.07 16.82-11.49 27-12-2.86 8.09 3.39 13.94 3 21 .7.84 2.02.88 3 1 6.86.82 16.07-4.78 24-3-.31 13.98-3.54 24.06 5.77 32.24 9.31 8.17 3.97 26.22-1.77 33.76 12.3 8.52 4.65 31.69-11 30 .52 30-18.4 60.47-46 67 7.49 6.22 12.87 9.46 17.77 18.23 4.91 8.77 9.49 12.99 9.23 21.77 4.74-.24 15.38-1.14 19.74 5.26 4.37 6.39 7.84 15.77 19.26 12.74s21.23 2.01 29 1c-1.91 1.65 1.3 4.88 3 3-.3 4.36.45 10.01 1 17-4.38 3.36-9.13 5.46-17 5s-16.95-.35-25 0-15.84-1.51-24 0-11.19-4.48-15.77-7.24c-4.58-2.75-14.24.14-17.3-1.83-3.07-1.97-10.43-4.83-15.62-6.24-5.2-1.4-9.32-4.26-13.08-7.26s-5.04-9.05-11.23-8.43c-5.16-8.34-7.05-14.86-10.79-21.57-3.73-6.71-.07-17.21 1.79-24.43 2.35-1.02 4.85-2.58 6-5-5.04-3.81-12.32-4.07-17.7-9.3-5.37-5.24-9.62-10.82-16-16-6.39-5.17-4.58-14.72-7.63-20.37-3.06-5.65-3.27-14.82-4.67-23.33-3.57 1.85-6.74-1.21-10 0 3.69 12.27 1.65 31.9 0 44 0 1.31-.12 2.69 0 4 .25 2.65-.39 5.15-1 8-2.19 10.22-1.83 21.06-4.99 31.01-3.16 9.94-6.11 16.31-9.78 26.22s-8.24 11.77-15.48 20.52S128.14 290 116 290c-4.49 0-6.62-.4-10-2-15.16-7.17-29.4-15.41-36.31-31.69C62.79 240.02 53 225.18 53 207c-.23-2.41-.97-5.92-1-9-.87-.81.01-6.09 0-8-.01-1.33 0-2.67 0-4-1.27-9.32-2.08-18.06 0-27 1.91-16.24 5.61-33.27 3-48 6.16-3.03 3.82-13.44 10-17-.76-6.2 4.26-13.5 7.93-19.07 3.66-5.58 5.71-13.99 11.15-17.85s10.22-12.17 18.94-11.06c8.73 1.12 12.88-8.89 2.73-11.77C95.61 31.36 92.41 22.7 104 24c2.08-6.29 6.11-2.42 9.7.3 3.58 2.72 10.84.86 13.3 5.7m252 260c-1.3-5.27-.12-9.21 1-13 .04-2.33-.67-4.01 2-6 12.63-2.36 34.24.54 50-2-5.08-14.67-11.09-31.13-13-47-5.94-1.77-13.59-1.81-19 1 .39 5.75-3.18 15.33-4.4 18.74-1.22 3.42-3.1 13.5-9.83 15.03s-17.95-.1-20.07-7.47c-2.13-7.36 1.84-12.24 2.65-17s3.47-12.21 5.05-18.05 4.38-12.39 5.67-18.33c1.29-5.93 5.14-15.33 7.19-20.11 2.04-4.77 1.96-15.24 5.74-21.81-12.84.79-26.21-1.05-39 0s-10.41-14.55-10-26 .9-24.35 0-37 .85-26.64 0-40 13.14-12.79 25-12 27.86-.67 40 0 24.15-2.43 32 4c0 10.38-.25 20.63 0 32s-.61 23.3 0 35-1.38 22.94 0 35-9.69 8.61-19 10c-1.03 9.57-4.63 14.92-7 25 2.98 6.24 4.9 11.92 6.71 18.3 1.81 6.37 2.79 10.82 5.05 17.09 2.25 6.27 2.52 10.65 5 17.86 2.47 7.21 3.55 12.06 5.16 16.88s5.02 15.1 4.1 21.89c-.91 6.79 3.84 21.13-3.27 23.73-7.11 2.61-22.01 1.42-30.75 1.25s-25.36 4.06-27-7m234-95c2.88-1.08 4.3-1.97 8-2 4.62-.04 19.47-2.81 21.75 4.25 2.28 7.05-13.31 5.33-19.82 7.68-6.51 2.34-8.19 11.86-7.93 20.07 5.37-1.15 18.51 2.83 19.92 9.08S617.05 239.64 613 241c-.65 8.02-2.32 17.09 0 25 4.4-.89 9.48-4.07 10-9 13.32.79 2.56 12.16-1.75 18.25s-18.69 10.23-21.02.52-1.26-22.08-1.23-31.77 3.08-18.4 3.21-27.23.41-19.82 10.79-21.77m-270 1c-4.53 8.25-5.6 18.64-9.93 26.07-4.32 7.44-3.51 20.11-15.07 16.93.31-8.88 3.89-17.07 7.06-24.08 3.18-7.01 6.83-28.08 17.94-18.92m229 4c2.44-1.53 4.95-.54 7 0 6.93 1.83 10.05 5.77 13.92 12.08 3.88 6.3 1.62 14.75 1.75 21.59s-2.56 13.44-3.66 20.34c-1.1 6.89-5.03 13.42-7.93 19.07s-10.78 11.32-16.3 8.14S552.99 276.28 553 269c.02-7.28.56-12.05 1-20s-.33-17.63 0-26-1.63-12.89 1.92-22.08c3.56-9.18 10.29-3.56 16.08-.92m-27 8c-5.55 3.88 3.13 10.74 2.93 18.07-.21 7.34.03 18.2-2.26 25.6s-6.54 13.53-9.97 20.03c-3.44 6.49-11.1 14.05-18.77 9.37s-9.08-10.07-10.92-18.08-.36-19.3.77-27.21c1.12-7.91 3.96-15.62 7.99-22.01s6.41-13.1 13.48-16.52c7.06-3.43 17.41 2.94 16.75 10.75m-68 42c-.07 2.56-.03 6.18 0 8 .59 3.64.89 6.52 2 10 .15.45 0 1 0 1 7.58-2.12 7.26-7.71 14.25-12.75 6.98-5.05 10.14.72 4.83 7.83S491.38 273.5 485 279c-3.56 3.07-5.48 3.71-10 2-7.44-2.81-8.63-11.45-10.32-18.68-1.7-7.22-1.17-20.13 1.3-27.34 2.46-7.22 4.25-14.23 7.94-21.06 3.7-6.82 7.2-12.15 15.11-14.89 7.9-2.75 15.69 5.94 6.75 9.75-8.94 3.8-8.21 11.02-12.11 17.89-3.9 6.88-5.11 16.07-6.67 23.33m229 17c1.05-1.53 1.09-3.15 1-5-4.09-11.65-11.15-23.81-12-36-.54-2.66-.42-4.44 0-7 .38-7.66 3.1-16.45 10.23-19.77s20.03 1.38 14.02 8.02-8 14.37-7.92 22.42 2.61 17.48 5.44 24.56c2.83 7.07 11.15 15.06 2.55 19.09s-11.03 10.39-21.54 6.9 4.17-9.99 8.22-13.22m52-62c-5.95 4.88-12.69 14.06-11.99 22.01s2.14 20.84 5.98 28c3.85 7.16 10.56 15.79.76 20.74-9.79 4.95-18.83 9.35-23.75-.75 6.49-4.56 17.15-8.97 11.69-17.69-5.45-8.73-6.79-16.88-9.02-25.98-2.23-9.11-1.64-20.76 3.11-28.55 4.74-7.79 20.72-5.19 23.22 2.22m-448-4c5.11 4.77 4.1 9.01-1.75 13.25s3.78 9.78 6.75 12.75c-1.02 2.35-2.58 4.85-5 6-5.91-2.12-14.51-10.25-17-17 7.87-1.71 8.68-13.71 17-15m57 15c-1.19 4.99-7.04 6.97-9.75 11.25s-8.77 7.86-11.5 2 7.42-7.57 7.25-13.25c-5.21-3.48-12.91-10.94-4-15 6.75 2.95 11.74 9.99 18 15m301-9c9.37.64 12.67 7.95 11.02 16.02-1.64 8.08-5.33 13.55-9.79 20.21s-7.39 15.28.85 18.69c8.23 3.42 9.27 11.08 18.92 11.08-6.28 19.68-22.12-4.68-33-8 .12 8.07-3 21.35-14 16 .48-9.84.19-18.83.78-29.22s.99-20.08 1.22-30.78 3.59-15.73 15-15c3.26-.4 6.49.55 9 1Z"/><path fill="#F95657" fill-opacity=".97" stroke="None" d="M52 159c-1.08 9.14 0 17.79 0 27 0 1.33-.01 2.67 0 4 .3 2.2 1 5.16 1 8v9c0 18.18 9.79 33.02 16.69 49.31C76.6 272.59 90.84 280.83 106 288c2.83.86 7.51 1.76 10 2 12.14 0 17.51-2.5 24.75-11.25s11.81-10.61 15.48-20.52 6.62-16.28 9.78-26.22c3.16-9.95 2.8-20.79 4.99-31.01 0-2.79.45-5.15 1-8-.12-1.31 0-2.69 0-4 0-15.31.71-31.08-1-46-.93-8.14-3.64-16.63-3-25-2.32-14.01-7.12-30.35-13.08-42.92C148.97 62.5 146.27 48.87 136 39c-2.98-2.87-6.08-6.19-9-9-2.46-4.84-9.72-2.98-13.3-5.7-3.59-2.72-7.62-6.59-9.7-.3-11.59-1.3-8.39 7.36 1.75 10.25 10.15 2.88 6 12.89-2.73 11.77-8.72-1.11-13.5 7.2-18.94 11.06s-7.49 12.27-11.15 17.85C69.26 80.5 64.24 87.8 65 94c-6.18 3.56-3.84 13.97-10 17 2.61 14.73-1.09 31.76-3 48m87-24c.16 1.66.83 4.73 1 7 2.95 38.58-7.62 80.61-26 114-9.17-4.82-12.67-15.88-16-25-1.14-2.74-2.52-7.04-3-9-4.82-19.71-4.12-40.43-3-61-.11-2.46-.42-5.44 0-8 .42-7.67.36-16.53 3.32-23.68 2.96-7.14 2.8-15.51 5-23s3.2-11.29 5.61-19.39c2.4-8.1 6.04-10.29 8.84-19.16s7.13-11.17 9.21-.75c2.07 10.43 4.75 11.28 6.95 20.05 2.19 8.77 2.94 14.55 5.07 22.93s2.82 16.06 3 25Z"/><path fill="#020101" fill-opacity=".98" stroke="None" d="M168 118c-.64 8.37 2.07 16.86 3 25 .05.21.84 1.45 1 2 3.26-1.21 6.43 1.85 10 0 1.4 8.51 1.61 17.68 4.67 23.33 3.05 5.65 1.24 15.2 7.63 20.37 6.38 5.18 10.63 10.76 16 16 5.38 5.23 12.66 5.49 17.7 9.3-1.15 2.42-3.65 3.98-6 5-1.86 7.22-5.52 17.72-1.79 24.43 3.74 6.71 5.63 13.23 10.79 21.57 6.19-.62 7.47 5.43 11.23 8.43s7.88 5.86 13.08 7.26c5.19 1.41 12.55 4.27 15.62 6.24 3.06 1.97 12.72-.92 17.3 1.83 4.58 2.76 7.61 8.75 15.77 7.24s15.95.35 24 0 17.13-.46 25 0 12.62-1.64 17-5c-.55-6.99-1.3-12.64-1-17-1.7 1.88-4.91-1.35-3-3-7.77 1.01-17.58-4.03-29-1s-14.89-6.35-19.26-12.74c-4.36-6.4-15-5.5-19.74-5.26.26-8.78-4.32-13-9.23-21.77-4.9-8.77-10.28-12.01-17.77-18.23 27.6-6.53 46.52-37 46-67 15.65 1.69 23.3-21.48 11-30 5.74-7.54 11.08-25.59 1.77-33.76-9.31-8.18-6.08-18.26-5.77-32.24-7.93-1.78-17.14 3.82-24 3-2.76.89-2.27 2.84-3-1 .39-7.06-5.86-12.91-3-21-10.18.51-17.67 7.93-27 12-2.85-4.57-2.21-10.33-3.25-13.61-1.03-3.27-.54-7.24-5.75-8.39-.8 4.25-6.43 5.62-10.31 8.69-3.87 3.08-11.72 4.68-15.69 8.31-1.99-3.56-.58-8.02-1-12-10.25 3.87-15.48 4.97-25.25 12.75S192.28 54.52 187 64c-6.25.59-12.03 6.02-15.23 11.77-3.2 5.76-8.19 13.7-4.99 21.01 3.2 7.3 1.89 12.52 1.22 21.22m144-59c.63-.04 2.68-1.95 4-1-.16 3.05.81 7.11-2 9-1.49 5.51-8.04 18.44-16.08 18.92S275.34 82.19 265 84s-23.81-1.68-35 0-20.72.28-26.3-8.7c-5.59-8.97-7.94-13.97-.4-22 7.55-8.02 10.3-11.67 19.7-15.3v13c11.47-4.4 21.2-13.5 33-17-.3 6.99 2.71 13.13 3 20 10.06-1.93 17.96-9.9 28-12-.22 6.97 2.87 13.09 3 20 7.58.01 14.52-2.49 22-3m-126 43c-1.87 4.94-4.39 14.02-9 5-6.56-12.84-1.47-31.94 14-35 1.57 5.92 8.01 9.95 9 16-6.12 1.92-11.64 8.26-14 14m132-21c6.4 5.72 10.82 21.12 4.08 28.08-6.75 6.95-10.65-15.15-16.08-18.08 4.97-1.83 7.62-7.3 12-10m-14 30c-11.56 3.18-26.05-1.48-38 0-7.9 1.96-13.94 7.73-12 17h-9c1.61-7.92-3.68-16.71-12-17-11.95-1.48-26.44 3.18-38 0-.93-.26-2.06.2-3 0 5.65-24.72 37.2-18.12 57-18s52.29-7.01 58 18h-3m-71 9c8.93 4.92-.61 15.64 3 25s-11.32 12.44-19 10-21.23 4.64-25-4c-2.51-5.75-2.47-22.32 0-28 1.03-2.37.6-1.96 3-3 4.89-2.13 13.28-1.17 19-1s14.34-1.57 19 1m71 0c2.37 1.03 1.96.6 3 3 2.35 5.41 2.86 23.81 0 29-3.1 5.63-16.31 2.97-22 3s-18.79 2.52-22-3c-2.2-3.78-.88-13.67-1-18s-2.02-15.17 4-15c10-.9 29.33-2.77 38 1m-121 0v17c-11.24.88-12.02-19.08 0-17m133 17v-17c12.01-2.09 11.25 17.88 0 17m-52 26c6.17 1.11 16.13-.95 22 0s18.52-2.3 19 2c1.28 11.54-11.48 22.09-19.08 29.92-7.61 7.83-24.75 13.29-35.92 13.08s-28.97-4.37-36.7-12.3c-7.73-7.94-20.56-19.38-19.3-30.7.47-4.27 11.99-1.06 18-2s16.65 1.14 23 0c11.39-3.6 10.61-15.71 10-26h9c-.36 9.5-1.69 23.36 10 26m-36 75c-.62-3.01-.85-4.99 0-8 3.21-11.35 18.06-17.41 27.08-9.08S265.03 240.69 270 251c-6.22 2.77-11.72 3.3-17.69 7.31-5.98 4-12.16 3.83-15.61-3.01-3.45-6.83-8.79-9.28-8.7-17.3m60 11c-14.31 1.83-14.51-17.8-20-27 10.06 4.8 19.1 15.73 20 27m27 21c-8.59.6-24.39-3.51-25 9-13.24.05-29.46-1.09-38-11 18.07-10.57 49.54-17.95 63 2m-16 18c-1.72-1.2-1.68-7.82 0-9 4.58-3.2 14.12 1.41 20 0s14.58.74 21 0 14.44.55 21 0v9z"/><path fill="#CB595A" fill-opacity=".6" stroke="None" d="M136 39c-2.79-3.14-5.69-6.28-9-9 2.92 2.81 6.02 6.13 9 9Z"/><path fill="#AE7646" stroke="None" d="M314 67c.69-2.54 1.37-5.16 1-8h-3c-7.48.51-14.42 3.01-22 3-.13-6.91-3.22-13.03-3-20-10.04 2.1-17.94 10.07-28 12-.29-6.87-3.3-13.01-3-20-11.8 3.5-21.53 12.6-33 17V38c-9.4 3.63-12.15 7.28-19.7 15.3-7.54 8.03-5.19 13.03.4 22 5.58 8.98 15.11 10.38 26.3 8.7s24.66 1.81 35 0 24.88 2.4 32.92 1.92S312.51 72.51 314 67Z"/><path fill-opacity=".96" stroke="None" d="M380 277c-.07 4.02-1.09 9.82-1 13 1.64 11.06 18.26 6.83 27 7s23.64 1.36 30.75-1.25c7.11-2.6 2.36-16.94 3.27-23.73.92-6.79-2.49-17.07-4.1-21.89s-2.69-9.67-5.16-16.88c-2.48-7.21-2.75-11.59-5-17.86-2.26-6.27-3.24-10.72-5.05-17.09-1.81-6.38-3.73-12.06-6.71-18.3 2.37-10.08 5.97-15.43 7-25 9.31-1.39 20.38 2.06 19-10s.61-23.3 0-35 .25-23.63 0-35 0-21.62 0-32c-7.85-6.43-19.86-3.33-32-4s-28.14.79-40 0-25.85-1.36-25 12-.9 27.35 0 40 .41 25.55 0 37-2.79 27.05 10 26 26.16.79 39 0c-3.78 6.57-3.7 17.04-5.74 21.81-2.05 4.78-5.9 14.18-7.19 20.11-1.29 5.94-4.09 12.49-5.67 18.33s-4.24 13.29-5.05 18.05-4.78 9.64-2.65 17c2.12 7.37 13.34 9 20.07 7.47s8.61-11.61 9.83-15.03c1.22-3.41 4.79-12.99 4.4-18.74 5.41-2.81 13.06-2.77 19-1 1.91 15.87 7.92 32.33 13 47-15.76 2.54-37.37-.36-50 2-2.67 1.99-1.96 3.67-2 6m8-211c-1.84-1.29-1-5.85-1-8-2.65.24-5.35-.18-8 0 4.84 11.96-14.83 11.98-10 0h-8c0 2.24.9 6.67-1 8-1.79 1.25-5.99-.94-8 0V48c8.34-.2 15.54.27 24 0s16.27.49 25 0 14.56 1.09 24 0 7.11 10.6 7 18h-44m8 77c-3.24 6.14-13.21 2.09-20 3s-16.91-.68-24 0V75h44c4.15 2.9.08 16.39 1 22s.22 16.67 0 23 1.83 17.64-1 23m36-68v71h-10c-1.28-7.64-10.14-10.05-17-9V75h27m-20 71c5.74 2.88-2.58 15.58-2.98 21.02-.39 5.45-5.63 14.9-6.8 21.2s-5.24 16.03-6.55 22.45c-1.31 6.43-5.89 15.34-6.65 21.35s-5.7 19.93-12.69 15.65 2.72-14.41 2.66-20.68c-.05-6.27 5.95-14.39 6.94-21.06.98-6.67 4.98-15.74 6.85-22.15 1.86-6.42 4.25-16.09 6.2-21.8 1.94-5.72 3.76-20.63 13.02-15.98m-1 49c.41 5.39-.19 6.11 2.91 11.1 3.09 4.99-4.12 10.32-9.91 5.9 3.2-4.56 1.85-13.84 7-17m-23 93c-1.72-1.2-1.68-7.82 0-9 4.92-3.45 15.92 1.8 22 0s15.61 1.35 22 0v9z"/><path fill="#ADD37C" stroke="None" d="M360 66c.54-2.89-1.17-6.92 1-9 2.98-.27 6.02.2 9 0v9c11.92 4.36 4.34-13.73 17-9 2.13 2.05.46 6.19 1 9h44c.11-7.4 2.44-19.09-7-18s-15.27-.49-24 0-16.54-.27-25 0-15.66-.2-24 0v18c2.01-.94 6.21 1.25 8 0Z"/><path fill="#000205" fill-opacity=".67" stroke="None" d="M300 52c-.98-.12-2.3-.16-3-1 .73 3.84.24 1.89 3 1Z"/><path fill="#7A915F" stroke="None" d="M360 66c1.9-1.33 1-5.76 1-8v-1c-2.17 2.08-.46 6.11-1 9Z"/><path fill="#3C4D24" stroke="None" d="M361 58h8c-4.83 11.98 14.84 11.96 10 0 2.65-.18 5.35.24 8 0v-1c-12.66-4.73-5.08 13.36-17 9v-9c-2.98.2-6.02-.27-9 0z"/><path fill="#65794A" stroke="None" d="M387 58c0 2.15-.84 6.71 1 8-.54-2.81 1.13-6.95-1-9z"/><path fill="none" stroke="None" d="M92 153c-.14 2.66.14 5.34 0 8-1.12 20.57-1.82 41.29 3 61 1.1 3.07 2.11 5.73 3 9 3.33 9.12 6.83 20.18 16 25 18.38-33.39 28.95-75.42 26-114-.31-1.92-.95-4.46-1-7-.18-8.94-.87-16.62-3-25s-2.88-14.16-5.07-22.93c-2.2-8.77-4.88-9.62-6.95-20.05-2.08-10.42-6.41-8.12-9.21.75s-6.44 11.06-8.84 19.16c-2.41 8.1-3.41 11.9-5.61 19.39s-2.04 15.86-5 23c-2.96 7.15-2.9 16.01-3.32 23.68Z"/><path fill="#5F4229" stroke="None" d="M312 59h3c.37 2.84-.31 5.46-1 8 2.81-1.89 1.84-5.95 2-9-1.32-.95-3.37.96-4 1Z"/><path fill="#AA7547" stroke="None" d="M177 107c1.35 1.96 3.09 3.79 6 3-.35-2.97 1.03-6.11 3-8 2.36-5.74 7.88-12.08 14-14-.99-6.05-7.43-10.08-9-16-15.47 3.06-20.56 22.16-14 35Z"/><path fill="#DFE2E6" stroke="None" d="M396 143c3.51-10.12-1.83-23.3 0-34s-1.37-23.14 0-34h-44v71c7.09-.68 17.21.91 24 0s16.76 3.14 20-3m-9-50c-2.91 2.04-9.41-1.06-13 0s-9.22-.8-13 0v-9h26c1.72 1.2 1.68 7.82 0 9m0 17c-1.64 2.35-10.14.99-13 1s-11.37 1.33-13-1c-1.25-1.79.94-5.99 0-8h26v8m0 18c-2.91 2.04-9.41-1.06-13 0s-9.22-.8-13 0v-8c3.31-4.72 13.25 2.01 18-1s14.17 4.68 8 9Z"/><path fill="#565759" stroke="None" d="M396 143c2.83-5.36.78-16.67 1-23s.92-17.39 0-23 3.15-19.1-1-22c-1.37 10.86 1.83 23.3 0 34s3.51 23.88 0 34Z"/><path fill="#DEE1E5" stroke="None" d="M432 75h-27v62c6.86-1.05 15.72 1.36 17 9h10V75m-9 9v9h-9v-9h9m0 18c.42.6.42 7.4 0 8-1.2 1.72-7.82 1.68-9 0-1.04-1.49.02-7.02 1-8 1.42-1.42 6.7-1.85 8 0m0 18c1.25 1.79-.94 5.99 0 8h-9c.56-2.52-1.19-6.3 1-8 1.42-1.42 6.7-1.85 8 0Z"/><path fill="#A77447" stroke="None" d="M318 81c-4.38 2.7-7.03 8.17-12 10 5.43 2.93 9.33 25.03 16.08 18.08 6.74-6.96 2.32-22.36-4.08-28.08Z"/><path fill="#020203" stroke="None" d="M387 93v-9h-26v9c3.78-.8 9.41 1.06 13 0s10.09 2.04 13 0Z"/><path fill="#838487" stroke="None" d="M387 93c1.68-1.18 1.72-7.8 0-9z"/><path fill="#0C0C0E" stroke="None" d="M423 84h-9v9h9z"/><path fill="#EBCDB3" stroke="None" d="M195 111c11.18 1.91 26.42-2.87 38 0 8.32.29 13.61 9.08 12 17h9c-1.94-9.27 4.1-15.04 12-17 11.64-2.88 26.9 1.9 38 0h3c-5.71-25.01-38.2-17.88-58-18s-51.35-6.72-57 18c.94.2 2.07-.26 3 0Z"/><path fill="#818286" stroke="None" d="M415 102c1.79-1.25 5.99.94 8 0-1.3-1.85-6.58-1.42-8 0Z"/><path fill="#523922" stroke="None" d="M177 107c4.61 9.02 7.13-.06 9-5-1.97 1.89-3.35 5.03-3 8-2.91.79-4.65-1.04-6-3Z"/><path fill="#000001" stroke="None" d="M361 110h26v-8h-26c.94 2.01-1.25 6.21 0 8Z"/><path fill="#020507" stroke="None" d="M414 110h9c.42-.6.42-7.4 0-8-2.01.94-6.21-1.25-8 0-.98.98-2.04 6.51-1 8Z"/><path fill="#88796C" stroke="None" d="M195 111c11.56 3.18 26.05-1.48 38 0-11.58-2.87-26.82 1.91-38 0Z"/><path fill="#877A6C" stroke="None" d="M266 111c11.95-1.48 26.44 3.18 38 0-11.1 1.9-26.36-2.88-38 0Z"/><path fill="#606164" stroke="None" d="M387 110h-26c1.63 2.33 10.14 1.01 13 1s11.36 1.35 13-1Z"/><path fill="#65666A" stroke="None" d="M423 110h-9c1.18 1.68 7.8 1.72 9 0Z"/><path fill="#3B6F76" stroke="None" d="M195 120c5.24-1.43 13.57-.15 19 0s13.97-1.83 19 0c-4.66-2.57-13.28-.83-19-1s-14.11-1.13-19 1Z"/><path fill="#012835" stroke="None" d="M263 152c-1.63-4.2.39-12.6 0-17s-1.72-13.07 3-15c.17-.07 0-1 0-1-6.02-.17-4.12 10.67-4 15s-1.2 14.22 1 18Z"/><path fill="#3A6F76" stroke="None" d="M266 120c11.84 1.07 26.59-3.12 38 0-8.67-3.77-28-1.9-38-1 0 0 .17.93 0 1Z"/><path fill="#717276" stroke="None" d="M361 120h26v8c6.17-4.32-3.25-12.01-8-9s-14.69-3.72-18 1Z"/><path fill="#6F7074" stroke="None" d="M415 120c1.79-1.25 5.99.94 8 0-1.3-1.85-6.58-1.42-8 0Z"/><path fill="#DCC1AC" stroke="None" d="M183 120c-12.02-2.08-11.24 17.88 0 17z"/><path fill="#6BD0EC" stroke="None" d="M192 123c-1.09 3.98 0 9.85 0 14s-1.09 10.02 0 14c3.77 8.64 17.32 1.56 25 4s22.61-.64 19-10 5.93-20.08-3-25c-5.03-1.83-13.57.15-19 0s-13.76-1.43-19 0c-2.4 1.04-1.97.63-3 3m31 20c-7.17-14.69-17.56 4.87-26-3 2.24-9.33 13.07-12.85 21.22-11.22 8.16 1.63 18.74 13.09 4.78 14.22Z"/><path fill="#6CD0EB" stroke="None" d="M263 152c3.21 5.52 16.31 3.03 22 3s18.9 2.63 22-3c1.38-3.79-.01-9.83 0-14s1.11-10.93 0-15c-1.04-2.4-.63-1.97-3-3-11.41-3.12-26.16 1.07-38 0-4.72 1.93-3.39 10.6-3 15s-1.63 12.8 0 17m31-9c-2.66-8.02-14.66-7.41-18 0-2.95-.13-5.02-2.88-8-3 2.5-9.46 12.79-12.45 21.07-11.07 8.29 1.37 19.27 12.85 4.93 14.07Z"/><path fill="#DBC2AB" stroke="None" d="M316 137c11.25.88 12.01-19.09 0-17z"/><path stroke="None" d="M387 128v-8h-26v8c3.78-.8 9.41 1.06 13 0s10.09 2.04 13 0Z"/><path fill="#010207" stroke="None" d="M423 120c-2.01.94-6.21-1.25-8 0-2.19 1.7-.44 5.48-1 8h9c-.94-2.01 1.25-6.21 0-8Z"/><path fill="#294F5A" stroke="None" d="M192 151c-1.09-3.98 0-9.85 0-14s-1.09-10.02 0-14c-2.47 5.68-2.51 22.25 0 28Z"/><path fill="#265B6C" stroke="None" d="M307 152c2.86-5.19 2.35-23.59 0-29 1.11 4.07.01 10.83 0 15s1.38 10.21 0 14Z"/><path fill="#030A0F" stroke="None" d="M223 143c13.96-1.13 3.38-12.59-4.78-14.22-8.15-1.63-18.98 1.89-21.22 11.22 8.44 7.87 18.83-11.69 26 3Z"/><path fill="#01090D" stroke="None" d="M294 143c14.34-1.22 3.36-12.7-4.93-14.07-8.28-1.38-18.57 1.61-21.07 11.07 2.98.12 5.05 2.87 8 3 3.34-7.41 15.34-8.02 18 0Z"/><path fill="#743639" fill-opacity=".07" stroke="None" d="M140 142c-.17-2.27-.84-5.34-1-7 .05 2.54.69 5.08 1 7Z"/><path fill="#E9CBB1" stroke="None" d="M235 163c-4.97 1.57-14.97-.06-20 1s-18.44-2.97-21 1c-1.26 11.32 11.57 22.76 19.3 30.7 7.73 7.93 25.53 12.09 36.7 12.3s28.31-5.25 35.92-13.08c7.6-7.83 20.36-18.38 19.08-29.92-2.54-3.94-14.82-.06-20-1s-15.93.6-21-1c-11.69-2.64-10.36-16.5-10-26h-9c.61 10.29 1.39 22.4-10 26m41 17c-8.39 13.71-26.01 9.45-40 10-3.69-12.89 13.82-6.76 21-8s12.96-10.47 19-2Z"/><path fill="#773234" fill-opacity=".3" stroke="None" d="M172 189c1.65-12.1 3.69-31.73 0-44-.16-.55-.95-1.79-1-2 1.71 14.92 1 30.69 1 46Z"/><path fill="#C4C8D0" stroke="None" d="M412 146c-9.26-4.65-11.08 10.26-13.02 15.98-1.95 5.71-4.34 15.38-6.2 21.8-1.87 6.41-5.87 15.48-6.85 22.15-.99 6.67-6.99 14.79-6.94 21.06.06 6.27-9.65 16.4-2.66 20.68s11.93-9.64 12.69-15.65 5.34-14.92 6.65-21.35c1.31-6.42 5.38-16.15 6.55-22.45s6.41-15.75 6.8-21.2c.4-5.44 8.72-18.14 2.98-21.02Z"/><path fill="#82282C" fill-opacity=".2" stroke="None" d="M92 161c.14-2.66-.14-5.34 0-8-.42 2.56-.11 5.54 0 8Z"/><path fill="#681B1C" fill-opacity=".1" stroke="None" d="M52 186c0-9.21-1.08-17.86 0-27-2.08 8.94-1.27 17.68 0 27Z"/><path fill="#5A4C40" stroke="None" d="M194 165c2.56-3.97 15.97.06 21-1s15.03.57 20-1c-6.35 1.14-16.99-.94-23 0s-17.53-2.27-18 2Z"/><path fill="#5B4D41" stroke="None" d="M305 165c-.48-4.3-13.13-1.05-19-2s-15.83 1.11-22 0c5.07 1.6 15.82.06 21 1s17.46-2.94 20 1Z"/><path fill="#040201" stroke="None" d="M276 180c-6.04-8.47-11.82.76-19 2s-24.69-4.89-21 8c13.99-.55 31.61 3.71 40-10Z"/><path fill="#D15153" fill-opacity=".42" stroke="None" d="M52 198c.27.25 1 0 1 0 0-2.84-.7-5.8-1-8 .01 1.91-.87 7.19 0 8Z"/><path fill="#F7F7F7" fill-opacity=".92" stroke="None" d="M621 193c-2.04.21-5.58 1.43-8 2-10.38 1.95-10.66 12.94-10.79 21.77S599.03 234.31 599 244s-1.1 22.06 1.23 31.77 16.71 5.57 21.02-.52S636.32 257.79 623 257c-.52 4.93-5.6 8.11-10 9-2.32-7.91-.65-16.98 0-25 4.05-1.36 23.33-.67 21.92-6.92S620.37 223.85 615 225c-.26-8.21 1.42-17.73 7.93-20.07 6.51-2.35 22.1-.63 19.82-7.68-2.28-7.06-17.13-4.29-21.75-4.25Z"/><path fill="#CF575B" fill-opacity=".62" stroke="None" d="M171 201c-.67-2.94 1.09-5.18 1-8-.55 2.85-1 5.21-1 8Z"/><path fill="#76202A" fill-opacity=".05" stroke="None" d="M171 201c.61-2.85 1.25-5.35 1-8 .09 2.82-1.67 5.06-1 8Z"/><path fill-opacity=".85" stroke="None" d="M343 196c-11.11-9.16-14.76 11.91-17.94 18.92-3.17 7.01-6.75 15.2-7.06 24.08 11.56 3.18 10.75-9.49 15.07-16.93 4.33-7.43 5.4-17.82 9.93-26.07Z"/><path fill="#717171" fill-opacity=".08" stroke="None" d="M613 195c2.42-.57 5.96-1.79 8-2-3.7.03-5.12.92-8 2Z"/><path fill-opacity=".12" stroke="None" d="M411 195c-5.15 3.16-3.8 12.44-7 17 5.79 4.42 13-.91 9.91-5.9-3.1-4.99-2.5-5.71-2.91-11.1Z"/><path fill="#F8F8F8" fill-opacity=".93" stroke="None" d="M579 200c-2.86-.32-4.98.92-7 0-5.79-2.64-12.52-8.26-16.08.92-3.55 9.19-1.59 13.71-1.92 22.08s.44 18.05 0 26-.98 12.72-1 20c-.01 7.28 8.26 9.04 13.78 12.22s13.4-2.49 16.3-8.14 6.83-12.18 7.93-19.07c1.1-6.9 3.79-13.5 3.66-20.34s2.13-15.29-1.75-21.59c-3.87-6.31-6.99-10.25-13.92-12.08m-7 62c.34-.54.81 2.69-1 2-1.06-1.55-1.91-4.89 0-6-.08-1.66 0-3.34 0-5v-7c0-3.1.77-6.64 1-9 0-9.22.18-18.01 1-27 9.67.35 12.59 9.02 14 17-8.72 8.14-7.57 25.18-15 35Z"/><path fill="#F6F6F6" fill-opacity=".92" stroke="None" d="M545 208c.66-7.81-9.69-14.18-16.75-10.75-7.07 3.42-9.45 10.13-13.48 16.52s-6.87 14.1-7.99 22.01c-1.13 7.91-2.61 19.2-.77 27.21s3.25 13.4 10.92 18.08 15.33-2.88 18.77-9.37c3.43-6.5 7.68-12.63 9.97-20.03s2.05-18.26 2.26-25.6c.2-7.33-8.48-14.19-2.93-18.07m-9 22c.86-.35 2.11.28 3 0-.26 2.39-1.36 4.93-3 2-1.4 5.95-5.44 18.24-8.25 22.75-2.82 4.5-8.07 22.92-8.75 6.25s7.95-33.26 17-46c1 4.79 1.77 10.24 0 15m-3 24c-.3 2.04-1.29 5.27-4 5 .3-2.04 1.29-5.27 4-5Z"/><path fill="#872C2A" fill-opacity=".31" stroke="None" d="M53 207v-9s-.73.25-1 0c.03 3.08.77 6.59 1 9Z"/><path fill="#F3F3F3" fill-opacity=".91" stroke="None" d="M475 281c3.71.85 7.09-.14 10-2 6.38-5.5 7.77-7.81 13.08-14.92s2.15-12.88-4.83-7.83c-6.99 5.04-6.67 10.63-14.25 12.75 2.91.31 3.18 1.76-1 2-.19-1.56-1.98-4.83 1-3-1.11-3.48-1.41-6.36-2-10-.47-2.92-.62-5.09 0-8 1.56-7.26 2.77-16.45 6.67-23.33 3.9-6.87 3.17-14.09 12.11-17.89 8.94-3.81 1.15-12.5-6.75-9.75-7.91 2.74-11.41 8.07-15.11 14.89-3.69 6.83-5.48 13.84-7.94 21.06-2.47 7.21-3 20.12-1.3 27.34 1.69 7.23 2.88 15.87 10.32 18.68Z"/><path fill="#F6F6F6" fill-opacity=".93" stroke="None" d="M695 219c-.11 2.28-.16 4.73 0 7 .85 12.19 7.91 24.35 12 36 1.04 2.95 2.45 2.25-1 5-4.05 3.23-18.73 9.73-8.22 13.22s12.94-2.87 21.54-6.9.28-12.02-2.55-19.09c-2.83-7.08-5.36-16.51-5.44-24.56s1.91-15.78 7.92-22.42-6.89-11.34-14.02-8.02S695.38 211.34 695 219Z"/><path fill="#F6F6F6" fill-opacity=".92" stroke="None" d="M758 205c-2.5-7.41-18.48-10.01-23.22-2.22-4.75 7.79-5.34 19.44-3.11 28.55 2.23 9.1 3.57 17.25 9.02 25.98 5.46 8.72-5.2 13.13-11.69 17.69 4.92 10.1 13.96 5.7 23.75.75 9.8-4.95 3.09-13.58-.76-20.74-3.84-7.16-5.28-20.05-5.98-28S752.05 209.88 758 205Z"/><path fill="#757575" fill-opacity=".3" stroke="None" d="M572 200c2.02.92 4.14-.32 7 0-2.05-.54-4.56-1.53-7 0Z"/><path fill-opacity=".87" stroke="None" d="M310 201c-8.32 1.29-9.13 13.29-17 15 2.49 6.75 11.09 14.88 17 17 2.42-1.15 3.98-3.65 5-6-2.97-2.97-12.6-8.51-6.75-12.75s6.86-8.48 1.75-13.25Z"/><path fill-opacity=".86" stroke="None" d="M367 216c-6.26-5.01-11.25-12.05-18-15-8.91 4.06-1.21 11.52 4 15 .17 5.68-9.98 7.39-7.25 13.25s8.79 2.28 11.5-2 8.56-6.26 9.75-11.25Z"/><path fill="#F5F5F5" fill-opacity=".91" stroke="None" d="M668 207c-2.56-.17-7.24-1.05-9-1-11.41-.73-14.77 4.3-15 15s-.63 20.39-1.22 30.78-.3 19.38-.78 29.22c11 5.35 14.12-7.93 14-16 10.88 3.32 26.72 27.68 33 8-9.65 0-10.69-7.66-18.92-11.08-8.24-3.41-5.31-12.03-.85-18.69s8.15-12.13 9.79-20.21c1.65-8.07-1.65-15.38-11.02-16.02m4 13c-3.79 8.81-11.5 16.03-15 25-2.01-7.89-1.51-18.12 1-26 4.81-.17 9.49-.06 14 1Z"/><path fill="#7D7D7D" fill-opacity=".32" stroke="None" d="M668 207c-2.51-.45-5.74-1.4-9-1 1.76-.05 6.44.83 9 1Z"/><path fill-opacity=".01" stroke="None" d="M572 237c0 3 .06 6 0 9-.05 2.44-.81 5.27-1 7 0 1.66-.08 3.34 0 5 .08 1.63.81 2.98 1 4 7.43-9.82 6.28-26.86 15-35-1.41-7.98-4.33-16.65-14-17-.82 8.99-1 17.78-1 27Zm-36-5c.11-.47-.11-1.53 0-2 1.77-4.76 1-10.21 0-15-9.05 12.74-17.68 29.33-17 46s5.93-1.75 8.75-6.25c2.81-4.51 6.85-16.8 8.25-22.75Z"/><path fill="#F5D270" stroke="None" d="M228 230c-.37 2.4-.22 5.58 0 8-.09 8.02 5.25 10.47 8.7 17.3 3.45 6.84 9.63 7.01 15.61 3.01 5.97-4.01 11.47-4.54 17.69-7.31-4.97-10.31-5.9-21.75-14.92-30.08S231.21 218.65 228 230Z"/><path fill="none" stroke="None" d="M672 220c-4.51-1.06-9.19-1.17-14-1-2.51 7.88-3.01 18.11-1 26 3.5-8.97 11.21-16.19 15-25Z"/><path fill="#5E5E5E" fill-opacity=".15" stroke="None" d="M695 226c-.16-2.27-.11-4.72 0-7-.42 2.56-.54 4.34 0 7Z"/><path fill="#BC5254" fill-opacity=".5" stroke="None" d="M98 231c-.89-3.27-1.9-5.93-3-9 .48 1.96 1.86 6.26 3 9Z"/><path fill="#E7C971" stroke="None" d="M288 249c-.9-11.27-9.94-22.2-20-27 5.49 9.2 5.69 28.83 20 27Z"/><path fill="#897744" stroke="None" d="M228 238c-.22-2.42-.37-5.6 0-8-.85 3.01-.62 4.99 0 8Z"/><path fill="#AAA" fill-opacity=".65" stroke="None" d="M536 232c1.64 2.93 2.74.39 3-2-.89.28-2.14-.35-3 0-.11.47.11 1.53 0 2Z"/><path fill="#727272" fill-opacity=".29" stroke="None" d="M571 246c.01-.07 1 0 1 0 .06-3 0-6 0-9-.23 2.36-1 5.9-1 9Z"/><path fill="#666" fill-opacity=".08" stroke="None" d="M571 253c.19-1.73.95-4.56 1-7 0 0-.99-.07-1 0z"/><path fill="#BFBFBF" fill-opacity=".44" stroke="None" d="M477 258c-.03-1.82-.07-5.44 0-8-.62 2.91-.47 5.08 0 8Z"/><path fill="#A9A9A8" fill-opacity=".65" stroke="None" d="M533 254c-2.71-.27-3.7 2.96-4 5 2.71.27 3.7-2.96 4-5Z"/><path fill="#E8CAB1" stroke="None" d="M315 270c-13.46-19.95-44.93-12.57-63-2 8.54 9.91 24.76 11.05 38 11 .61-12.51 16.41-8.4 25-9Z"/><path fill="#8F8F8F" fill-opacity=".24" stroke="None" d="M572 262c-.19-1.02-.92-2.37-1-4-1.91 1.11-1.06 4.45 0 6 1.81.69 1.34-2.54 1-2Z"/><path fill="#969696" fill-opacity=".25" stroke="None" d="M706 267c3.45-2.75 2.04-2.05 1-5 .09 1.85.05 3.47-1 5Z"/><path fill="#E9E9E9" fill-opacity=".65" stroke="None" d="M479 269s.15-.55 0-1c-2.98-1.83-1.19 1.44-1 3 4.18-.24 3.91-1.69 1-2Z"/><path fill="#010101" fill-opacity=".65" stroke="None" d="M379 290c-.09-3.18.93-8.98 1-13-1.12 3.79-2.3 7.73-1 13Z"/><path fill="#5A5D62" stroke="None" d="M299 288v-9c-1.68 1.18-1.72 7.8 0 9Z"/><path fill="#A3AAB4" stroke="None" d="M299 288h62v-9c-6.56.55-14.58-.74-21 0s-15.12-1.41-21 0-15.42-3.2-20 0z"/><path fill="#5B5E63" stroke="None" d="M388 288v-9c-1.68 1.18-1.72 7.8 0 9Z"/><path fill="#A3AAB4" stroke="None" d="M388 288h44v-9c-6.39 1.35-15.92-1.8-22 0s-17.08-3.45-22 0z"/><path fill="#777877" fill-opacity=".24" stroke="None" d="M475 281c4.52 1.71 6.44 1.07 10-2-2.91 1.86-6.29 2.85-10 2Z"/><path fill="#6D1F1F" fill-opacity=".17" stroke="None" d="M116 290c-2.49-.24-7.17-1.14-10-2 3.38 1.6 5.51 2 10 2Z"/></svg>