<svg xmlns="http://www.w3.org/2000/svg" width="500" height="500">
    <path fill="none" d="M0 500h500V0H0zm100-372c4.41 1.25 4.46 1.65 7 5 3.72 4.11 6.79 7.16 9 13 .42 1.12.7 1.81 1 3 1.04 2.19 2.69 5.88 4 8 .71.81 1.03 1.92 1 3 1.23.42 5.48-3.45 4-1 1.3-.8 2.49-2.25 4-5 2.5-4.53 5.7-8.93 10-12 4.13-2.95 8.95-5.41 14-6 .68 2.3-2.75 5.36 0 7 .8-2.17 3.26-.76 4-2 .62-.48 5.83-3.35 7-4 1.99-1.55 3.52-4.9 7-4v6c.43 1.64 2.7 3.69 2 6 1.46-.55 2.18-2.4 4-2 1.61-.12.57.77 2 0 .1-.08-.58-1.82 2-2 1.43-.1.76.45 2 0-.31.24 3.07-5.09 5-2 .22.36-.02 1.5 0 2 .88 1.85 1.25 3.92 2 6 .52 1.09-.4 2.86 0 4h7c1.54-.25 3.78-2.89 6-2 3.13 1 1.69 3.97 2 7 .22 2.17 1.86 5.4 0 8 2.51 1.52 4.33 4.28 5 7 .05.74-.04 1.58 0 2 1.55 2.82 1.55 5.24 0 10-.1 2.17-.29 5.03 0 8 .99 3.86 2.33 4.97.23 9.23s-4.44 3.22-7.23 5.77c-2.24 2.47-1.57 3.84-2 8-.25 2.46-1.3 4.06-2 6-.5 1.39-1.01 3.97-2 6-.96 1.97-2.56 4.62-4 6-.26.25-.8.68-1 1-2.31 3.74-8.68 9.24-13 10-.96.17-3.28-2.13-2 0 3.04 5.05 8.6 5.89 11 12 .17.43 0 1 0 1 2.13 1.63 1.51 3.58 2 6 .93 1.3 5.56 3.24 5 3 5.92 1.24 9.81 4.84 11 11 7.92 1.85 22.27-4.06 25 4 .53 2.4 0 5.54 0 8v1c-2.22 5.14-9.98 2.65-15 3s-13.65 0-19 0c-.5 0-1.5-.03-2 0-3.78.26-8.25-.13-10-4-.19-.41 0-1 0-1-2.58.05-5.13-.73-7-1-6.5-.39-11.27-2.61-16-5-1.8-.91-9.32-7.1-5-5-1.61-1.14-1.49-2.2-4-1 1.35-5.25-8.38-7.27-7-14-1.25-3.26-4.03-7.92 0-11 .16-.44 0-1 0-1 1.04-2.61 2.35-5.81 1-7-.94-.53-2.39-.4-4-1-3.98-1.49-8.8-6.38-11-10-.42-.69-.68-1.28-1-2-1.11-1.4-1.44-1.07-2-3-.49-.07-1 0-1 0 0 12.71-3.22 29.84-11 40-2.3 3-8.22 10.87-12 12-2.72.82-8.16.35-11 0-2.93-.36-4.83-1.26-7-3-.47-.11-1 0-1 0-2.62-.58-4.01-1.79-5-4-.36-.22-1 0-1 0-2.67-1.3-5.69-4.29-7-6-4.09-5.34-7.56-13.48-9-20-.93-2.52-2.16-5.43-3-9-.57-2.39-.86-4.39-1-7-.21-3.79.24-9.3 0-12-.67-3.56-.53-5.49 0-9 .07-5.31 1.07-11.61 2-17 .17-2.3 0-4.69 0-7 0-4.34.83-6.58 2-10 2.46-11.65 9.93-30.49 22-34 8.43-2.45 8.47-2.25 2-8-.81-.72-1.93-1.03-3-1-.16-2.35-.55-5.92 3-5 .52-.35 3.16-2.37 4-2 .43-.38 6.57 3.82 7 4m172 19c4.46 6.82.26 20.26 1 29s.81 21.99 0 31c-.34 2.63-2.53 3.63-5 4-2.07.31-6.06-1.07-7 0 2.66 1.98-.76 5.37-1 6-.54 2.53-2.13 5.48-2 8 .13 2.55 3.09 8.95 4 12 2.7 9.02 5.09 17.78 7 27 .48 1.39 1.82 2.1 2 4 .1.99-.14 2.02 0 3 1.8 5.19 2.56 10.77 2 17-1.99 5.26-10.3 4.5-15 4s-14.26 1.77-18-1h-1c-4.94-1.29-4.4-13.4 0-15 8.24-3 19.49 2.25 28 0-3.8-8.54-5.92-17.78-8-27h-9c-5.36 4.49 2.51 16.28-8.25 19.75-10.76 3.48-14.93-7.33-10.78-15.78 4.15-8.44 4.25-15.3 7.03-23.97 1.02-3.18 1.25-8.89 4-11 .02-.5 0-1 0-1-.09-2.29.5-3.88 1-6-4.1-2.72-15.98.78-21 0-3.25-.51-5.48-1.09-6-5-.57-6.25-.05-14.92 0-21s-.69-15.71 0-21-3.02-17.43 3-19c.47-.12 1 0 1 0 7.85 0 16.2-.84 24 0s17.48-2.11 25 0c1.32.37 2.21.8 3 2m-57 86c3.6 3.02-.28 7.61-2 12-.9 2.28-2.17 4.96-3 7-.59 2.12-.87 8.91-5.03 7.97s-3.45-3.89-1.97-6.97c.94-2.67 1.99-5.57 3-8 .62-2.03 1.29-3.99 2-6 .95-2.71 2.39-5.19 3-8 1.41.15 3.34.65 4 2m170 2c5.45 2.75 1.22 5.97-3 6-1 .01-2 0-3 0-2.03.43-4.78 2.06-7 3-.56 1.37 1.06 5.93 0 8 1.56-.41 2.69.46 4 1 1.93 1.18 9.52 4.24 6.67 7.67-2.86 3.43-9.35-.01-12.67 2.33-.22.37 0 1.5 0 2v11c1.25-.3 1.71-1.83 3-2 .98-.82 2.46-1.28 2-3 3.38-1.19 6.58 2.09 4 5-.96 3.64-6.46 10.56-11 10-3.43.24-4.84-1.34-6-4-2.6-5.95-.13-14.26-1-21-1.26.08-.56 2.06-2 2-1.36 7.58-3.6 23.83-14 23-3.58-.28-9.24-3.08-10-7-.09-.48 0-1 0-1 0-3.97.85-8.81 1-12-.27-4.12.27-8.11 0-13-.24-4.31-2.06-9.23 1-13v-1c.64-5.43 8.17-2.13 11-1 .43.17 1 0 1 0 2.66.2 4.21 1.28 6 3 .26.25.75.74 1 1 3.32 1.89 3.61 5.52 4 9 .26 2.36.55 6.13 0 9 .35-.56 1.71-1.45 2-2v-1c.4-2.42.83-4.46 1-7 .23-3.33.11-6.27 1-9 1.28-3.93 2.75-5.43 7-6 3.95-.53 10.55-1.74 14 0m-188 11c1.09 1.4 3.54 3.32 4 5 .51 1.85-1.91 2.84-3 5-1.27-.04-5.54-2.15-4-3-1.98-1.86-5.41-4.26-6-7-.1-.48 0-1 0-1 1.41-2.89 6.17-7.62 9-9 .4-.2 1 0 1 0 1.84.9 4.01 2.87 4 5-1.93 1.26-3.91 3-5 5m26-9c6.76 2.5 9.2 8.72 4 13-1.76 1.45-3.37 4.4-5 5-5.71 2.1-5.9-7.85 0-9-.93-2.76-7.16-5.07-4-8 1.52-2.02 3.05-1.72 5-1m103 0c.5.04 1 0 1 0 2.53.91 6.94 6.91 4 6-.46-.14-1 0-1 0 .3 2.02 1.34 4.05 2 6 .5 1.49 1.13 2.25 1 4-.04.5 0 1 0 1 2.36 3.18.62 9.02-1 12v1c.25 3.31-1.16 5.7-3 8-.01.5 0 1 0 1-1.28 3.56-5.02 9.33-9 10-5.28.89-7.7-1.96-9-6-.76-1.54-3.57-4.47-2-8-.34.53-2.41 1.35-3 1-.01 1.17-.48 1.99-1 3-1.61 3.09-4.05 6.09-7 8-6.89 4.46-10.38-.7-12-8-.45-2.04-1.17-4.32-1-7 .03-.5.03-1.5 0-2-.25-4.05 1.07-5.93 2-9 .57-3.16.52-4.22 2-7 1.68-4.23 10.27-20.77 17-12 .24.31-.18 1.58 0 2 1.55 3.58-1.92 2.19-4 4-1.53 1.34-3.23 5.43-4 7-1.63 3.32-3.01 9.2-4.31 12.69-1.29 3.5-1.2 12.28 1.31 12.31 1.74-.35 8.9-12.29 11-8 .29.6 0 2.32 0 3 1.88-1.44 2.75-7.22 3-9 .59-4.19.72-6.7 2-10 .82-3.47 1.95-6.93 4-10 2.12-3.19 7.45-8.85 11-6m101 1c3.92.76 2.57 1.09 6 2-3.37 4.01-5.15 8.26-7 13-.62 4.05 1.28 9.65 2 14 .08.49 0 1 0 1 1.46 1.82 4.37 5.62 5 8 .14.52.2 2.51 0 3-.68 1.72-5.25 4.37-7 5-.44.16-1 0-1 0-2.06 1.12-9.14 3.71-10-1-.71-3.89 4.36-3.87 6-5 2.23-2.13 1.02-4.09 0-7-1.08-3.06-2.32-5.78-3-9-.85-2.54-1.84-4.87-2-8-.08-1.64-.06-3.35 0-5 .26-7.57 3.85-12.39 11-11m21 8c-.1.48 0 1 0 1-.24 1.73-1.77 3.75-2 5-.1 1.32 0 2.68 0 4 .4 2.97.93 7.78 2 11 4.14 8.38 8.76 12.15-2.08 16.92-10.83 4.78-13.81-5.41-1.92-7.92-2.78-5.34-5.59-10.21-6-16-.72-2.16-1.74-3.18-2-6-.77-8.42 1.27-14.59 8-16 7.06-1.48 11.35 2.86 4 8m-53-4c.98-.1 2.01.03 3 0 3.76-.1 9.18.45 10 5 .27 3.01-.21 5.67-1 8-1.34 3.96-3.88 7.55-6 11-.86 2.59-1.82 6.02 1 8 .4.2 1 0 1 0 1.89.92 9.26 5.02 10 6 1.16 1.54.45 2.65-1 4-6.01 5.61-12.05-6.25-18-7-2.23 3.23 4.69 8.54-3.08 8.92S386 271.91 386 266c0-3.75.71-7.99 1-11 .32-3.3-.3-6.69 0-10 .64-3.64 5.64-2.75 8-3"/>
    <path fill="none" stroke="#EA7A7D" stroke-opacity=".45" stroke-width=".3" d="M89 126c-.96.4 1.49 3.44 2.23 1.21.74-2.24 1.08-1.39 2.77-1.21-.22-.23-.86-1.94-1-2-.84-.37-3.48 1.65-4 2Z"/>
    <path fill="none" stroke="#FBBDBD" stroke-opacity=".13" stroke-width=".3" d="M94 126c1.61 1.64 4.03 1.44 6 2-.43-.18-6.57-4.38-7-4 .14.06.78 1.77 1 2Z"/>
    <path fill="none" stroke="#FA5C5C" stroke-opacity=".95" stroke-width=".3" d="M89 126c-3.55-.92-3.16 2.65-3 5 1.07-.03 2.19.28 3 1 7.69 5.33 8.05 6.13-2 8-12.07 3.51-19.54 22.35-22 34-.63 3-1.75 7.41-2 10 0 2.31.17 4.7 0 7-.42 5.54-1.17 11.46-2 17-.53 3.51-.67 5.44 0 9 .81 4.3.16 8.26 0 12 .14 2.61.43 4.61 1 7 1.17 3.17 2.19 5.34 3 9 1.44 6.52 4.91 14.66 9 20 1.95 1.97 5.08 3.25 7 6 0 0 .64-.22 1 0 1.99 1.24 3.48 2.41 5 4 0 0 .53-.11 1 0 2.34.55 5.04 2.59 7 3 2.84.35 8.28.82 11 0 1.95-.85 3.26-5.14 5.25-6.75s5.05-3.48 6.75-5.25c7.78-10.16 11-27.29 11-40v-2c0-8.95.49-18.06 0-27-.31-5.66-1.02-11.43-2-17-.75-4.26-1.55-8.93-3-13-.82-2.31-2.72-3.57-1-6 .54-.76 2.23-1.53 3-2 1.48-2.45-2.77 1.42-4 1 .03-1.08-.29-2.19-1-3-2.3-2.62-3.14-4.6-4-8-.3-1.19-.58-1.88-1-3-2.5-4.56-5.73-8.69-9-13-2.54-3.35-2.59-3.75-7-5-1.97-.56-4.39-.36-6-2-1.69-.18-2.03-1.03-2.77 1.21-.74 2.23-3.19-.81-2.23-1.21m21 58c.48 2.33 1 5.05 1 8 0 19.38-3.69 35.07-8 53-.89 3.73-1.54 2.73-3 5-.93 1.95-1.43 6.03-4 7-3.79 1.43-6.35-7.17-7-10-4.73-20.64-4.72-39.33-3-61 .22-2.8 1.19-5.71 2-8 1.49-4.19 1.11-7.64 2-12 1.02-4.99 4.56-9.1 7-13 1.02-2.19 1.29-5.35 3-7 4.47 12.27 7.75 24.99 10 38Z"/>
    <path fill="none" stroke="#F6B2B1" stroke-opacity=".18" stroke-width=".3" d="M87 140c10.05-1.87 9.69-2.67 2-8 6.47 5.75 6.43 5.55-2 8Z"/>
    <path fill="none" stroke="#F7A4A4" stroke-opacity=".19" stroke-width=".3" d="M116 146c-2.21-5.84-5.28-8.89-9-13 3.27 4.31 6.5 8.44 9 13Z"/>
    <path fill="none" stroke="#090605" stroke-opacity=".96" stroke-width=".3" d="M165 137c-1.81 1.41-4.99 2.99-7 4-.74 1.24-3.2-.17-4 2-2.75-1.64.68-4.7 0-7-5.05.59-9.87 3.05-14 6-3.58 3-7.5 8.39-10 12-1.51 2.75-2.7 4.2-4 5-.77.47-2.46 1.24-3 2-.88 2.2 1.42 3.6 2 5 1.65-1.05 3.49-1.75 5-3 2.03 3.04 4 5.98 6 9-3.87 1.36-6.55 5.21-9 8 .98 5.57 1.69 11.34 2 17 1.16 7.13 2.93 20.12 0 27v2s.51-.07 1 0c1.81.24 1.5 1.88 2 3 .32.72.58 1.31 1 2 2.35 2.57 8.19 8.59 11 10 1.61.6 3.06.47 4 1 .96.53 1.8 1.18 3 1-.15 2.47-2.79 4.24-4 6 0 0 .16.56 0 1-1.35 3.82-.94 7.16 0 11-1.38 6.73 8.35 8.75 7 14 2.51-1.2 2.39-.14 4 1 1.66 1.18 3.26 3.77 5 5 4.73 2.39 9.5 4.61 16 5 2.43.14 5.32-.73 7 1 0 0-.19.59 0 1 2.95 2.58 6.81 3.04 10 4 .5-.03 1.5 0 2 0 8.93-3.8 26.25 3.84 34-3v-1c-2.06-2.78.28-5.79 0-8-2.73-8.06-17.08-2.15-25-4-1.19-6.16-5.08-9.76-11-11-1.08-.23-3.05.51-4 0-2.76-.84-2.61-6.63-3-9 0 0 .17-.57 0-1-3.03-2.9-9.66-7.61-11-12-1.28-2.13 1.04.17 2 0 3-1.05 9.63-7.37 13-10 .2-.32.74-.75 1-1 .78-3.51 2.23-3.38 4-6 .99-2.03 1.5-4.61 2-6 .42-1.88 1.74-4.64 2-6 .43-4.16-.24-5.53 2-8 5.29-5.83 7.86-6.13 7-15-.29-2.97-.1-5.83 0-8 .04-.99 0-2 0-3v-4c0-.98.09-2.02 0-3-.04-.42.05-1.26 0-2-.48-1.87-4.54-4.62-6-6 .21-3.01 1.56-5.77 1-9-.31-3.03 1.13-6-2-7 .36.11-5.22 1.94-6 2h-7c-.4-1.14.52-2.91 0-4-.92-1.93-1.9-3.48-2-6-.02-.5.22-1.64 0-2-1.18-.64-3.9 1.61-5 2-1.24.45-.57-.1-2 0-.47.19-1.32 1.64-2 2-1.43.77-.39-.12-2 0-1.39.45-2.33 4.71-5 3 .67-2.61-1.34-4.45-1-7v-6c-3.48-.9-5.01 2.45-7 4m2 5c.68 3.64 2.4 7.05 2 11 5.88-.23 10.09-5.77 16-6-1.95 12.09 7.11 11.41 16 9-.73 13.43-10.18 15.77-22 14s-26.88 1.32-39 0c-10.35-9.24-2.07-21.76 9-26-1.71 14.37 11.48-1.63 18-2m36 27c3.87 3.86 5.82 16.6-2 16 .79-4.68-3.95-7.13-5-11 2.91-.75 4.51-3.61 7-5m-7 16c-9.62 1.58-30.03-5.56-29 10-8.48 2.8-4.34-9.43-12.22-9.78-7.88-.34-14.95-.21-22.78-.22 2.67-13.88 21.05-9.85 32-10s28.78-3.37 32 10m-40 25c-7.98-4.13-23.23 7.62-25-5-1.76-12.62 1.96-15.35 15-15s10.13 8.15 10 20m40-18c1.82 2.44 2.23 14.77 0 17-2.81 2.81-19.28 1.17-23 1s-3.98-19.23.25-19.75 19.79-2.23 22.75 1.75m6 8v-10c5.51-.03 5.52 10.03 0 10m-36 1c1.93 1.93.55 5.36 1 8 1 3.29 1.42 4.65 5 6 4.24.97 8.64-.68 13 0s9.74-1.68 10 2c.58 8.1-11.1 16.88-17.08 19.92-5.97 3.05-9.63 3.91-14.92 4.08-5.29.16-10.44-2.34-14.08-3.92-3.63-1.59-8.98-5.77-10.67-8.33-1.69-2.55-7.57-10.59-6.25-12.75 1.69-2.75 7.89-.28 11-1s8.68.59 12 0c2.85-.9 7.49-3.11 6-7-1.49-3.9 1.19-10.81 5-7m9 64c-7.87 3.79-14.64 8.32-20.25.25-5.61-8.08-4.24-18.7 6.25-19.25 10.5-.55 10.99 12.21 14 19m11-1c-8.09 1.25-9.06-9.49-11-15 6.05 2.26 9.87 8.96 11 15m15 12c-8.1-3.34-12.27 3.59-18.01 4.99S170.27 277.35 165 276c8.77-8.12 28.87-11.46 36 0m26 5c1.15 8.19-9.16 4.35-15 5s-13.96-.48-20 0c-1.15-8.19 9.16-4.35 15-5s13.96.48 20 0Z"/>
    <path fill="none" stroke="#757776" stroke-opacity=".25" stroke-width=".3" d="M158 141c2.01-1.01 5.19-2.59 7-4-1.17.65-6.38 3.52-7 4Z"/>
    <path fill="none" stroke="#818181" stroke-opacity=".16" stroke-width=".3" d="M184 141c1.1-.39 3.82-2.64 5-2-1.93-3.09-5.31 2.24-5 2Z"/>
    <path fill="none" stroke="#6E7370" stroke-opacity=".22" stroke-width=".3" d="M178 143c-1.82-.4-2.54 1.45-4 2 .7-2.31-1.57-4.36-2-6-.34 2.55 1.67 4.39 1 7 2.67 1.71 3.61-2.55 5-3Z"/>
    <path fill="none" stroke="#818181" stroke-opacity=".14" stroke-width=".3" d="M180 143c.68-.36 1.53-1.81 2-2-2.58.18-1.9 1.92-2 2Z"/>
    <path fill="none" stroke="#ADADAD" stroke-opacity=".11" stroke-width=".3" d="M191 147c-.75-2.08-1.12-4.15-2-6 .1 2.52 1.08 4.07 2 6Z"/>
    <path fill="none" stroke="#9C9B99" stroke-opacity=".11" stroke-width=".3" d="M130 154c2.5-3.61 6.42-9 10-12-4.3 3.07-7.5 7.47-10 12Z"/>
    <path fill="none" stroke="#AD7647" stroke-width=".3" d="M167 142c-6.52.37-19.71 16.37-18 2-11.07 4.24-19.35 16.76-9 26 12.12 1.32 27.18-1.77 39 0s21.27-.57 22-14c-8.89 2.41-17.95 3.09-16-9-5.91.23-10.12 5.77-16 6 .4-3.95-1.32-7.36-2-11Z"/>
    <path fill="none" stroke="#30302F" stroke-opacity=".23" stroke-width=".3" d="M216 206c0 .04 1 0 1 0 .59-6.51-.61-14.64 0-21s-1.04-15.21 0-21-3.06-15.45 2-19c-6.02 1.57-2.31 13.71-3 19s.05 14.92 0 21-.57 14.75 0 21Z"/>
    <path fill="none" stroke="#030404" stroke-opacity=".95" stroke-width=".3" d="M217 206c.41 2.49 2.85 4.5 5 5 5.02.78 16.9-2.72 21 0 2 1.33.03 4.72-1 6 0 0 .02.5 0 1-.16 4.19-2.44 7.6-4 11-2.78 8.67-2.88 15.53-7.03 23.97-4.15 8.45.02 19.26 10.78 15.78 10.76-3.47 2.89-15.26 8.25-19.75 1.79-1.5 7.3-1.8 9 0 2.08 9.22 4.2 18.46 8 27-8.51 2.25-19.76-3-28 0-3.56 1.84-2.95 12.93 0 15h1c7.15 0 27.95 3.47 32-3-.52-5.76-.24-11.47-1-17-.14-.98.1-2.01 0-3-.42-1.29-1.6-2.06-2-4-1.91-9.22-4.3-17.98-7-27-1.35-3.31-4.13-8.01-4-12-.13-2.52 1.46-5.47 2-8 .25-1.18.26-5.15 1-6 .94-1.07 4.93.31 7 0 1.32-.38 2.96-3.03 4-4-.85-9.42 1.66-20.82 0-30s3.58-21.61 0-30c-.79-1.2-1.68-1.63-3-2-6.32-1.14-16.84 3.06-24 1s-19.13 3.35-25-1c0 0-.53-.12-1 0-5.06 3.55-.96 13.21-2 19s.61 14.64 0 21 .59 14.49 0 21m20-50c-.25.26 0 1 0 1 4.19 5.19-9.14 5.62-6-1-3.75-1.36-2.08 2.93-4 4-.03.12-1 0-1 0-5.49 4.4-8.44-9.81-2.92-10.92 5.53-1.1 14.8.41 20.92-.08s13.7.28 20 0 6.06 13.27-1 12c-7.07-1.28-13.95.96-21 0-1.25-2.59-.7-6.26-5-5m10 48c-1.61 3.26-8.86 2.28-12 2s-11.2 1.57-13-1c-3.13-4.47 1.63-14.48 0-20s1.23-14.19 0-20h25v39m20-39v41c-6.73 1.84-7.65-8.52-15-6v-35h15m-10 41c-2.77 9.45-5.07 22.16-8.93 31.07-3.86 8.92-2.98 26.69-14.07 24.93 4.25-9.11 5.07-20.98 8.99-30.01 3.93-9.03 3.43-25.04 14.01-25.99m-1 31c.46 1.49.8 2.35 1 4 .84.82 1.22 1.6 1 3-1.7.09-7.9.47-6-2-.04-1.2.62-3.82 1-5 .42-1.29.8-2.6 1-4 2.53-.63 1.9 2.53 2 4m11 44c-.4 10.23-17.45 2.69-25 5 .4-10.23 17.45-2.69 25-5Z"/>
    <path fill="none" stroke="#2F2F2F" stroke-opacity=".81" stroke-width=".3" d="M269 145c-7.52-2.11-17.2.84-25 0s-16.15 0-24 0c5.87 4.35 17.84-1.06 25 1s17.68-2.14 24-1Z"/>
    <path fill="none" d="M97 153c-1.84 3.94-5.96 9.31-7 13-.89 4.36-.51 7.81-2 12-.5 2.7-1.63 6.17-2 8-1.72 21.67-1.73 40.36 3 61 1.29 3.73 3.84 7.54 7 10 2.57-.97 3.07-5.05 4-7 .83-1.74 2.45-3.45 3-5 4.31-17.93 8-33.62 8-53-.19-1.96-.77-5.44-1-8-2.25-13.01-5.53-25.73-10-38-1.71 1.65-1.98 4.81-3 7"/>
    <path fill="none" stroke="#383838" stroke-opacity=".2" stroke-width=".3" d="M272 207c.27-.25 1 0 1 0 .81-9.01.74-22.26 0-31s3.46-22.18-1-29c3.58 8.39-1.66 20.82 0 30s-.85 20.58 0 30Z"/>
    <path fill="none" stroke="#F9B6B6" stroke-opacity=".16" stroke-width=".3" d="M121 157c-1.31-2.12-2.96-5.81-4-8 .86 3.4 1.7 5.38 4 8Z"/>
    <path fill="none" stroke="#7D7E7F" stroke-opacity=".22" stroke-width=".3" d="M198 151c.78-.06 6.36-1.89 6-2-2.22-.89-4.46 1.75-6 2Z"/>
    <path fill="none" stroke="#19280A" stroke-width=".3" d="M226 160c-1.27.27-2.71-.21-4 0v-10h45v10h-25c1.64-3.68-2.29-7.06-5-4 4.3-1.26 3.75 2.41 5 5 7.05.96 13.93-1.28 21 0 7.06 1.27 7.3-12.28 1-12s-13.88-.49-20 0-15.39-1.02-20.92.08c-5.52 1.11-2.57 15.32 2.92 10.92Z"/>
    <path fill="none" stroke="#B0D481" stroke-width=".3" d="M226 160s.97.12 1 0c-.29-1.62.22-3.37 0-5 3.89-1.1 5.97 1.15 5 5 2.35.16 5.92.55 5-3 0 0-.25-.74 0-1 2.71-3.06 6.64.32 5 4h25v-10h-45v10c1.29-.21 2.73.27 4 0Z"/>
    <path fill="none" stroke="#F7B8B7" stroke-opacity=".11" stroke-width=".3" d="M90 166c1.04-3.69 5.16-9.06 7-13-2.44 3.9-5.98 8.01-7 13Z"/>
    <path fill="none" stroke="#182707" stroke-width=".3" d="M227 160c1.92-1.07.25-5.36 4-4-3.14 6.62 10.19 6.19 6 1 .92 3.55-2.65 3.16-5 3 .97-3.85-1.11-6.1-5-5 .22 1.63-.29 3.38 0 5Z"/>
    <path fill="none" stroke="#747777" stroke-opacity=".25" stroke-width=".3" d="M211 171c-.67-2.72-2.49-5.48-5-7 1.86-2.6.22-5.83 0-8 .56 3.23-.79 5.99-1 9 1.46 1.38 5.52 4.13 6 6Z"/>
    <path fill="none" stroke="#51110C" stroke-opacity=".9" stroke-width=".3" d="M124 167c.04-.22.73-.83 1-1-.58-1.4-2.88-2.8-2-5-1.72 2.43.18 3.69 1 6Z"/>
    <path fill="none" stroke="#AA7249" stroke-width=".3" d="M125 166c-.27.17-.96.78-1 1 1.45 4.07 2.25 8.74 3 13 2.45-2.79 5.13-6.64 9-8-2-3.02-3.97-5.96-6-9-1.51 1.25-3.35 1.95-5 3Z"/>
    <path fill="none" stroke="#DEE0E4" stroke-width=".3" d="M222 205c3.58-.59 9.67.79 13 0s9.91 1.96 12-1v-39h-25c1.23 5.81-1.63 14.48 0 20s-3.13 15.53 0 20m20-35c1.76 8.66-10 3.7-15 5-1.76-8.66 10-3.7 15-5m0 10c1.76 8.66-10 3.7-15 5-1.76-8.66 10-3.7 15-5m0 15h-15c-2.73-7.68 16.95-7.68 15 0Z"/>
    <path fill="none" stroke="#DBDDE1" stroke-width=".3" d="M267 165h-15v35c7.35-2.52 8.27 7.84 15 6v-41m-5 5c2.23 2.23-1.92 7.4-4.67 4.67-2.76-2.74 2.47-6.87 4.67-4.67m0 10c2.23 2.23-1.92 7.4-4.67 4.67-2.76-2.74 2.47-6.87 4.67-4.67m0 10c2.23 2.23-1.92 7.4-4.67 4.67-2.76-2.74 2.47-6.87 4.67-4.67Z"/>
    <path fill="none" stroke="#A5734A" stroke-width=".3" d="M203 169c-2.49 1.39-4.09 4.25-7 5 1.05 3.87 5.79 6.32 5 11 7.82.6 5.87-12.14 2-16Z"/>
    <path fill="none" stroke="#0A0E14" stroke-width=".3" d="M242 170c-5 1.3-16.76-3.66-15 5 5-1.3 16.76 3.66 15-5Z"/>
    <path fill="none" stroke="#101319" stroke-width=".3" d="M262 170c-2.2-2.2-7.43 1.93-4.67 4.67 2.75 2.73 6.9-2.44 4.67-4.67Z"/>
    <path fill="none" stroke="#868685" stroke-opacity=".22" stroke-width=".3" d="M211 173c.09.98 0 2.02 0 3 .33 1.78.32 2.27 0 4 0 1 .04 2.01 0 3 1.55-4.76 1.55-7.18 0-10Z"/>
    <path fill="none" stroke="#F3B7B6" stroke-opacity=".12" stroke-width=".3" d="M63 184c.25-2.59 1.37-7 2-10-1.17 3.42-2 5.66-2 10Z"/>
    <path fill="none" stroke="#E6CAB1" stroke-width=".3" d="M196 185c-3.22-13.37-21.05-10.15-32-10s-29.33-3.88-32 10c7.83.01 14.9-.12 22.78.22 7.88.35 3.74 12.58 12.22 9.78-1.03-15.56 19.38-8.42 29-10Z"/>
    <path fill="none" stroke="#020202" stroke-opacity=".68" stroke-width=".3" d="M211 180c.32-1.73.33-2.22 0-4z"/>
    <path fill="none" stroke="#EA8785" stroke-opacity=".27" stroke-width=".3" d="M86 186c.37-1.83 1.5-5.3 2-8-.81 2.29-1.78 5.2-2 8Z"/>
    <path fill="none" stroke="#0D1110" stroke-width=".3" d="M242 180c-5 1.3-16.76-3.66-15 5 5-1.3 16.76 3.66 15-5Z"/>
    <path fill="none" stroke="#11151C" stroke-width=".3" d="M262 180c-2.2-2.2-7.43 1.93-4.67 4.67 2.75 2.73 6.9-2.44 4.67-4.67Z"/>
    <path fill="none" stroke="#FAB3B3" stroke-opacity=".18" stroke-width=".3" d="M111 192c0-2.95-.52-5.67-1-8 .23 2.56.81 6.04 1 8Z"/>
    <path fill="none" stroke="#6AC8E1" stroke-width=".3" d="M156 210c.13-11.85 3.04-19.65-10-20s-16.76 2.38-15 15c1.77 12.62 17.02.87 25 5m-7-6c-4.4-9.04-10.06 2.48-15-2 .63-12.05 26.25-5.15 15 2Z"/>
    <path fill="none" stroke="#6AC8E0" stroke-width=".3" d="M196 209c1.05-1.5.87-15.3 0-17-2.96-3.98-18.52-2.27-22.75-1.75s-3.97 19.58-.25 19.75 20.19 1.81 23-1m-2-7c-5.55 5.05-7.78-5.64-13.25-.25-5.46 5.4-6.75-3.9-.67-5.67 6.09-1.76 10.97.32 13.92 5.92Z"/>
    <path fill="none" stroke="#DDC2AF" stroke-width=".3" d="M202 200c5.52.03 5.51-10.03 0-10z"/>
    <path fill="none" stroke="#080D0F" stroke-width=".3" d="M242 195c1.95-7.68-17.73-7.68-15 0z"/>
    <path fill="none" stroke="#0E1219" stroke-width=".3" d="M262 190c-2.2-2.2-7.43 1.93-4.67 4.67 2.75 2.73 6.9-2.44 4.67-4.67Z"/>
    <path fill="none" stroke="#EE9898" stroke-opacity=".19" stroke-width=".3" d="M61 208c.83-5.54 1.58-11.46 2-17-.93 5.39-1.93 11.69-2 17Z"/>
    <path fill="none" stroke="#8F8F8F" stroke-opacity=".15" stroke-width=".3" d="M204 206c2.79-2.55 5.13-1.51 7.23-5.77s.76-5.37-.23-9.23c.86 8.87-1.71 9.17-7 15Z"/>
    <path fill="none" stroke="#386975" stroke-width=".3" d="M196 209c2.23-2.23 1.82-14.56 0-17 .87 1.7 1.05 15.5 0 17Z"/>
    <path fill="none" stroke="#03121B" stroke-width=".3" d="M149 204c11.25-7.15-14.37-14.05-15-2 4.94 4.48 10.6-7.04 15 2Z"/>
    <path fill="none" stroke="#02121A" stroke-width=".3" d="M194 202c-2.95-5.6-7.83-7.68-13.92-5.92-6.08 1.77-4.79 11.07.67 5.67 5.47-5.39 7.7 5.3 13.25.25Z"/>
    <path fill="none" stroke="#882F30" stroke-opacity=".99" stroke-width=".3" d="M129 224c2.93-6.88 1.16-19.87 0-27 .49 8.94 0 18.05 0 27Z"/>
    <path fill="none" stroke="#E8CBB2" stroke-width=".3" d="M155 215c-6.8 2.15-15.46.47-23 1-1.32 2.16 4.56 10.2 6.25 12.75 1.69 2.56 7.04 6.74 10.67 8.33 3.64 1.58 8.79 4.08 14.08 3.92 5.29-.17 8.95-1.03 14.92-4.08 5.98-3.04 17.66-11.82 17.08-19.92-1.59-2.54-7.74-.77-11-1s-9.08.1-12-1c-3.58-1.35-4-2.71-5-6-.42-1.38-.21-6.8-1-8-3.81-3.81-6.49 3.1-5 7 1.49 3.89-3.15 6.1-6 7m15 15c-4.06 1-9.26 1.33-14 1v-5c2.76-2.87 10.19-.16 14-1 1.49-.55 3.58-.97 4-3 7.61 1.41.74 8.87-4 8Z"/>
    <path fill="none" stroke="#786459" stroke-width=".3" d="M167 209c-.45-2.64.93-6.07-1-8 .79 1.2.58 6.62 1 8Z"/>
    <path fill="none" stroke="#818285" stroke-width=".3" d="M222 205c1.8 2.57 9.86.72 13 1s10.39 1.26 12-2c-2.09 2.96-8.67.21-12 1s-9.42-.59-13 0Z"/>
    <path fill="none" stroke="#A6A6A6" stroke-opacity=".18" stroke-width=".3" d="M222 211c-2.15-.5-4.59-2.51-5-5 0 0-1 .04-1 0 .52 3.91 2.75 4.49 6 5Z"/>
    <path fill="none" stroke="#C1C4CB" stroke-width=".3" d="M257 206c-10.58.95-10.08 16.96-14.01 25.99-3.92 9.03-4.74 20.9-8.99 30.01 11.09 1.76 10.21-16.01 14.07-24.93 3.86-8.91 6.16-21.62 8.93-31.07Z"/>
    <path fill="none" stroke="#989898" stroke-opacity=".22" stroke-width=".3" d="M268 211c2.47-.37 4.66-1.37 5-4 0 0-.73-.25-1 0-1.04.97-2.68 3.62-4 4Z"/>
    <path fill="none" stroke="#AAA9AA" stroke-opacity=".15" stroke-width=".3" d="M242 217c1.03-1.28 3-4.67 1-6-.5 2.12-1.09 3.71-1 6Z"/>
    <path fill="none" stroke="#C5C5C5" stroke-opacity=".1" stroke-width=".3" d="M260 217c.24-.63 3.66-4.02 1-6-.74.85-.75 4.82-1 6Z"/>
    <path fill="none" stroke="#999F9F" stroke-opacity=".19" stroke-width=".3" d="M200 220c.7-1.94 1.75-3.54 2-6-.26 1.36-1.58 4.12-2 6Z"/>
    <path fill="none" stroke="#665D4F" stroke-width=".3" d="M132 216c7.54-.53 16.2 1.15 23-1-3.32.59-8.89-.72-12 0s-9.31-1.75-11 1Z"/>
    <path fill="none" stroke="#675D4C" stroke-width=".3" d="M195 217c-.26-3.68-5.64-1.32-10-2s-8.76.97-13 0c2.92 1.1 8.74.77 12 1s9.41-1.54 11 1Z"/>
    <path fill="none" stroke="#E38887" stroke-opacity=".37" stroke-width=".3" d="M61 229c.16-3.74.81-7.7 0-12 .24 2.7-.21 8.21 0 12Z"/>
    <path fill="none" stroke="#A3A3A2" stroke-opacity=".16" stroke-width=".3" d="M238 229c1.56-3.4 3.84-6.81 4-11-2.75 2.11-2.98 7.82-4 11Z"/>
    <path fill="none" stroke="#060201" stroke-width=".3" d="M170 225c-3.75 1.38-8.58 1-13 1-.21 1.3.16 2.69 0 4h13c4.74.87 11.61-6.59 4-8-.42 2.03-2.51 2.45-4 3Z"/>
    <path fill="none" stroke="#8E7966" stroke-width=".3" d="M156 226c.04-.14 1 0 1 0 4.42 0 9.25.38 13-1-3.81.84-11.24-1.87-14 1Z"/>
    <path fill="none" stroke="#C5C5C5" stroke-opacity=".12" stroke-width=".3" d="M262 237c-.91-3.05-3.87-9.45-4-12-.13 3.99 2.65 8.69 4 12Z"/>
    <path fill="none" stroke="#A09996" stroke-opacity=".16" stroke-width=".3" d="M132 229c-.5-1.12-.19-2.76-2-3 .56 1.93.89 1.6 2 3Z"/>
    <path fill="none" stroke="#605041" stroke-width=".3" d="M170 230h-13c.16-1.31-.21-2.7 0-4 0 0-.96-.14-1 0v5c4.74.33 9.94 0 14-1Z"/>
    <path fill="none" stroke="#8A8A8A" stroke-opacity=".21" stroke-width=".3" d="M194 232c1.44-1.38 3.04-4.03 4-6-1.77 2.62-3.22 2.49-4 6Z"/>
    <path fill="none" stroke="#6D7073" stroke-opacity=".27" stroke-width=".3" d="M144 241c-2.81-1.41-8.65-7.43-11-10 2.2 3.62 7.02 8.51 11 10Z"/>
    <path fill="none" stroke="#B9B9B9" stroke-opacity=".13" stroke-width=".3" d="M208 239c1.03-2.1 3.42-4.26 4-7 1.12.02 2.33 2.97 3 1-.66-1.35-2.59-1.85-4-2-.61 2.81-2.05 5.29-3 8Z"/>
    <path fill="none" stroke="#111" stroke-opacity=".76" stroke-width=".3" d="M208 239c-.71 2.01-1.38 3.97-2 6-.87 2.87-1.79 5.48-3 8-1.48 3.08-2.19 6.03 1.97 6.97s4.44-5.85 5.03-7.97c.89-3.19 1.46-4.3 3-7 1.72-4.39 5.6-8.98 2-12-.67 1.97-1.88-.98-3-1-.58 2.74-2.97 4.9-4 7Z"/>
    <path fill="none" stroke="#868887" stroke-opacity=".21" stroke-width=".3" d="M180 243c4.32-.76 10.69-6.26 13-10-3.37 2.63-10 8.95-13 10Z"/>
    <path fill="none" stroke="#040506" stroke-opacity=".24" stroke-width=".3" d="M253 237c-.12.58 1.51 3.69 0 5h4c.24-.31 0-1 0-1-2.04-1.73-.76-2.77-1-4-.1-1.47.53-4.63-2-4-.2 1.4-.58 2.71-1 4Z"/>
    <path fill="none" stroke="#222" stroke-opacity=".91" stroke-width=".3" d="M371 235c-2.16.48-6.39 3.9-7 6-.77 2.63.19 6.25 0 9-.19 2.74-.37 4.99-2 7v1c0 6.35-2.36 18.2 0 24 .77 1.88 4.3 2.92 6 3 3.61-.18 9.68-5.74 11-9 2.58-2.91-.62-6.19-4-5 .46 1.72-1.02 2.18-2 3-1.21 1.01-1.77 3.62-4 3 .63-3.83-1.28-8.99 1-12 0-.5-.22-1.63 0-2 2.04-3.49 8.67-.46 11.22-2.78 2.56-2.31-3.59-5.97-5.22-7.22-1.31-.54-2.44-1.41-4-1 1.06-2.07-.56-6.63 0-8 1.26-3.09 3.53-3.01 7-3 1 0 2 .01 3 0 1.22-.21 3.44-1.6 5-2 .55-1.82-1.75-2.47-2-4-3.45-1.74-10.05-.53-14 0Z"/>
    <path fill="none" stroke="#ABABAB" stroke-opacity=".14" stroke-width=".3" d="M364 241c.61-2.1 4.84-5.52 7-6-4.25.57-5.72 2.07-7 6Z"/>
    <path fill="none" stroke="#BCBCBC" stroke-opacity=".1" stroke-width=".3" d="M382 241c4.22-.03 8.45-3.25 3-6 .25 1.53 2.55 2.18 2 4-1.56.4-3.78 1.79-5 2Z"/>
    <path fill="none" stroke="#FAA8A8" stroke-opacity=".25" stroke-width=".3" d="M65 245c-.81-3.66-1.83-5.83-3-9 .84 3.57 2.07 6.48 3 9Z"/>
    <path fill="none" stroke="#9E9E9D" stroke-opacity=".1" stroke-width=".3" d="M188 245c3.28-2.3 5.77-5.74 9-8-.2-.1 0-1 0-1-2.83 1.38-7.59 6.11-9 9Z"/>
    <path fill="none" stroke="#434343" stroke-opacity=".41" stroke-width=".3" d="M197 237c1.13.55 1.81 1.64 3 2 .27 2.75-3.29 3.68-4 6 1.07-1.51 3.71-2.75 5-4 .45-2.31-2.53-3.07-3-5 0 0-.6-.2-1 0 0 0-.2.9 0 1Z"/>
    <path fill="none" stroke="#D6D6D6" stroke-opacity=".02" stroke-width=".3" d="M196 245c-.06.29.79.73 1 1 1.09-2 3.07-3.74 5-5 .01-2.13-2.16-4.1-4-5 .47 1.93 3.45 2.69 3 5-1.29 1.25-3.93 2.49-5 4Z"/>
    <path fill="none" stroke="#404040" stroke-opacity=".28" stroke-width=".3" d="M218 238c-.24.32 0 1 0 1 4.86-4.94 7.73 4.29 12 6-.1-1.25-5.99-7.52-7-8-1.95-.72-3.48-1.02-5 1Z"/>
    <path fill="none" stroke="#CACACA" stroke-opacity=".06" stroke-width=".3" d="M315 243c2.34-2.99 7.2-6.34 11-6-3.55-2.85-8.88 2.81-11 6Z"/>
    <path fill="none" stroke="#969696" stroke-opacity=".18" stroke-width=".3" d="M337 239c3.27-4.68 8.59.7 11-1-2.83-1.13-10.36-4.43-11 1Z"/>
    <path fill="none" stroke="#010101" stroke-opacity=".89" stroke-width=".3" d="M188 245s-.1.52 0 1c2.3 1.61 5.91 4.38 7 7 1.51 2.2 6 1.43 6-2-.46-1.68-2.91-3.6-4-5-.21-.27-1.06-.71-1-1 .71-2.32 4.27-3.25 4-6-1.19-.36-1.87-1.45-3-2-3.23 2.26-5.72 5.7-9 8Z"/>
    <path fill="none" stroke="#010201" stroke-opacity=".89" stroke-width=".3" d="M218 239c.5 2.57 2.76 4.67 5 6-3.03 2.78-8.09 8.89-1 10 1.63-.6 3.24-3.55 5-5 1.15-1.21 3.15-3.25 3-5-4.27-1.71-7.14-10.94-12-6Z"/>
    <path fill="none" stroke="#C7C7C7" stroke-opacity=".04" stroke-width=".3" d="M230 245c.15 1.75-1.85 3.79-3 5 5.2-4.28 2.76-10.5-4-13 1.01.48 6.9 6.75 7 8Z"/>
    <path fill="none" stroke="#B9B9B9" stroke-opacity=".13" stroke-width=".3" d="M252 242c.86 1.73 4.03 1.25 5 0h-4c1.51-1.31-.12-4.42 0-5-.38 1.18-1.04 3.8-1 5Z"/>
    <path fill="none" stroke="#969696" stroke-opacity=".22" stroke-width=".3" d="M257 241c-.2-1.65-.54-2.51-1-4 .24 1.23-1.04 2.27 1 4Z"/>
    <path fill="none" stroke="#ADADAD" stroke-opacity=".16" stroke-width=".3" d="M289 251c2.95-5.53 7.93-16.03 17-12-6.73-8.77-15.32 7.77-17 12Z"/>
    <path fill="none" stroke="#232323" stroke-opacity=".9" stroke-width=".3" d="M315 243c-2.05 3.07-3.18 6.53-4 10-.72 3.04-1.63 7.34-2 10-.38 2.78-.46 5.81 0 9 .3 2.1 1.24 5.62 2 8 1.3 4.04 3.72 6.89 9 6 3.71-.94 6.47-7.58 9-10 0 0-.01-.5 0-1 .06-3.02 1.78-5.66 3-8v-5c0-2.85 1-6.97 1-9 .13-1.75-.5-2.51-1-4-1.03-2.04-4.46-3.61-2-6 0 0 .54-.14 1 0 .04-2.64-2.34-4.38-4-6 0 0-.5.04-1 0-3.8-.34-8.66 3.01-11 6m11 12c.05.55 3.22 1.5 2 3-1.28-.53-1.86.97-3 1-.63 2.31-1.31 5.06-2 7-.47 1.33-.23.97-1 2-.61.82-.53 1-1 2 1.19-.87 2.51-1.13 4-1 .12 2.48-2.87 5.09-5 3-.3 1.09-.44 3.03-1 4-2.53 4.41-3.05-2.14-3-5s2.01-6.76 3-9c1.48-4.62 3.83-9.48 7-13 1.52 1.73-.76 3.79 0 6Z"/>
    <path fill="none" stroke="#BEBEBE" stroke-opacity=".09" stroke-width=".3" d="M331 243c2.94.91-1.47-5.09-4-6 1.66 1.62 4.04 3.36 4 6Z"/>
    <path fill="none" stroke="#232323" stroke-opacity=".9" stroke-width=".3" d="M337 239v1c0 4.46-.89 9.68-1 13 .27 4.89-.27 8.88 0 13 .23 3.45.89 9.45-1 12 0 0-.09.52 0 1 1.54 2.41 7.63 6.48 10 7 10.4.83 12.64-15.42 14-23 .2-1.11.39-2.01 1-3 .55-2.87.26-6.64 0-9-.53-2.24-2.19-7.1-4-9-.25-.26-.74-.75-1-1-2.64-.63-4.07-1.11-6-3 0 0-.57.17-1 0-2.41 1.7-7.73-3.68-11 1m17 12c-.01 2.46-1.38 4.32-2 7-.94 4.06-1.27 8.16-3 12-.81 1.79-2.17 3.52-3 5-1.43-1.03-1.69-5.04 0-6 .23-2.93.78-6.75 1-9 0-2.97-1.49-13.47 1-15 1.7-1.04 4.13 2.85 6 2z"/>
    <path fill="none" stroke="#BBB" stroke-opacity=".14" stroke-width=".3" d="M416 249c.77-6 4.06-11.26 11-11-7.15-1.39-10.74 3.43-11 11Z"/>
    <path fill="none" stroke="#B5B5B5" stroke-opacity=".09" stroke-width=".3" d="M444 238c2.93-.15 5.43.82 8 2 .06 2.82-4.04 3.09-4 6 7.35-5.14 3.06-9.48-4-8Z"/>
    <path fill="none" stroke="#A4A4A4" stroke-opacity=".09" stroke-width=".3" d="M222 255c-7.09-1.11-2.03-7.22 1-10-2.24-1.33-4.5-3.43-5-6 0 0-.24-.68 0-1-3.16 2.93 3.07 5.24 4 8-5.9 1.15-5.71 11.1 0 9Z"/>
    <path fill="none" stroke="#A0A0A0" stroke-opacity=".19" stroke-width=".3" d="M355 241c-1.79-1.72-3.34-2.8-6-3 1.93 1.89 3.36 2.37 6 3Z"/>
    <path fill="none" stroke="#252525" stroke-opacity=".89" stroke-width=".3" d="M416 249c-.06 1.65-.08 3.36 0 5 .3 2.04 1.48 5.52 2 8 .68 3.22 1.92 5.94 3 9 1.8 3.3 4.4 3.97 0 7-1.64 1.13-6.71 1.11-6 5 1.16 3.2 7.85 1.05 10 1 0 0 .56.16 1 0 1.47-2.16 5.6-3.07 7-5 .2-.49.14-2.48 0-3-1.33-2.53-4.31-3.82-5-8 0 0 .08-.51 0-1-2.89-3.56-3.12-10.47-2-14 1.85-4.74 3.63-8.99 7-13-3.43-.91-2.08-1.24-6-2-6.94-.26-10.23 5-11 11Z"/>
    <path fill="none" stroke="#2B2B2B" stroke-opacity=".85" stroke-width=".3" d="M436 254c.27 1.5 1.57 4.08 2 6 .41 5.79 3.22 10.66 6 16-11.89 2.51-8.91 12.7 1.92 7.92 10.84-4.77 6.22-8.54 2.08-16.92-1.82-3.69-2-6.41-2-11 0-1.32-.1-2.68 0-4 .15-2.11.37-3.68 2-5 0 0-.1-.52 0-1-.04-2.91 4.06-3.18 4-6-2.57-1.18-5.07-2.15-8-2-6.73 1.41-8.77 7.58-8 16Z"/>
    <path fill="none" stroke="#262626" stroke-opacity=".87" stroke-width=".3" d="M289 251c-1.48 2.78-1.43 3.84-2 7-.52 2.91-.97 6.57-2 9 .03.5.03 1.5 0 2 .94 2.21.66 4.31 1 7 1.62 7.3 5.11 12.46 12 8 2.21-1.69 5.51-5.86 7-8 .52-1.01.99-1.83 1-3v-1c0-.68.29-2.4 0-3-4.66.15-6.35 8.05-11 8-2.51-.03-2.6-8.81-1.31-12.31 1.3-3.49 2.68-9.37 4.31-12.69 1.1-3.07 1.53-4.67 4-7 1.67-1.58 3.32-1.89 4-4-.18-.42.24-1.69 0-2-9.07-4.03-14.05 6.47-17 12Z"/>
    <path fill="none" stroke="#ACACAC" stroke-opacity=".21" stroke-width=".3" d="M336 253c.11-3.32 1-8.54 1-13-3.06 3.77-1.24 8.69-1 13Z"/>
    <path fill="none" stroke="#030303" stroke-opacity=".76" stroke-width=".3" d="M257 242c-.97 1.25-4.14 1.73-5 0-1.9 2.47 4.3 2.09 6 2 .22-1.4-.16-2.18-1-3 0 0 .24.69 0 1Z"/>
    <path fill="none" stroke="#949494" stroke-opacity=".12" stroke-width=".3" d="M302 245c2.08-1.81 5.55-.42 4-4-.68 2.11-2.33 2.42-4 4Z"/>
    <path fill="none" stroke="#EDEDED" stroke-opacity=".04" stroke-width=".3" d="M363 250c.01-.06 1 0 1 0 .19-2.75-.77-6.37 0-9-.89 2.73-.77 5.67-1 9Z"/>
    <path fill="none" stroke="#9E9E9E" stroke-opacity=".18" stroke-width=".3" d="M372 244c2.22-.94 4.97-2.57 7-3-3.47-.01-5.74-.09-7 3Z"/>
    <path fill="none" stroke="#8A8A89" stroke-opacity=".15" stroke-width=".3" d="M147 249c1.21-1.76 3.85-3.53 4-6-1.2.18-2.04-.47-3-1 1.35 1.19.04 4.39-1 7Z"/>
    <path fill="none" stroke="#989898" stroke-opacity=".21" stroke-width=".3" d="M360 251c-.39-3.48-.68-7.11-4-9 1.81 1.9 3.47 6.76 4 9Z"/>
    <path fill="none" stroke="#D9D9D9" stroke-opacity=".09" stroke-width=".3" d="M387 245c0-.04 1 0 1 0 1.08-2.02 5.1-2.34 7-3-2.36.25-7.36-.64-8 3Z"/>
    <path fill="none" stroke="#232323" stroke-opacity=".89" stroke-width=".3" d="M388 245c.31 3.5-.74 7.28-1 10-.34 3.53-.72 8.13-1 11 0 5.91-2.85 20.3 4.92 19.92s.85-5.69 3.08-8.92c1.17-1.7 6.21 1.92 8.23 3.77 2.02 1.86 6.35 5.44 9.77 3.23 1.45-1.35 2.16-2.46 1-4-1.09-1.01-5.11.5-6.25-1.75-1.13-2.25-2.43-2.36-3.75-4.25 0 0-.6.2-1 0-1.55-.76-2.42-2.39-4-3 1.36-1.51.49-4.46 3-5 2.12-3.45 4.66-7.04 6-11 .5-2.54-.23-5.41 0-8-2.41-3.44-5.43-4.36-9-5-.99.03-2.02-.1-3 0-1.9.66-5.92.98-7 3m13 5c2.22 1.36-.65 4.08-2 7-1.17 2.52-1.06 5.55-5 5 .27 1.08.37 2.02 1 3-3.4-.48-2.39-7.97-1-10-.38-4.99 2.7-7.63 7-5Z"/>
    <path fill="none" stroke="#CCC" stroke-opacity=".12" stroke-width=".3" d="M407 247c.16.23 1 0 1 0-.82-4.55-6.24-5.1-10-5 3.57.64 6.59 1.56 9 5Z"/>
    <path fill="none" stroke="#8B8C8A" stroke-opacity=".2" stroke-width=".3" d="M189 255c-2.4-6.11-7.96-6.95-11-12 1.34 4.39 7.97 9.1 11 12Z"/>
    <path fill="none" stroke="#A0A0A0" stroke-opacity=".2" stroke-width=".3" d="M332 249c-.66-1.95-1.7-3.98-2-6-2.46 2.39.97 3.96 2 6Z"/>
    <path fill="none" stroke="#F9A8A9" stroke-opacity=".21" stroke-width=".3" d="M100 250c1.46-2.27 2.11-1.27 3-5-.55 1.55-2.17 3.26-3 5Z"/>
    <path fill="none" stroke="#B9B9B9" stroke-opacity=".11" stroke-width=".3" d="M203 253c1.21-2.52 2.13-5.13 3-8-1.01 2.43-2.06 5.33-3 8Z"/>
    <path fill="none" stroke="#818181" stroke-opacity=".21" stroke-width=".3" d="M210 252c.83-2.04 2.1-4.72 3-7-1.54 2.7-2.11 3.81-3 7Z"/>
    <path fill="none" stroke="#C7C7C7" stroke-opacity=".1" stroke-width=".3" d="M298 252c.77-1.57 2.47-5.66 4-7-2.47 2.33-2.9 3.93-4 7Z"/>
    <path fill="none" d="M347 260c0 2.59-1.13 7.31-1 9 .08.99-.06 2 0 3 .83-.41 1.87-.97 2-2-.06-3.75 2.81-8.73 4-12 .62-2.68 1.99-4.54 2-7-.33-3.06-4.09-4.18-6-6-2.49 1.53-1 12.03-1 15"/>
    <path fill="none" stroke="#A2A2A2" stroke-opacity=".15" stroke-width=".3" d="M354 251v-4c-1.87.85-4.3-3.04-6-2 1.91 1.82 5.67 2.94 6 6Z"/>
    <path fill="none" stroke="#727272" stroke-opacity=".4" stroke-width=".3" d="M387 255c.26-2.72 1.31-6.5 1-10 0 0-1-.04-1 0-.3 3.31.32 6.7 0 10Z"/>
    <path fill="none" stroke="#F0CF71" stroke-width=".3" d="M175 265c-3.01-6.79-3.5-19.55-14-19-10.49.55-11.86 11.17-6.25 19.25 5.61 8.07 12.38 3.54 20.25-.25Z"/>
    <path fill="none" stroke="#6E6E72" stroke-opacity=".22" stroke-width=".3" d="M194 253c.27.25 1 0 1 0-1.09-2.62-4.7-5.39-7-7 .59 2.74 4.02 5.14 6 7Z"/>
    <path fill="none" stroke="#F7ADA0" stroke-opacity=".13" stroke-width=".3" d="M96 257c-3.16-2.46-5.71-6.27-7-10 .65 2.83 3.21 11.43 7 10Z"/>
    <path fill="none" stroke="#828282" stroke-opacity=".22" stroke-width=".3" d="M407 255c.79-2.33 1.27-4.99 1-8 0 0-.84.23-1 0-.23 2.59.5 5.46 0 8Z"/>
    <path fill="none" stroke="#8B8B8B" stroke-opacity=".24" stroke-width=".3" d="M446 252c.23-1.25 1.76-3.27 2-5-1.63 1.32-1.85 2.89-2 5Z"/>
    <path fill="none" stroke="#4D4D4D" stroke-opacity=".21" stroke-width=".3" d="M250 249h9c-1.7-1.8-7.21-1.5-9 0Z"/>
    <path fill="none" stroke="#D6BC70" stroke-width=".3" d="M186 264c-1.13-6.04-4.95-12.74-11-15 1.94 5.51 2.91 16.25 11 15Z"/>
    <path fill="none" d="M319 262c-.59 1.85-2.69 17.24 0 14 .56-.97.7-2.91 1-4 .32-1.17.6-1.15 1-2 .47-1 .39-1.18 1-2 .35-.74.65-1.36 1-2 .69-1.94 1.37-4.69 2-7 .37-1.36.73-2.57 1-4-.76-2.21 1.52-4.27 0-6-3.17 3.52-5.52 8.38-7 13"/>
    <path fill="none" stroke="#7F7F7F" stroke-opacity=".22" stroke-width=".3" d="M394 255c.04.5 0 1 0 1 1.15-1.56 1.46-3.93 2-6h5c-4.3-2.63-7.38.01-7 5Z"/>
    <path fill="none" stroke="#BBBFBD" stroke-opacity=".1" stroke-width=".3" d="M147 261c-.94-3.84-1.35-7.18 0-11-4.03 3.08-1.25 7.74 0 11Z"/>
    <path fill="none" stroke="#7E7E7E" stroke-opacity=".31" stroke-width=".3" d="M362 257c1.63-2.01 1.81-4.26 2-7 0 0-.99-.06-1 0-.17 2.54-.6 4.58-1 7Z"/>
    <path fill="none" d="M394 256v5c1.99-.47 3.87-2.33 5-4 1.35-2.92 4.22-5.64 2-7h-5c-.54 2.07-.85 4.44-2 6"/>
    <path fill="none" stroke="#C5C5C5" stroke-opacity=".08" stroke-width=".3" d="M195 253s-.73.25-1 0c-1.54.85 2.73 2.96 4 3 1.09-2.16 3.51-3.15 3-5 0 3.43-4.49 4.2-6 2Z"/>
    <path fill="none" stroke="#828282" stroke-opacity=".34" stroke-width=".3" d="M309 263c.37-2.66 1.28-6.96 2-10-1.28 3.3-1.41 5.81-2 10Z"/>
    <path fill="none" stroke="#1E1E1E" stroke-opacity=".73" stroke-width=".3" d="M332 262c.3-2.2 1-5.16 1-8 0 0-.04-.5 0-1 0 2.03-1 6.15-1 9Z"/>
    <path fill="none" stroke="#BEBEBE" stroke-opacity=".12" stroke-width=".3" d="M370 263c3.32-2.34 9.81 1.1 12.67-2.33 2.85-3.43-4.74-6.49-6.67-7.67 1.63 1.25 7.78 4.91 5.22 7.22-2.55 2.32-9.18-.71-11.22 2.78Z"/>
    <path fill="none" stroke="#B5B5B5" stroke-opacity=".21" stroke-width=".3" d="M428 267c-.72-4.35-2.62-9.95-2-14-1.12 3.53-.89 10.44 2 14Z"/>
    <path fill="none" stroke="#A4A4A4" stroke-opacity=".15" stroke-width=".3" d="M332 262v4c1.62-2.98 3.36-8.82 1-12 0 2.84-.7 5.8-1 8Z"/>
    <path fill="none" stroke="#909090" stroke-opacity=".19" stroke-width=".3" d="M418 262c-.52-2.48-1.7-5.96-2-8 .16 3.13 1.15 5.46 2 8Z"/>
    <path fill="none" stroke="#999" stroke-opacity=".18" stroke-width=".3" d="M438 260c-.43-1.92-1.73-4.5-2-6 .26 2.82 1.28 3.84 2 6Z"/>
    <path fill="none" stroke="#4A4A4A" stroke-opacity=".47" stroke-width=".3" d="M325 259c1.14-.03 1.72-1.53 3-1 1.22-1.5-1.95-2.45-2-3-.27 1.43-.63 2.64-1 4Z"/>
    <path fill="none" stroke="#BCBCBC" stroke-opacity=".15" stroke-width=".3" d="M386 266c.28-2.87.66-7.47 1-11-.29 3.01-1 7.25-1 11Z"/>
    <path fill="none" stroke="#323232" stroke-opacity=".74" stroke-width=".3" d="M394 262c-.12-.47 0-1 0-1v-5s.04-.5 0-1c-1.39 2.03-2.4 9.52 1 10-.63-.98-.73-1.92-1-3Z"/>
    <path fill="none" stroke="#4B4A4C" stroke-opacity=".43" stroke-width=".3" d="M192 265c-.89-.48-.84-2.21-1-3-.49-2.42.13-4.37-2-6 .39 2.37.24 8.16 3 9Z"/>
    <path fill="none" stroke="#7A7A7A" stroke-opacity=".2" stroke-width=".3" d="M448 267c-1.07-3.22-1.6-8.03-2-11 0 4.59.18 7.31 2 11Z"/>
    <path fill="none" stroke="#787878" stroke-opacity=".27" stroke-width=".3" d="M394 261s-.12.53 0 1c3.94.55 3.83-2.48 5-5-1.13 1.67-3.01 3.53-5 4Z"/>
    <path fill="none" stroke="#BABABA" stroke-opacity=".13" stroke-width=".3" d="M285 267c1.03-2.43 1.48-6.09 2-9-.93 3.07-2.25 4.95-2 9Z"/>
    <path fill="none" stroke="#969696" stroke-opacity=".18" stroke-width=".3" d="M348 270c.13-.22 1 0 1 0 1.73-3.84 2.06-7.94 3-12-1.19 3.27-4.06 8.25-4 12Z"/>
    <path fill="none" stroke="#E7E7E7" stroke-opacity=".02" stroke-width=".3" d="M360 260c-.61.99-.8 1.89-1 3 1.44.06.74-1.92 2-2 .87 6.74-1.6 15.05 1 21-2.36-5.8 0-17.65 0-24-.29.55-1.65 1.44-2 2Z"/>
    <path fill="none" stroke="#AEAEAE" stroke-opacity=".13" stroke-width=".3" d="M346 269c-.13-1.69 1-6.41 1-9-.22 2.25-.77 6.07-1 9Z"/>
    <path fill="none" stroke="#777A7D" stroke-opacity=".14" stroke-width=".3" d="M192 265c.95.51 2.92-.23 4 0 .56.24-4.07-1.7-5-3 .16.79.11 2.52 1 3Z"/>
    <path fill="none" stroke="#919191" stroke-opacity=".16" stroke-width=".3" d="M319 276c-2.69 3.24-.59-12.15 0-14-.99 2.24-2.95 6.14-3 9s.47 9.41 3 5Z"/>
    <path fill="none" stroke="#929292" stroke-opacity=".09" stroke-width=".3" d="M306 272v1c.59.35 2.66-.47 3-1-.46-3.19-.38-6.22 0-9-.25 1.78-1.12 7.56-3 9Z"/>
    <path fill="none" stroke="#6B6B6B" stroke-opacity=".24" stroke-width=".3" d="M271 268c-.18-1.9-1.52-2.61-2-4 .4 1.94 1.58 2.71 2 4Z"/>
    <path fill="none" stroke="#F6AFAB" stroke-opacity=".21" stroke-width=".3" d="M81 271c-1.92-2.75-5.05-4.03-7-6 1.31 1.71 4.33 4.7 7 6Z"/>
    <path fill="none" stroke="#BBB" stroke-opacity=".12" stroke-width=".3" d="M373 274c-1.29.17-1.75 1.7-3 2v-11c-2.28 3.01-.37 8.17-1 12 2.23.62 2.79-1.99 4-3Z"/>
    <path fill="none" stroke="#F4AEA9" stroke-opacity=".18" stroke-width=".3" d="M106 278c3.78-1.13 9.7-9 12-12-1.7 1.77-4.76 3.64-6.75 5.25s-3.3 5.9-5.25 6.75Z"/>
    <path fill="none" stroke="#D5D5D5" stroke-opacity=".05" stroke-width=".3" d="M322 268c.77-1.03.53-.67 1-2-.35.64-.65 1.26-1 2Z"/>
    <path fill="none" stroke="#E8E8E8" stroke-opacity=".03" stroke-width=".3" d="M335 278c1.89-2.55 1.23-8.55 1-12-.15 3.19-1 8.03-1 12Z"/>
    <path fill="none" stroke="#AFAFAF" stroke-opacity=".14" stroke-width=".3" d="M402 274c-2.82-1.98-1.86-5.41-1-8-2.51.54-1.64 3.49-3 5 1.58.61 2.45 2.24 4 3Z"/>
    <path fill="none" stroke="#9B9B9B" stroke-opacity=".21" stroke-width=".3" d="M329 275c1.84-2.3 3.25-4.69 3-8-1.22 2.34-2.94 4.98-3 8Z"/>
    <path fill="none" stroke="#858585" stroke-opacity=".24" stroke-width=".3" d="M295 277c4.65.05 6.34-7.85 11-8-2.1-4.29-9.26 7.65-11 8Z"/>
    <path fill="none" stroke="#A1A1A1" stroke-opacity=".18" stroke-width=".3" d="M433 276c-.63-2.38-3.54-6.18-5-8 .69 4.18 3.67 5.47 5 8Z"/>
    <path fill="none" stroke="#E4C9B1" stroke-width=".3" d="M201 276c-7.13-11.46-27.23-8.12-36 0 5.27 1.35 12.25 6.39 17.99 4.99s9.91-8.33 18.01-4.99Z"/>
    <path fill="none" stroke="#C4C4C4" stroke-opacity=".13" stroke-width=".3" d="M286 276c-.34-2.69-.06-4.79-1-7-.17 2.68.55 4.96 1 7Z"/>
    <path fill="none" stroke="#383838" stroke-opacity=".59" stroke-width=".3" d="M321 270c-.4.85-.68.83-1 2 2.13 2.09 5.12-.52 5-3-1.49-.13-2.81.13-4 1Z"/>
    <path fill="none" stroke="#616161" stroke-opacity=".27" stroke-width=".3" d="M349 270s-.87-.22-1 0c-.13 1.03-1.17 1.59-2 2-.06-1 .08-2.01 0-3-1.69.96-1.43 4.97 0 6 .83-1.48 2.19-3.21 3-5Z"/>
    <path fill="none" stroke="#FBC1BF" stroke-opacity=".13" stroke-width=".3" d="M87 275c-1.52-1.59-3.01-2.76-5-4 .99 2.21 2.38 3.42 5 4Z"/>
    <path fill="none" stroke="#4F4F4F" stroke-opacity=".18" stroke-width=".3" d="M272 288c.14-.22 1 0 1 0 .56-6.23-.2-11.81-2-17 .76 5.53.48 11.24 1 17Z"/>
    <path fill="none" stroke="#A6A6A6" stroke-opacity=".15" stroke-width=".3" d="M421 278c4.4-3.03 1.8-3.7 0-7 1.02 2.91 2.23 4.87 0 7Z"/>
    <path fill="none" stroke="#6D6D6D" stroke-opacity=".44" stroke-width=".3" d="M311 280c-.76-2.38-1.7-5.9-2-8-1.57 3.53 1.24 6.46 2 8Z"/>
    <path fill="none" stroke="#ADADAD" stroke-opacity=".13" stroke-width=".3" d="M413 280c-.74-.98-8.11-5.08-10-6 1.32 1.89 2.62 2 3.75 4.25 1.14 2.25 5.16.74 6.25 1.75Z"/>
    <path fill="none" stroke="#F7B4B0" stroke-opacity=".16" stroke-width=".3" d="M95 278c-1.96-.41-4.66-2.45-7-3 2.17 1.74 4.07 2.64 7 3Z"/>
    <path fill="none" stroke="#848585" stroke-opacity=".2" stroke-width=".3" d="M163 281c-1.74-1.23-3.34-3.82-5-5-4.32-2.1 3.2 4.09 5 5Z"/>
    <path fill="none" stroke="#E7E7E7" stroke-opacity=".03" stroke-width=".3" d="M239 291c-2.95-2.07-3.56-13.16 0-15-4.4 1.6-4.94 13.71 0 15Z"/>
    <path fill="none" stroke="#9C9C9C" stroke-opacity=".1" stroke-width=".3" d="M298 284c2.95-1.91 5.39-4.91 7-8-1.49 2.14-4.79 6.31-7 8Z"/>
    <path fill="none" stroke="#B5B5B5" stroke-opacity=".1" stroke-width=".3" d="M320 286c3.98-.67 7.72-6.44 9-10-2.53 2.42-5.29 9.06-9 10Z"/>
    <path fill="none" stroke="#B7B7B7" stroke-opacity=".13" stroke-width=".3" d="M368 285c.03 0 0 1 0 1 4.54.56 10.04-6.36 11-10-1.32 3.26-7.39 8.82-11 9Z"/>
    <path fill="none" stroke="#9B9B9B" stroke-opacity=".14" stroke-width=".3" d="M394 277c5.95.75 11.99 12.61 18 7-3.42 2.21-7.75-1.37-9.77-3.23-2.02-1.85-7.06-5.47-8.23-3.77Z"/>
    <path fill="none" stroke="#C1C1C1" stroke-opacity=".12" stroke-width=".3" d="M345 286c-2.37-.52-8.46-4.59-10-7 .76 3.92 6.42 6.72 10 7Z"/>
    <path fill="none" stroke="#797979" stroke-opacity=".28" stroke-width=".3" d="M426 284c1.75-.63 6.32-3.28 7-5-1.4 1.93-5.53 2.84-7 5Z"/>
    <path fill="none" stroke="#3D3E3C" stroke-opacity=".72" stroke-width=".3" d="M232 288c0-2.46.53-5.6 0-8 .28 2.21-2.06 5.22 0 8Z"/>
    <path fill="none" stroke="#A4AAB2" stroke-width=".3" d="M227 281c-6.04.48-14.16-.65-20 0s-16.15-3.19-15 5c6.04-.48 14.16.65 20 0s16.15 3.19 15-5Z"/>
    <path fill="none" stroke="#A4A9B1" stroke-width=".3" d="M267 281c-7.55 2.31-24.6-5.23-25 5 7.55-2.31 24.6 5.23 25-5Z"/>
    <path fill="none" stroke="#828282" stroke-opacity=".18" stroke-width=".3" d="M368 286s.03-1 0-1c-1.7-.08-5.23-1.12-6-3 1.16 2.66 2.57 4.24 6 4Z"/>
    <path fill="none" stroke="#929292" stroke-opacity=".13" stroke-width=".3" d="M425 284c-2.15.05-8.84 2.2-10-1 .86 4.71 7.94 2.12 10 1Z"/>
    <path fill="none" stroke="#8B8E90" stroke-opacity=".11" stroke-width=".3" d="M186 287c-1.68-1.73-4.57-.86-7-1 1.87.27 4.42 1.05 7 1Z"/>
    <path fill="none" stroke="#CDCDCE" stroke-opacity=".09" stroke-width=".3" d="M196 292c-3.19-.96-7.05-1.42-10-4 1.75 3.87 6.22 4.26 10 4Z"/>
    <path fill="none" stroke="#F2F2F2" stroke-opacity=".02" stroke-width=".3" d="M240 291c3.74 2.77 13.3.5 18 1s13.01 1.26 15-4c0 0-.86-.22-1 0-4.05 6.47-24.85 3-32 3Z"/>
    <path fill="none" stroke="#F8F8F8" stroke-opacity=".02" stroke-width=".3" d="M198 292c5.35 0 13.98.35 19 0s12.78 2.14 15-3c-7.75 6.84-25.07-.8-34 3Z"/>
    <path fill="none" stroke="None" d="M0 500h500V0H0v500m100-372c4.41 1.25 4.46 1.65 7 5 3.72 4.11 6.79 7.16 9 13 .42 1.12.7 1.81 1 3 1.04 2.19 2.69 5.88 4 8 .71.81 1.03 1.92 1 3 1.23.42 5.48-3.45 4-1 1.3-.8 2.49-2.25 4-5 2.5-4.53 5.7-8.93 10-12 4.13-2.95 8.95-5.41 14-6 .68 2.3-2.75 5.36 0 7 .8-2.17 3.26-.76 4-2 .62-.48 5.83-3.35 7-4 1.99-1.55 3.52-4.9 7-4v6c.43 1.64 2.7 3.69 2 6 1.46-.55 2.18-2.4 4-2 1.61-.12.57.77 2 0 .1-.08-.58-1.82 2-2 1.43-.1.76.45 2 0-.31.24 3.07-5.09 5-2 .22.36-.02 1.5 0 2 .88 1.85 1.25 3.92 2 6 .52 1.09-.4 2.86 0 4h7c1.54-.25 3.78-2.89 6-2 3.13 1 1.69 3.97 2 7 .22 2.17 1.86 5.4 0 8 2.51 1.52 4.33 4.28 5 7 .05.74-.04 1.58 0 2 1.55 2.82 1.55 5.24 0 10-.1 2.17-.29 5.03 0 8 .99 3.86 2.33 4.97.23 9.23s-4.44 3.22-7.23 5.77c-2.24 2.47-1.57 3.84-2 8-.25 2.46-1.3 4.06-2 6-.5 1.39-1.01 3.97-2 6-.96 1.97-2.56 4.62-4 6-.26.25-.8.68-1 1-2.31 3.74-8.68 9.24-13 10-.96.17-3.28-2.13-2 0 3.04 5.05 8.6 5.89 11 12 .17.43 0 1 0 1 2.13 1.63 1.51 3.58 2 6 .93 1.3 5.56 3.24 5 3 5.92 1.24 9.81 4.84 11 11 7.92 1.85 22.27-4.06 25 4 .53 2.4 0 5.54 0 8v1c-2.22 5.14-9.98 2.65-15 3s-13.65 0-19 0c-.5 0-1.5-.03-2 0-3.78.26-8.25-.13-10-4-.19-.41 0-1 0-1-2.58.05-5.13-.73-7-1-6.5-.39-11.27-2.61-16-5-1.8-.91-9.32-7.1-5-5-1.61-1.14-1.49-2.2-4-1 1.35-5.25-8.38-7.27-7-14-1.25-3.26-4.03-7.92 0-11 .16-.44 0-1 0-1 1.04-2.61 2.35-5.81 1-7-.94-.53-2.39-.4-4-1-3.98-1.49-8.8-6.38-11-10-.42-.69-.68-1.28-1-2-1.11-1.4-1.44-1.07-2-3-.49-.07-1 0-1 0 0 12.71-3.22 29.84-11 40-2.3 3-8.22 10.87-12 12-2.72.82-8.16.35-11 0-2.93-.36-4.83-1.26-7-3-.47-.11-1 0-1 0-2.62-.58-4.01-1.79-5-4-.36-.22-1 0-1 0-2.67-1.3-5.69-4.29-7-6-4.09-5.34-7.56-13.48-9-20-.93-2.52-2.16-5.43-3-9-.57-2.39-.86-4.39-1-7-.21-3.79.24-9.3 0-12-.67-3.56-.53-5.49 0-9 .07-5.31 1.07-11.61 2-17 .17-2.3 0-4.69 0-7 0-4.34.83-6.58 2-10 2.46-11.65 9.93-30.49 22-34 8.43-2.45 8.47-2.25 2-8-.81-.72-1.93-1.03-3-1-.16-2.35-.55-5.92 3-5 .52-.35 3.16-2.37 4-2 .43-.38 6.57 3.82 7 4m172 19c4.46 6.82.26 20.26 1 29s.81 21.99 0 31c-.34 2.63-2.53 3.63-5 4-2.07.31-6.06-1.07-7 0 2.66 1.98-.76 5.37-1 6-.54 2.53-2.13 5.48-2 8 .13 2.55 3.09 8.95 4 12 2.7 9.02 5.09 17.78 7 27 .48 1.39 1.82 2.1 2 4 .1.99-.14 2.02 0 3 1.8 5.19 2.56 10.77 2 17-1.99 5.26-10.3 4.5-15 4s-14.26 1.77-18-1h-1c-4.94-1.29-4.4-13.4 0-15 8.24-3 19.49 2.25 28 0-3.8-8.54-5.92-17.78-8-27h-9c-5.36 4.49 2.51 16.28-8.25 19.75-10.76 3.48-14.93-7.33-10.78-15.78 4.15-8.44 4.25-15.3 7.03-23.97 1.02-3.18 1.25-8.89 4-11 .02-.5 0-1 0-1-.09-2.29.5-3.88 1-6-4.1-2.72-15.98.78-21 0-3.25-.51-5.48-1.09-6-5-.57-6.25-.05-14.92 0-21s-.69-15.71 0-21-3.02-17.43 3-19c.47-.12 1 0 1 0 7.85 0 16.2-.84 24 0s17.48-2.11 25 0c1.32.37 2.21.8 3 2m-57 86c3.6 3.02-.28 7.61-2 12-.9 2.28-2.17 4.96-3 7-.59 2.12-.87 8.91-5.03 7.97s-3.45-3.89-1.97-6.97c.94-2.67 1.99-5.57 3-8 .62-2.03 1.29-3.99 2-6 .95-2.71 2.39-5.19 3-8 1.41.15 3.34.65 4 2m170 2c5.45 2.75 1.22 5.97-3 6-1 .01-2 0-3 0-2.03.43-4.78 2.06-7 3-.56 1.37 1.06 5.93 0 8 1.56-.41 2.69.46 4 1 1.93 1.18 9.52 4.24 6.67 7.67-2.86 3.43-9.35-.01-12.67 2.33-.22.37 0 1.5 0 2v11c1.25-.3 1.71-1.83 3-2 .98-.82 2.46-1.28 2-3 3.38-1.19 6.58 2.09 4 5-.96 3.64-6.46 10.56-11 10-3.43.24-4.84-1.34-6-4-2.6-5.95-.13-14.26-1-21-1.26.08-.56 2.06-2 2-1.36 7.58-3.6 23.83-14 23-3.58-.28-9.24-3.08-10-7-.09-.48 0-1 0-1 0-3.97.85-8.81 1-12-.27-4.12.27-8.11 0-13-.24-4.31-2.06-9.23 1-13v-1c.64-5.43 8.17-2.13 11-1 .43.17 1 0 1 0 2.66.2 4.21 1.28 6 3 .26.25.75.74 1 1 3.32 1.89 3.61 5.52 4 9 .26 2.36.55 6.13 0 9 .35-.56 1.71-1.45 2-2v-1c.4-2.42.83-4.46 1-7 .23-3.33.11-6.27 1-9 1.28-3.93 2.75-5.43 7-6 3.95-.53 10.55-1.74 14 0m-188 11c1.09 1.4 3.54 3.32 4 5 .51 1.85-1.91 2.84-3 5-1.27-.04-5.54-2.15-4-3-1.98-1.86-5.41-4.26-6-7-.1-.48 0-1 0-1 1.41-2.89 6.17-7.62 9-9 .4-.2 1 0 1 0 1.84.9 4.01 2.87 4 5-1.93 1.26-3.91 3-5 5m26-9c6.76 2.5 9.2 8.72 4 13-1.76 1.45-3.37 4.4-5 5-5.71 2.1-5.9-7.85 0-9-.93-2.76-7.16-5.07-4-8 1.52-2.02 3.05-1.72 5-1m103 0c.5.04 1 0 1 0 2.53.91 6.94 6.91 4 6-.46-.14-1 0-1 0 .3 2.02 1.34 4.05 2 6 .5 1.49 1.13 2.25 1 4-.04.5 0 1 0 1 2.36 3.18.62 9.02-1 12v1c.25 3.31-1.16 5.7-3 8-.01.5 0 1 0 1-1.28 3.56-5.02 9.33-9 10-5.28.89-7.7-1.96-9-6-.76-1.54-3.57-4.47-2-8-.34.53-2.41 1.35-3 1-.01 1.17-.48 1.99-1 3-1.61 3.09-4.05 6.09-7 8-6.89 4.46-10.38-.7-12-8-.45-2.04-1.17-4.32-1-7 .03-.5.03-1.5 0-2-.25-4.05 1.07-5.93 2-9 .57-3.16.52-4.22 2-7 1.68-4.23 10.27-20.77 17-12 .24.31-.18 1.58 0 2 1.55 3.58-1.92 2.19-4 4-1.53 1.34-3.23 5.43-4 7-1.63 3.32-3.01 9.2-4.31 12.69-1.29 3.5-1.2 12.28 1.31 12.31 1.74-.35 8.9-12.29 11-8 .29.6 0 2.32 0 3 1.88-1.44 2.75-7.22 3-9 .59-4.19.72-6.7 2-10 .82-3.47 1.95-6.93 4-10 2.12-3.19 7.45-8.85 11-6m101 1c3.92.76 2.57 1.09 6 2-3.37 4.01-5.15 8.26-7 13-.62 4.05 1.28 9.65 2 14 .08.49 0 1 0 1 1.46 1.82 4.37 5.62 5 8 .14.52.2 2.51 0 3-.68 1.72-5.25 4.37-7 5-.44.16-1 0-1 0-2.06 1.12-9.14 3.71-10-1-.71-3.89 4.36-3.87 6-5 2.23-2.13 1.02-4.09 0-7-1.08-3.06-2.32-5.78-3-9-.85-2.54-1.84-4.87-2-8-.08-1.64-.06-3.35 0-5 .26-7.57 3.85-12.39 11-11m21 8c-.1.48 0 1 0 1-.24 1.73-1.77 3.75-2 5-.1 1.32 0 2.68 0 4 .4 2.97.93 7.78 2 11 4.14 8.38 8.76 12.15-2.08 16.92-10.83 4.78-13.81-5.41-1.92-7.92-2.78-5.34-5.59-10.21-6-16-.72-2.16-1.74-3.18-2-6-.77-8.42 1.27-14.59 8-16 7.06-1.48 11.35 2.86 4 8m-53-4c.98-.1 2.01.03 3 0 3.76-.1 9.18.45 10 5 .27 3.01-.21 5.67-1 8-1.34 3.96-3.88 7.55-6 11-.86 2.59-1.82 6.02 1 8 .4.2 1 0 1 0 1.89.92 9.26 5.02 10 6 1.16 1.54.45 2.65-1 4-6.01 5.61-12.05-6.25-18-7-2.23 3.23 4.69 8.54-3.08 8.92S386 271.91 386 266c0-3.75.71-7.99 1-11 .32-3.3-.3-6.69 0-10 .64-3.64 5.64-2.75 8-3Z"/>
    <path fill="#EA7A7D" fill-opacity=".45" stroke="None" d="M89 126c-.96.4 1.49 3.44 2.23 1.21.74-2.24 1.08-1.39 2.77-1.21-.22-.23-.86-1.94-1-2-.84-.37-3.48 1.65-4 2Z"/>
    <path fill="#FBBDBD" fill-opacity=".13" stroke="None" d="M94 126c1.61 1.64 4.03 1.44 6 2-.43-.18-6.57-4.38-7-4 .14.06.78 1.77 1 2Z"/>
    <path fill="#FA5C5C" fill-opacity=".95" stroke="None" d="M89 126c-3.55-.92-3.16 2.65-3 5 1.07-.03 2.19.28 3 1 7.69 5.33 8.05 6.13-2 8-12.07 3.51-19.54 22.35-22 34-.63 3-1.75 7.41-2 10 0 2.31.17 4.7 0 7-.42 5.54-1.17 11.46-2 17-.53 3.51-.67 5.44 0 9 .81 4.3.16 8.26 0 12 .14 2.61.43 4.61 1 7 1.17 3.17 2.19 5.34 3 9 1.44 6.52 4.91 14.66 9 20 1.95 1.97 5.08 3.25 7 6 0 0 .64-.22 1 0 1.99 1.24 3.48 2.41 5 4 0 0 .53-.11 1 0 2.34.55 5.04 2.59 7 3 2.84.35 8.28.82 11 0 1.95-.85 3.26-5.14 5.25-6.75s5.05-3.48 6.75-5.25c7.78-10.16 11-27.29 11-40v-2c0-8.95.49-18.06 0-27-.31-5.66-1.02-11.43-2-17-.75-4.26-1.55-8.93-3-13-.82-2.31-2.72-3.57-1-6 .54-.76 2.23-1.53 3-2 1.48-2.45-2.77 1.42-4 1 .03-1.08-.29-2.19-1-3-2.3-2.62-3.14-4.6-4-8-.3-1.19-.58-1.88-1-3-2.5-4.56-5.73-8.69-9-13-2.54-3.35-2.59-3.75-7-5-1.97-.56-4.39-.36-6-2-1.69-.18-2.03-1.03-2.77 1.21-.74 2.23-3.19-.81-2.23-1.21m21 58c.48 2.33 1 5.05 1 8 0 19.38-3.69 35.07-8 53-.89 3.73-1.54 2.73-3 5-.93 1.95-1.43 6.03-4 7-3.79 1.43-6.35-7.17-7-10-4.73-20.64-4.72-39.33-3-61 .22-2.8 1.19-5.71 2-8 1.49-4.19 1.11-7.64 2-12 1.02-4.99 4.56-9.1 7-13 1.02-2.19 1.29-5.35 3-7 4.47 12.27 7.75 24.99 10 38Z"/>
    <path fill="#F6B2B1" fill-opacity=".18" stroke="None" d="M87 140c10.05-1.87 9.69-2.67 2-8 6.47 5.75 6.43 5.55-2 8Z"/>
    <path fill="#F7A4A4" fill-opacity=".19" stroke="None" d="M116 146c-2.21-5.84-5.28-8.89-9-13 3.27 4.31 6.5 8.44 9 13Z"/>
    <path fill="#090605" fill-opacity=".96" stroke="None" d="M165 137c-1.81 1.41-4.99 2.99-7 4-.74 1.24-3.2-.17-4 2-2.75-1.64.68-4.7 0-7-5.05.59-9.87 3.05-14 6-3.58 3-7.5 8.39-10 12-1.51 2.75-2.7 4.2-4 5-.77.47-2.46 1.24-3 2-.88 2.2 1.42 3.6 2 5 1.65-1.05 3.49-1.75 5-3 2.03 3.04 4 5.98 6 9-3.87 1.36-6.55 5.21-9 8 .98 5.57 1.69 11.34 2 17 1.16 7.13 2.93 20.12 0 27v2s.51-.07 1 0c1.81.24 1.5 1.88 2 3 .32.72.58 1.31 1 2 2.35 2.57 8.19 8.59 11 10 1.61.6 3.06.47 4 1 .96.53 1.8 1.18 3 1-.15 2.47-2.79 4.24-4 6 0 0 .16.56 0 1-1.35 3.82-.94 7.16 0 11-1.38 6.73 8.35 8.75 7 14 2.51-1.2 2.39-.14 4 1 1.66 1.18 3.26 3.77 5 5 4.73 2.39 9.5 4.61 16 5 2.43.14 5.32-.73 7 1 0 0-.19.59 0 1 2.95 2.58 6.81 3.04 10 4 .5-.03 1.5 0 2 0 8.93-3.8 26.25 3.84 34-3v-1c-2.06-2.78.28-5.79 0-8-2.73-8.06-17.08-2.15-25-4-1.19-6.16-5.08-9.76-11-11-1.08-.23-3.05.51-4 0-2.76-.84-2.61-6.63-3-9 0 0 .17-.57 0-1-3.03-2.9-9.66-7.61-11-12-1.28-2.13 1.04.17 2 0 3-1.05 9.63-7.37 13-10 .2-.32.74-.75 1-1 .78-3.51 2.23-3.38 4-6 .99-2.03 1.5-4.61 2-6 .42-1.88 1.74-4.64 2-6 .43-4.16-.24-5.53 2-8 5.29-5.83 7.86-6.13 7-15-.29-2.97-.1-5.83 0-8 .04-.99 0-2 0-3v-4c0-.98.09-2.02 0-3-.04-.42.05-1.26 0-2-.48-1.87-4.54-4.62-6-6 .21-3.01 1.56-5.77 1-9-.31-3.03 1.13-6-2-7 .36.11-5.22 1.94-6 2h-7c-.4-1.14.52-2.91 0-4-.92-1.93-1.9-3.48-2-6-.02-.5.22-1.64 0-2-1.18-.64-3.9 1.61-5 2-1.24.45-.57-.1-2 0-.47.19-1.32 1.64-2 2-1.43.77-.39-.12-2 0-1.39.45-2.33 4.71-5 3 .67-2.61-1.34-4.45-1-7v-6c-3.48-.9-5.01 2.45-7 4m2 5c.68 3.64 2.4 7.05 2 11 5.88-.23 10.09-5.77 16-6-1.95 12.09 7.11 11.41 16 9-.73 13.43-10.18 15.77-22 14s-26.88 1.32-39 0c-10.35-9.24-2.07-21.76 9-26-1.71 14.37 11.48-1.63 18-2m36 27c3.87 3.86 5.82 16.6-2 16 .79-4.68-3.95-7.13-5-11 2.91-.75 4.51-3.61 7-5m-7 16c-9.62 1.58-30.03-5.56-29 10-8.48 2.8-4.34-9.43-12.22-9.78-7.88-.34-14.95-.21-22.78-.22 2.67-13.88 21.05-9.85 32-10s28.78-3.37 32 10m-40 25c-7.98-4.13-23.23 7.62-25-5-1.76-12.62 1.96-15.35 15-15s10.13 8.15 10 20m40-18c1.82 2.44 2.23 14.77 0 17-2.81 2.81-19.28 1.17-23 1s-3.98-19.23.25-19.75 19.79-2.23 22.75 1.75m6 8v-10c5.51-.03 5.52 10.03 0 10m-36 1c1.93 1.93.55 5.36 1 8 1 3.29 1.42 4.65 5 6 4.24.97 8.64-.68 13 0s9.74-1.68 10 2c.58 8.1-11.1 16.88-17.08 19.92-5.97 3.05-9.63 3.91-14.92 4.08-5.29.16-10.44-2.34-14.08-3.92-3.63-1.59-8.98-5.77-10.67-8.33-1.69-2.55-7.57-10.59-6.25-12.75 1.69-2.75 7.89-.28 11-1s8.68.59 12 0c2.85-.9 7.49-3.11 6-7-1.49-3.9 1.19-10.81 5-7m9 64c-7.87 3.79-14.64 8.32-20.25.25-5.61-8.08-4.24-18.7 6.25-19.25 10.5-.55 10.99 12.21 14 19m11-1c-8.09 1.25-9.06-9.49-11-15 6.05 2.26 9.87 8.96 11 15m15 12c-8.1-3.34-12.27 3.59-18.01 4.99S170.27 277.35 165 276c8.77-8.12 28.87-11.46 36 0m26 5c1.15 8.19-9.16 4.35-15 5s-13.96-.48-20 0c-1.15-8.19 9.16-4.35 15-5s13.96.48 20 0Z"/>
    <path fill="#757776" fill-opacity=".25" stroke="None" d="M158 141c2.01-1.01 5.19-2.59 7-4-1.17.65-6.38 3.52-7 4Z"/>
    <path fill="#818181" fill-opacity=".16" stroke="None" d="M184 141c1.1-.39 3.82-2.64 5-2-1.93-3.09-5.31 2.24-5 2Z"/>
    <path fill="#6E7370" fill-opacity=".22" stroke="None" d="M178 143c-1.82-.4-2.54 1.45-4 2 .7-2.31-1.57-4.36-2-6-.34 2.55 1.67 4.39 1 7 2.67 1.71 3.61-2.55 5-3Z"/>
    <path fill="#818181" fill-opacity=".14" stroke="None" d="M180 143c.68-.36 1.53-1.81 2-2-2.58.18-1.9 1.92-2 2Z"/>
    <path fill="#ADADAD" fill-opacity=".11" stroke="None" d="M191 147c-.75-2.08-1.12-4.15-2-6 .1 2.52 1.08 4.07 2 6Z"/>
    <path fill="#9C9B99" fill-opacity=".11" stroke="None" d="M130 154c2.5-3.61 6.42-9 10-12-4.3 3.07-7.5 7.47-10 12Z"/>
    <path fill="#AD7647" stroke="None" d="M167 142c-6.52.37-19.71 16.37-18 2-11.07 4.24-19.35 16.76-9 26 12.12 1.32 27.18-1.77 39 0s21.27-.57 22-14c-8.89 2.41-17.95 3.09-16-9-5.91.23-10.12 5.77-16 6 .4-3.95-1.32-7.36-2-11Z"/>
    <path fill="#30302F" fill-opacity=".23" stroke="None" d="M216 206c0 .04 1 0 1 0 .59-6.51-.61-14.64 0-21s-1.04-15.21 0-21-3.06-15.45 2-19c-6.02 1.57-2.31 13.71-3 19s.05 14.92 0 21-.57 14.75 0 21Z"/>
    <path fill="#030404" fill-opacity=".95" stroke="None" d="M217 206c.41 2.49 2.85 4.5 5 5 5.02.78 16.9-2.72 21 0 2 1.33.03 4.72-1 6 0 0 .02.5 0 1-.16 4.19-2.44 7.6-4 11-2.78 8.67-2.88 15.53-7.03 23.97-4.15 8.45.02 19.26 10.78 15.78 10.76-3.47 2.89-15.26 8.25-19.75 1.79-1.5 7.3-1.8 9 0 2.08 9.22 4.2 18.46 8 27-8.51 2.25-19.76-3-28 0-3.56 1.84-2.95 12.93 0 15h1c7.15 0 27.95 3.47 32-3-.52-5.76-.24-11.47-1-17-.14-.98.1-2.01 0-3-.42-1.29-1.6-2.06-2-4-1.91-9.22-4.3-17.98-7-27-1.35-3.31-4.13-8.01-4-12-.13-2.52 1.46-5.47 2-8 .25-1.18.26-5.15 1-6 .94-1.07 4.93.31 7 0 1.32-.38 2.96-3.03 4-4-.85-9.42 1.66-20.82 0-30s3.58-21.61 0-30c-.79-1.2-1.68-1.63-3-2-6.32-1.14-16.84 3.06-24 1s-19.13 3.35-25-1c0 0-.53-.12-1 0-5.06 3.55-.96 13.21-2 19s.61 14.64 0 21 .59 14.49 0 21m20-50c-.25.26 0 1 0 1 4.19 5.19-9.14 5.62-6-1-3.75-1.36-2.08 2.93-4 4-.03.12-1 0-1 0-5.49 4.4-8.44-9.81-2.92-10.92 5.53-1.1 14.8.41 20.92-.08s13.7.28 20 0 6.06 13.27-1 12c-7.07-1.28-13.95.96-21 0-1.25-2.59-.7-6.26-5-5m10 48c-1.61 3.26-8.86 2.28-12 2s-11.2 1.57-13-1c-3.13-4.47 1.63-14.48 0-20s1.23-14.19 0-20h25v39m20-39v41c-6.73 1.84-7.65-8.52-15-6v-35h15m-10 41c-2.77 9.45-5.07 22.16-8.93 31.07-3.86 8.92-2.98 26.69-14.07 24.93 4.25-9.11 5.07-20.98 8.99-30.01 3.93-9.03 3.43-25.04 14.01-25.99m-1 31c.46 1.49.8 2.35 1 4 .84.82 1.22 1.6 1 3-1.7.09-7.9.47-6-2-.04-1.2.62-3.82 1-5 .42-1.29.8-2.6 1-4 2.53-.63 1.9 2.53 2 4m11 44c-.4 10.23-17.45 2.69-25 5 .4-10.23 17.45-2.69 25-5Z"/>
    <path fill="#2F2F2F" fill-opacity=".81" stroke="None" d="M269 145c-7.52-2.11-17.2.84-25 0s-16.15 0-24 0c5.87 4.35 17.84-1.06 25 1s17.68-2.14 24-1Z"/>
    <path fill="none" stroke="None" d="M97 153c-1.84 3.94-5.96 9.31-7 13-.89 4.36-.51 7.81-2 12-.5 2.7-1.63 6.17-2 8-1.72 21.67-1.73 40.36 3 61 1.29 3.73 3.84 7.54 7 10 2.57-.97 3.07-5.05 4-7 .83-1.74 2.45-3.45 3-5 4.31-17.93 8-33.62 8-53-.19-1.96-.77-5.44-1-8-2.25-13.01-5.53-25.73-10-38-1.71 1.65-1.98 4.81-3 7Z"/>
    <path fill="#383838" fill-opacity=".2" stroke="None" d="M272 207c.27-.25 1 0 1 0 .81-9.01.74-22.26 0-31s3.46-22.18-1-29c3.58 8.39-1.66 20.82 0 30s-.85 20.58 0 30Z"/>
    <path fill="#F9B6B6" fill-opacity=".16" stroke="None" d="M121 157c-1.31-2.12-2.96-5.81-4-8 .86 3.4 1.7 5.38 4 8Z"/>
    <path fill="#7D7E7F" fill-opacity=".22" stroke="None" d="M198 151c.78-.06 6.36-1.89 6-2-2.22-.89-4.46 1.75-6 2Z"/>
    <path fill="#19280A" stroke="None" d="M226 160c-1.27.27-2.71-.21-4 0v-10h45v10h-25c1.64-3.68-2.29-7.06-5-4 4.3-1.26 3.75 2.41 5 5 7.05.96 13.93-1.28 21 0 7.06 1.27 7.3-12.28 1-12s-13.88-.49-20 0-15.39-1.02-20.92.08c-5.52 1.11-2.57 15.32 2.92 10.92Z"/>
    <path fill="#B0D481" stroke="None" d="M226 160s.97.12 1 0c-.29-1.62.22-3.37 0-5 3.89-1.1 5.97 1.15 5 5 2.35.16 5.92.55 5-3 0 0-.25-.74 0-1 2.71-3.06 6.64.32 5 4h25v-10h-45v10c1.29-.21 2.73.27 4 0Z"/>
    <path fill="#F7B8B7" fill-opacity=".11" stroke="None" d="M90 166c1.04-3.69 5.16-9.06 7-13-2.44 3.9-5.98 8.01-7 13Z"/>
    <path fill="#182707" stroke="None" d="M227 160c1.92-1.07.25-5.36 4-4-3.14 6.62 10.19 6.19 6 1 .92 3.55-2.65 3.16-5 3 .97-3.85-1.11-6.1-5-5 .22 1.63-.29 3.38 0 5Z"/>
    <path fill="#747777" fill-opacity=".25" stroke="None" d="M211 171c-.67-2.72-2.49-5.48-5-7 1.86-2.6.22-5.83 0-8 .56 3.23-.79 5.99-1 9 1.46 1.38 5.52 4.13 6 6Z"/>
    <path fill="#51110C" fill-opacity=".9" stroke="None" d="M124 167c.04-.22.73-.83 1-1-.58-1.4-2.88-2.8-2-5-1.72 2.43.18 3.69 1 6Z"/>
    <path fill="#AA7249" stroke="None" d="M125 166c-.27.17-.96.78-1 1 1.45 4.07 2.25 8.74 3 13 2.45-2.79 5.13-6.64 9-8-2-3.02-3.97-5.96-6-9-1.51 1.25-3.35 1.95-5 3Z"/>
    <path fill="#DEE0E4" stroke="None" d="M222 205c3.58-.59 9.67.79 13 0s9.91 1.96 12-1v-39h-25c1.23 5.81-1.63 14.48 0 20s-3.13 15.53 0 20m20-35c1.76 8.66-10 3.7-15 5-1.76-8.66 10-3.7 15-5m0 10c1.76 8.66-10 3.7-15 5-1.76-8.66 10-3.7 15-5m0 15h-15c-2.73-7.68 16.95-7.68 15 0Z"/>
    <path fill="#DBDDE1" stroke="None" d="M267 165h-15v35c7.35-2.52 8.27 7.84 15 6v-41m-5 5c2.23 2.23-1.92 7.4-4.67 4.67-2.76-2.74 2.47-6.87 4.67-4.67m0 10c2.23 2.23-1.92 7.4-4.67 4.67-2.76-2.74 2.47-6.87 4.67-4.67m0 10c2.23 2.23-1.92 7.4-4.67 4.67-2.76-2.74 2.47-6.87 4.67-4.67Z"/>
    <path fill="#A5734A" stroke="None" d="M203 169c-2.49 1.39-4.09 4.25-7 5 1.05 3.87 5.79 6.32 5 11 7.82.6 5.87-12.14 2-16Z"/>
    <path fill="#0A0E14" stroke="None" d="M242 170c-5 1.3-16.76-3.66-15 5 5-1.3 16.76 3.66 15-5Z"/>
    <path fill="#101319" stroke="None" d="M262 170c-2.2-2.2-7.43 1.93-4.67 4.67 2.75 2.73 6.9-2.44 4.67-4.67Z"/>
    <path fill="#868685" fill-opacity=".22" stroke="None" d="M211 173c.09.98 0 2.02 0 3 .33 1.78.32 2.27 0 4 0 1 .04 2.01 0 3 1.55-4.76 1.55-7.18 0-10Z"/>
    <path fill="#F3B7B6" fill-opacity=".12" stroke="None" d="M63 184c.25-2.59 1.37-7 2-10-1.17 3.42-2 5.66-2 10Z"/>
    <path fill="#E6CAB1" stroke="None" d="M196 185c-3.22-13.37-21.05-10.15-32-10s-29.33-3.88-32 10c7.83.01 14.9-.12 22.78.22 7.88.35 3.74 12.58 12.22 9.78-1.03-15.56 19.38-8.42 29-10Z"/>
    <path fill="#020202" fill-opacity=".68" stroke="None" d="M211 180c.32-1.73.33-2.22 0-4z"/>
    <path fill="#EA8785" fill-opacity=".27" stroke="None" d="M86 186c.37-1.83 1.5-5.3 2-8-.81 2.29-1.78 5.2-2 8Z"/>
    <path fill="#0D1110" stroke="None" d="M242 180c-5 1.3-16.76-3.66-15 5 5-1.3 16.76 3.66 15-5Z"/>
    <path fill="#11151C" stroke="None" d="M262 180c-2.2-2.2-7.43 1.93-4.67 4.67 2.75 2.73 6.9-2.44 4.67-4.67Z"/>
    <path fill="#FAB3B3" fill-opacity=".18" stroke="None" d="M111 192c0-2.95-.52-5.67-1-8 .23 2.56.81 6.04 1 8Z"/>
    <path fill="#6AC8E1" stroke="None" d="M156 210c.13-11.85 3.04-19.65-10-20s-16.76 2.38-15 15c1.77 12.62 17.02.87 25 5m-7-6c-4.4-9.04-10.06 2.48-15-2 .63-12.05 26.25-5.15 15 2Z"/>
    <path fill="#6AC8E0" stroke="None" d="M196 209c1.05-1.5.87-15.3 0-17-2.96-3.98-18.52-2.27-22.75-1.75s-3.97 19.58-.25 19.75 20.19 1.81 23-1m-2-7c-5.55 5.05-7.78-5.64-13.25-.25-5.46 5.4-6.75-3.9-.67-5.67 6.09-1.76 10.97.32 13.92 5.92Z"/>
    <path fill="#DDC2AF" stroke="None" d="M202 200c5.52.03 5.51-10.03 0-10z"/>
    <path fill="#080D0F" stroke="None" d="M242 195c1.95-7.68-17.73-7.68-15 0z"/>
    <path fill="#0E1219" stroke="None" d="M262 190c-2.2-2.2-7.43 1.93-4.67 4.67 2.75 2.73 6.9-2.44 4.67-4.67Z"/>
    <path fill="#EE9898" fill-opacity=".19" stroke="None" d="M61 208c.83-5.54 1.58-11.46 2-17-.93 5.39-1.93 11.69-2 17Z"/>
    <path fill="#8F8F8F" fill-opacity=".15" stroke="None" d="M204 206c2.79-2.55 5.13-1.51 7.23-5.77s.76-5.37-.23-9.23c.86 8.87-1.71 9.17-7 15Z"/>
    <path fill="#386975" stroke="None" d="M196 209c2.23-2.23 1.82-14.56 0-17 .87 1.7 1.05 15.5 0 17Z"/>
    <path fill="#03121B" stroke="None" d="M149 204c11.25-7.15-14.37-14.05-15-2 4.94 4.48 10.6-7.04 15 2Z"/>
    <path fill="#02121A" stroke="None" d="M194 202c-2.95-5.6-7.83-7.68-13.92-5.92-6.08 1.77-4.79 11.07.67 5.67 5.47-5.39 7.7 5.3 13.25.25Z"/>
    <path fill="#882F30" fill-opacity=".99" stroke="None" d="M129 224c2.93-6.88 1.16-19.87 0-27 .49 8.94 0 18.05 0 27Z"/>
    <path fill="#E8CBB2" stroke="None" d="M155 215c-6.8 2.15-15.46.47-23 1-1.32 2.16 4.56 10.2 6.25 12.75 1.69 2.56 7.04 6.74 10.67 8.33 3.64 1.58 8.79 4.08 14.08 3.92 5.29-.17 8.95-1.03 14.92-4.08 5.98-3.04 17.66-11.82 17.08-19.92-1.59-2.54-7.74-.77-11-1s-9.08.1-12-1c-3.58-1.35-4-2.71-5-6-.42-1.38-.21-6.8-1-8-3.81-3.81-6.49 3.1-5 7 1.49 3.89-3.15 6.1-6 7m15 15c-4.06 1-9.26 1.33-14 1v-5c2.76-2.87 10.19-.16 14-1 1.49-.55 3.58-.97 4-3 7.61 1.41.74 8.87-4 8Z"/>
    <path fill="#786459" stroke="None" d="M167 209c-.45-2.64.93-6.07-1-8 .79 1.2.58 6.62 1 8Z"/>
    <path fill="#818285" stroke="None" d="M222 205c1.8 2.57 9.86.72 13 1s10.39 1.26 12-2c-2.09 2.96-8.67.21-12 1s-9.42-.59-13 0Z"/>
    <path fill="#A6A6A6" fill-opacity=".18" stroke="None" d="M222 211c-2.15-.5-4.59-2.51-5-5 0 0-1 .04-1 0 .52 3.91 2.75 4.49 6 5Z"/>
    <path fill="#C1C4CB" stroke="None" d="M257 206c-10.58.95-10.08 16.96-14.01 25.99-3.92 9.03-4.74 20.9-8.99 30.01 11.09 1.76 10.21-16.01 14.07-24.93 3.86-8.91 6.16-21.62 8.93-31.07Z"/>
    <path fill="#989898" fill-opacity=".22" stroke="None" d="M268 211c2.47-.37 4.66-1.37 5-4 0 0-.73-.25-1 0-1.04.97-2.68 3.62-4 4Z"/>
    <path fill="#AAA9AA" fill-opacity=".15" stroke="None" d="M242 217c1.03-1.28 3-4.67 1-6-.5 2.12-1.09 3.71-1 6Z"/>
    <path fill="#C5C5C5" fill-opacity=".1" stroke="None" d="M260 217c.24-.63 3.66-4.02 1-6-.74.85-.75 4.82-1 6Z"/>
    <path fill="#999F9F" fill-opacity=".19" stroke="None" d="M200 220c.7-1.94 1.75-3.54 2-6-.26 1.36-1.58 4.12-2 6Z"/>
    <path fill="#665D4F" stroke="None" d="M132 216c7.54-.53 16.2 1.15 23-1-3.32.59-8.89-.72-12 0s-9.31-1.75-11 1Z"/>
    <path fill="#675D4C" stroke="None" d="M195 217c-.26-3.68-5.64-1.32-10-2s-8.76.97-13 0c2.92 1.1 8.74.77 12 1s9.41-1.54 11 1Z"/>
    <path fill="#E38887" fill-opacity=".37" stroke="None" d="M61 229c.16-3.74.81-7.7 0-12 .24 2.7-.21 8.21 0 12Z"/>
    <path fill="#A3A3A2" fill-opacity=".16" stroke="None" d="M238 229c1.56-3.4 3.84-6.81 4-11-2.75 2.11-2.98 7.82-4 11Z"/>
    <path fill="#060201" stroke="None" d="M170 225c-3.75 1.38-8.58 1-13 1-.21 1.3.16 2.69 0 4h13c4.74.87 11.61-6.59 4-8-.42 2.03-2.51 2.45-4 3Z"/>
    <path fill="#8E7966" stroke="None" d="M156 226c.04-.14 1 0 1 0 4.42 0 9.25.38 13-1-3.81.84-11.24-1.87-14 1Z"/>
    <path fill="#C5C5C5" fill-opacity=".12" stroke="None" d="M262 237c-.91-3.05-3.87-9.45-4-12-.13 3.99 2.65 8.69 4 12Z"/>
    <path fill="#A09996" fill-opacity=".16" stroke="None" d="M132 229c-.5-1.12-.19-2.76-2-3 .56 1.93.89 1.6 2 3Z"/>
    <path fill="#605041" stroke="None" d="M170 230h-13c.16-1.31-.21-2.7 0-4 0 0-.96-.14-1 0v5c4.74.33 9.94 0 14-1Z"/>
    <path fill="#8A8A8A" fill-opacity=".21" stroke="None" d="M194 232c1.44-1.38 3.04-4.03 4-6-1.77 2.62-3.22 2.49-4 6Z"/>
    <path fill="#6D7073" fill-opacity=".27" stroke="None" d="M144 241c-2.81-1.41-8.65-7.43-11-10 2.2 3.62 7.02 8.51 11 10Z"/>
    <path fill="#B9B9B9" fill-opacity=".13" stroke="None" d="M208 239c1.03-2.1 3.42-4.26 4-7 1.12.02 2.33 2.97 3 1-.66-1.35-2.59-1.85-4-2-.61 2.81-2.05 5.29-3 8Z"/>
    <path fill="#111" fill-opacity=".76" stroke="None" d="M208 239c-.71 2.01-1.38 3.97-2 6-.87 2.87-1.79 5.48-3 8-1.48 3.08-2.19 6.03 1.97 6.97s4.44-5.85 5.03-7.97c.89-3.19 1.46-4.3 3-7 1.72-4.39 5.6-8.98 2-12-.67 1.97-1.88-.98-3-1-.58 2.74-2.97 4.9-4 7Z"/>
    <path fill="#868887" fill-opacity=".21" stroke="None" d="M180 243c4.32-.76 10.69-6.26 13-10-3.37 2.63-10 8.95-13 10Z"/>
    <path fill="#040506" fill-opacity=".24" stroke="None" d="M253 237c-.12.58 1.51 3.69 0 5h4c.24-.31 0-1 0-1-2.04-1.73-.76-2.77-1-4-.1-1.47.53-4.63-2-4-.2 1.4-.58 2.71-1 4Z"/>
    <path fill="#222" fill-opacity=".91" stroke="None" d="M371 235c-2.16.48-6.39 3.9-7 6-.77 2.63.19 6.25 0 9-.19 2.74-.37 4.99-2 7v1c0 6.35-2.36 18.2 0 24 .77 1.88 4.3 2.92 6 3 3.61-.18 9.68-5.74 11-9 2.58-2.91-.62-6.19-4-5 .46 1.72-1.02 2.18-2 3-1.21 1.01-1.77 3.62-4 3 .63-3.83-1.28-8.99 1-12 0-.5-.22-1.63 0-2 2.04-3.49 8.67-.46 11.22-2.78 2.56-2.31-3.59-5.97-5.22-7.22-1.31-.54-2.44-1.41-4-1 1.06-2.07-.56-6.63 0-8 1.26-3.09 3.53-3.01 7-3 1 0 2 .01 3 0 1.22-.21 3.44-1.6 5-2 .55-1.82-1.75-2.47-2-4-3.45-1.74-10.05-.53-14 0Z"/>
    <path fill="#ABABAB" fill-opacity=".14" stroke="None" d="M364 241c.61-2.1 4.84-5.52 7-6-4.25.57-5.72 2.07-7 6Z"/>
    <path fill="#BCBCBC" fill-opacity=".1" stroke="None" d="M382 241c4.22-.03 8.45-3.25 3-6 .25 1.53 2.55 2.18 2 4-1.56.4-3.78 1.79-5 2Z"/>
    <path fill="#FAA8A8" fill-opacity=".25" stroke="None" d="M65 245c-.81-3.66-1.83-5.83-3-9 .84 3.57 2.07 6.48 3 9Z"/>
    <path fill="#9E9E9D" fill-opacity=".1" stroke="None" d="M188 245c3.28-2.3 5.77-5.74 9-8-.2-.1 0-1 0-1-2.83 1.38-7.59 6.11-9 9Z"/>
    <path fill="#434343" fill-opacity=".41" stroke="None" d="M197 237c1.13.55 1.81 1.64 3 2 .27 2.75-3.29 3.68-4 6 1.07-1.51 3.71-2.75 5-4 .45-2.31-2.53-3.07-3-5 0 0-.6-.2-1 0 0 0-.2.9 0 1Z"/>
    <path fill="#D6D6D6" fill-opacity=".02" stroke="None" d="M196 245c-.06.29.79.73 1 1 1.09-2 3.07-3.74 5-5 .01-2.13-2.16-4.1-4-5 .47 1.93 3.45 2.69 3 5-1.29 1.25-3.93 2.49-5 4Z"/>
    <path fill="#404040" fill-opacity=".28" stroke="None" d="M218 238c-.24.32 0 1 0 1 4.86-4.94 7.73 4.29 12 6-.1-1.25-5.99-7.52-7-8-1.95-.72-3.48-1.02-5 1Z"/>
    <path fill="#CACACA" fill-opacity=".06" stroke="None" d="M315 243c2.34-2.99 7.2-6.34 11-6-3.55-2.85-8.88 2.81-11 6Z"/>
    <path fill="#969696" fill-opacity=".18" stroke="None" d="M337 239c3.27-4.68 8.59.7 11-1-2.83-1.13-10.36-4.43-11 1Z"/>
    <path fill="#010101" fill-opacity=".89" stroke="None" d="M188 245s-.1.52 0 1c2.3 1.61 5.91 4.38 7 7 1.51 2.2 6 1.43 6-2-.46-1.68-2.91-3.6-4-5-.21-.27-1.06-.71-1-1 .71-2.32 4.27-3.25 4-6-1.19-.36-1.87-1.45-3-2-3.23 2.26-5.72 5.7-9 8Z"/>
    <path fill="#010201" fill-opacity=".89" stroke="None" d="M218 239c.5 2.57 2.76 4.67 5 6-3.03 2.78-8.09 8.89-1 10 1.63-.6 3.24-3.55 5-5 1.15-1.21 3.15-3.25 3-5-4.27-1.71-7.14-10.94-12-6Z"/>
    <path fill="#C7C7C7" fill-opacity=".04" stroke="None" d="M230 245c.15 1.75-1.85 3.79-3 5 5.2-4.28 2.76-10.5-4-13 1.01.48 6.9 6.75 7 8Z"/>
    <path fill="#B9B9B9" fill-opacity=".13" stroke="None" d="M252 242c.86 1.73 4.03 1.25 5 0h-4c1.51-1.31-.12-4.42 0-5-.38 1.18-1.04 3.8-1 5Z"/>
    <path fill="#969696" fill-opacity=".22" stroke="None" d="M257 241c-.2-1.65-.54-2.51-1-4 .24 1.23-1.04 2.27 1 4Z"/>
    <path fill="#ADADAD" fill-opacity=".16" stroke="None" d="M289 251c2.95-5.53 7.93-16.03 17-12-6.73-8.77-15.32 7.77-17 12Z"/>
    <path fill="#232323" fill-opacity=".9" stroke="None" d="M315 243c-2.05 3.07-3.18 6.53-4 10-.72 3.04-1.63 7.34-2 10-.38 2.78-.46 5.81 0 9 .3 2.1 1.24 5.62 2 8 1.3 4.04 3.72 6.89 9 6 3.71-.94 6.47-7.58 9-10 0 0-.01-.5 0-1 .06-3.02 1.78-5.66 3-8v-5c0-2.85 1-6.97 1-9 .13-1.75-.5-2.51-1-4-1.03-2.04-4.46-3.61-2-6 0 0 .54-.14 1 0 .04-2.64-2.34-4.38-4-6 0 0-.5.04-1 0-3.8-.34-8.66 3.01-11 6m11 12c.05.55 3.22 1.5 2 3-1.28-.53-1.86.97-3 1-.63 2.31-1.31 5.06-2 7-.47 1.33-.23.97-1 2-.61.82-.53 1-1 2 1.19-.87 2.51-1.13 4-1 .12 2.48-2.87 5.09-5 3-.3 1.09-.44 3.03-1 4-2.53 4.41-3.05-2.14-3-5s2.01-6.76 3-9c1.48-4.62 3.83-9.48 7-13 1.52 1.73-.76 3.79 0 6Z"/>
    <path fill="#BEBEBE" fill-opacity=".09" stroke="None" d="M331 243c2.94.91-1.47-5.09-4-6 1.66 1.62 4.04 3.36 4 6Z"/>
    <path fill="#232323" fill-opacity=".9" stroke="None" d="M337 239v1c0 4.46-.89 9.68-1 13 .27 4.89-.27 8.88 0 13 .23 3.45.89 9.45-1 12 0 0-.09.52 0 1 1.54 2.41 7.63 6.48 10 7 10.4.83 12.64-15.42 14-23 .2-1.11.39-2.01 1-3 .55-2.87.26-6.64 0-9-.53-2.24-2.19-7.1-4-9-.25-.26-.74-.75-1-1-2.64-.63-4.07-1.11-6-3 0 0-.57.17-1 0-2.41 1.7-7.73-3.68-11 1m17 12c-.01 2.46-1.38 4.32-2 7-.94 4.06-1.27 8.16-3 12-.81 1.79-2.17 3.52-3 5-1.43-1.03-1.69-5.04 0-6 .23-2.93.78-6.75 1-9 0-2.97-1.49-13.47 1-15 1.7-1.04 4.13 2.85 6 2z"/>
    <path fill="#BBB" fill-opacity=".14" stroke="None" d="M416 249c.77-6 4.06-11.26 11-11-7.15-1.39-10.74 3.43-11 11Z"/>
    <path fill="#B5B5B5" fill-opacity=".09" stroke="None" d="M444 238c2.93-.15 5.43.82 8 2 .06 2.82-4.04 3.09-4 6 7.35-5.14 3.06-9.48-4-8Z"/>
    <path fill="#A4A4A4" fill-opacity=".09" stroke="None" d="M222 255c-7.09-1.11-2.03-7.22 1-10-2.24-1.33-4.5-3.43-5-6 0 0-.24-.68 0-1-3.16 2.93 3.07 5.24 4 8-5.9 1.15-5.71 11.1 0 9Z"/>
    <path fill="#A0A0A0" fill-opacity=".19" stroke="None" d="M355 241c-1.79-1.72-3.34-2.8-6-3 1.93 1.89 3.36 2.37 6 3Z"/>
    <path fill="#252525" fill-opacity=".89" stroke="None" d="M416 249c-.06 1.65-.08 3.36 0 5 .3 2.04 1.48 5.52 2 8 .68 3.22 1.92 5.94 3 9 1.8 3.3 4.4 3.97 0 7-1.64 1.13-6.71 1.11-6 5 1.16 3.2 7.85 1.05 10 1 0 0 .56.16 1 0 1.47-2.16 5.6-3.07 7-5 .2-.49.14-2.48 0-3-1.33-2.53-4.31-3.82-5-8 0 0 .08-.51 0-1-2.89-3.56-3.12-10.47-2-14 1.85-4.74 3.63-8.99 7-13-3.43-.91-2.08-1.24-6-2-6.94-.26-10.23 5-11 11Z"/>
    <path fill="#2B2B2B" fill-opacity=".85" stroke="None" d="M436 254c.27 1.5 1.57 4.08 2 6 .41 5.79 3.22 10.66 6 16-11.89 2.51-8.91 12.7 1.92 7.92 10.84-4.77 6.22-8.54 2.08-16.92-1.82-3.69-2-6.41-2-11 0-1.32-.1-2.68 0-4 .15-2.11.37-3.68 2-5 0 0-.1-.52 0-1-.04-2.91 4.06-3.18 4-6-2.57-1.18-5.07-2.15-8-2-6.73 1.41-8.77 7.58-8 16Z"/>
    <path fill="#262626" fill-opacity=".87" stroke="None" d="M289 251c-1.48 2.78-1.43 3.84-2 7-.52 2.91-.97 6.57-2 9 .03.5.03 1.5 0 2 .94 2.21.66 4.31 1 7 1.62 7.3 5.11 12.46 12 8 2.21-1.69 5.51-5.86 7-8 .52-1.01.99-1.83 1-3v-1c0-.68.29-2.4 0-3-4.66.15-6.35 8.05-11 8-2.51-.03-2.6-8.81-1.31-12.31 1.3-3.49 2.68-9.37 4.31-12.69 1.1-3.07 1.53-4.67 4-7 1.67-1.58 3.32-1.89 4-4-.18-.42.24-1.69 0-2-9.07-4.03-14.05 6.47-17 12Z"/>
    <path fill="#ACACAC" fill-opacity=".21" stroke="None" d="M336 253c.11-3.32 1-8.54 1-13-3.06 3.77-1.24 8.69-1 13Z"/>
    <path fill="#030303" fill-opacity=".76" stroke="None" d="M257 242c-.97 1.25-4.14 1.73-5 0-1.9 2.47 4.3 2.09 6 2 .22-1.4-.16-2.18-1-3 0 0 .24.69 0 1Z"/>
    <path fill="#949494" fill-opacity=".12" stroke="None" d="M302 245c2.08-1.81 5.55-.42 4-4-.68 2.11-2.33 2.42-4 4Z"/>
    <path fill="#EDEDED" fill-opacity=".04" stroke="None" d="M363 250c.01-.06 1 0 1 0 .19-2.75-.77-6.37 0-9-.89 2.73-.77 5.67-1 9Z"/>
    <path fill="#9E9E9E" fill-opacity=".18" stroke="None" d="M372 244c2.22-.94 4.97-2.57 7-3-3.47-.01-5.74-.09-7 3Z"/>
    <path fill="#8A8A89" fill-opacity=".15" stroke="None" d="M147 249c1.21-1.76 3.85-3.53 4-6-1.2.18-2.04-.47-3-1 1.35 1.19.04 4.39-1 7Z"/>
    <path fill="#989898" fill-opacity=".21" stroke="None" d="M360 251c-.39-3.48-.68-7.11-4-9 1.81 1.9 3.47 6.76 4 9Z"/>
    <path fill="#D9D9D9" fill-opacity=".09" stroke="None" d="M387 245c0-.04 1 0 1 0 1.08-2.02 5.1-2.34 7-3-2.36.25-7.36-.64-8 3Z"/>
    <path fill="#232323" fill-opacity=".89" stroke="None" d="M388 245c.31 3.5-.74 7.28-1 10-.34 3.53-.72 8.13-1 11 0 5.91-2.85 20.3 4.92 19.92s.85-5.69 3.08-8.92c1.17-1.7 6.21 1.92 8.23 3.77 2.02 1.86 6.35 5.44 9.77 3.23 1.45-1.35 2.16-2.46 1-4-1.09-1.01-5.11.5-6.25-1.75-1.13-2.25-2.43-2.36-3.75-4.25 0 0-.6.2-1 0-1.55-.76-2.42-2.39-4-3 1.36-1.51.49-4.46 3-5 2.12-3.45 4.66-7.04 6-11 .5-2.54-.23-5.41 0-8-2.41-3.44-5.43-4.36-9-5-.99.03-2.02-.1-3 0-1.9.66-5.92.98-7 3m13 5c2.22 1.36-.65 4.08-2 7-1.17 2.52-1.06 5.55-5 5 .27 1.08.37 2.02 1 3-3.4-.48-2.39-7.97-1-10-.38-4.99 2.7-7.63 7-5Z"/>
    <path fill="#CCC" fill-opacity=".12" stroke="None" d="M407 247c.16.23 1 0 1 0-.82-4.55-6.24-5.1-10-5 3.57.64 6.59 1.56 9 5Z"/>
    <path fill="#8B8C8A" fill-opacity=".2" stroke="None" d="M189 255c-2.4-6.11-7.96-6.95-11-12 1.34 4.39 7.97 9.1 11 12Z"/>
    <path fill="#A0A0A0" fill-opacity=".2" stroke="None" d="M332 249c-.66-1.95-1.7-3.98-2-6-2.46 2.39.97 3.96 2 6Z"/>
    <path fill="#F9A8A9" fill-opacity=".21" stroke="None" d="M100 250c1.46-2.27 2.11-1.27 3-5-.55 1.55-2.17 3.26-3 5Z"/>
    <path fill="#B9B9B9" fill-opacity=".11" stroke="None" d="M203 253c1.21-2.52 2.13-5.13 3-8-1.01 2.43-2.06 5.33-3 8Z"/>
    <path fill="#818181" fill-opacity=".21" stroke="None" d="M210 252c.83-2.04 2.1-4.72 3-7-1.54 2.7-2.11 3.81-3 7Z"/>
    <path fill="#C7C7C7" fill-opacity=".1" stroke="None" d="M298 252c.77-1.57 2.47-5.66 4-7-2.47 2.33-2.9 3.93-4 7Z"/>
    <path fill="none" stroke="None" d="M347 260c0 2.59-1.13 7.31-1 9 .08.99-.06 2 0 3 .83-.41 1.87-.97 2-2-.06-3.75 2.81-8.73 4-12 .62-2.68 1.99-4.54 2-7-.33-3.06-4.09-4.18-6-6-2.49 1.53-1 12.03-1 15Z"/>
    <path fill="#A2A2A2" fill-opacity=".15" stroke="None" d="M354 251v-4c-1.87.85-4.3-3.04-6-2 1.91 1.82 5.67 2.94 6 6Z"/>
    <path fill="#727272" fill-opacity=".4" stroke="None" d="M387 255c.26-2.72 1.31-6.5 1-10 0 0-1-.04-1 0-.3 3.31.32 6.7 0 10Z"/>
    <path fill="#F0CF71" stroke="None" d="M175 265c-3.01-6.79-3.5-19.55-14-19-10.49.55-11.86 11.17-6.25 19.25 5.61 8.07 12.38 3.54 20.25-.25Z"/>
    <path fill="#6E6E72" fill-opacity=".22" stroke="None" d="M194 253c.27.25 1 0 1 0-1.09-2.62-4.7-5.39-7-7 .59 2.74 4.02 5.14 6 7Z"/>
    <path fill="#F7ADA0" fill-opacity=".13" stroke="None" d="M96 257c-3.16-2.46-5.71-6.27-7-10 .65 2.83 3.21 11.43 7 10Z"/>
    <path fill="#828282" fill-opacity=".22" stroke="None" d="M407 255c.79-2.33 1.27-4.99 1-8 0 0-.84.23-1 0-.23 2.59.5 5.46 0 8Z"/>
    <path fill="#8B8B8B" fill-opacity=".24" stroke="None" d="M446 252c.23-1.25 1.76-3.27 2-5-1.63 1.32-1.85 2.89-2 5Z"/>
    <path fill="#4D4D4D" fill-opacity=".21" stroke="None" d="M250 249h9c-1.7-1.8-7.21-1.5-9 0Z"/>
    <path fill="#D6BC70" stroke="None" d="M186 264c-1.13-6.04-4.95-12.74-11-15 1.94 5.51 2.91 16.25 11 15Z"/>
    <path fill="none" stroke="None" d="M319 262c-.59 1.85-2.69 17.24 0 14 .56-.97.7-2.91 1-4 .32-1.17.6-1.15 1-2 .47-1 .39-1.18 1-2 .35-.74.65-1.36 1-2 .69-1.94 1.37-4.69 2-7 .37-1.36.73-2.57 1-4-.76-2.21 1.52-4.27 0-6-3.17 3.52-5.52 8.38-7 13Z"/>
    <path fill="#7F7F7F" fill-opacity=".22" stroke="None" d="M394 255c.04.5 0 1 0 1 1.15-1.56 1.46-3.93 2-6h5c-4.3-2.63-7.38.01-7 5Z"/>
    <path fill="#BBBFBD" fill-opacity=".1" stroke="None" d="M147 261c-.94-3.84-1.35-7.18 0-11-4.03 3.08-1.25 7.74 0 11Z"/>
    <path fill="#7E7E7E" fill-opacity=".31" stroke="None" d="M362 257c1.63-2.01 1.81-4.26 2-7 0 0-.99-.06-1 0-.17 2.54-.6 4.58-1 7Z"/>
    <path fill="none" stroke="None" d="M394 256v5c1.99-.47 3.87-2.33 5-4 1.35-2.92 4.22-5.64 2-7h-5c-.54 2.07-.85 4.44-2 6Z"/>
    <path fill="#C5C5C5" fill-opacity=".08" stroke="None" d="M195 253s-.73.25-1 0c-1.54.85 2.73 2.96 4 3 1.09-2.16 3.51-3.15 3-5 0 3.43-4.49 4.2-6 2Z"/>
    <path fill="#828282" fill-opacity=".34" stroke="None" d="M309 263c.37-2.66 1.28-6.96 2-10-1.28 3.3-1.41 5.81-2 10Z"/>
    <path fill="#1E1E1E" fill-opacity=".73" stroke="None" d="M332 262c.3-2.2 1-5.16 1-8 0 0-.04-.5 0-1 0 2.03-1 6.15-1 9Z"/>
    <path fill="#BEBEBE" fill-opacity=".12" stroke="None" d="M370 263c3.32-2.34 9.81 1.1 12.67-2.33 2.85-3.43-4.74-6.49-6.67-7.67 1.63 1.25 7.78 4.91 5.22 7.22-2.55 2.32-9.18-.71-11.22 2.78Z"/>
    <path fill="#B5B5B5" fill-opacity=".21" stroke="None" d="M428 267c-.72-4.35-2.62-9.95-2-14-1.12 3.53-.89 10.44 2 14Z"/>
    <path fill="#A4A4A4" fill-opacity=".15" stroke="None" d="M332 262v4c1.62-2.98 3.36-8.82 1-12 0 2.84-.7 5.8-1 8Z"/>
    <path fill="#909090" fill-opacity=".19" stroke="None" d="M418 262c-.52-2.48-1.7-5.96-2-8 .16 3.13 1.15 5.46 2 8Z"/>
    <path fill="#999" fill-opacity=".18" stroke="None" d="M438 260c-.43-1.92-1.73-4.5-2-6 .26 2.82 1.28 3.84 2 6Z"/>
    <path fill="#4A4A4A" fill-opacity=".47" stroke="None" d="M325 259c1.14-.03 1.72-1.53 3-1 1.22-1.5-1.95-2.45-2-3-.27 1.43-.63 2.64-1 4Z"/>
    <path fill="#BCBCBC" fill-opacity=".15" stroke="None" d="M386 266c.28-2.87.66-7.47 1-11-.29 3.01-1 7.25-1 11Z"/>
    <path fill="#323232" fill-opacity=".74" stroke="None" d="M394 262c-.12-.47 0-1 0-1v-5s.04-.5 0-1c-1.39 2.03-2.4 9.52 1 10-.63-.98-.73-1.92-1-3Z"/>
    <path fill="#4B4A4C" fill-opacity=".43" stroke="None" d="M192 265c-.89-.48-.84-2.21-1-3-.49-2.42.13-4.37-2-6 .39 2.37.24 8.16 3 9Z"/>
    <path fill="#7A7A7A" fill-opacity=".2" stroke="None" d="M448 267c-1.07-3.22-1.6-8.03-2-11 0 4.59.18 7.31 2 11Z"/>
    <path fill="#787878" fill-opacity=".27" stroke="None" d="M394 261s-.12.53 0 1c3.94.55 3.83-2.48 5-5-1.13 1.67-3.01 3.53-5 4Z"/>
    <path fill="#BABABA" fill-opacity=".13" stroke="None" d="M285 267c1.03-2.43 1.48-6.09 2-9-.93 3.07-2.25 4.95-2 9Z"/>
    <path fill="#969696" fill-opacity=".18" stroke="None" d="M348 270c.13-.22 1 0 1 0 1.73-3.84 2.06-7.94 3-12-1.19 3.27-4.06 8.25-4 12Z"/>
    <path fill="#E7E7E7" fill-opacity=".02" stroke="None" d="M360 260c-.61.99-.8 1.89-1 3 1.44.06.74-1.92 2-2 .87 6.74-1.6 15.05 1 21-2.36-5.8 0-17.65 0-24-.29.55-1.65 1.44-2 2Z"/>
    <path fill="#AEAEAE" fill-opacity=".13" stroke="None" d="M346 269c-.13-1.69 1-6.41 1-9-.22 2.25-.77 6.07-1 9Z"/>
    <path fill="#777A7D" fill-opacity=".14" stroke="None" d="M192 265c.95.51 2.92-.23 4 0 .56.24-4.07-1.7-5-3 .16.79.11 2.52 1 3Z"/>
    <path fill="#919191" fill-opacity=".16" stroke="None" d="M319 276c-2.69 3.24-.59-12.15 0-14-.99 2.24-2.95 6.14-3 9s.47 9.41 3 5Z"/>
    <path fill="#929292" fill-opacity=".09" stroke="None" d="M306 272v1c.59.35 2.66-.47 3-1-.46-3.19-.38-6.22 0-9-.25 1.78-1.12 7.56-3 9Z"/>
    <path fill="#6B6B6B" fill-opacity=".24" stroke="None" d="M271 268c-.18-1.9-1.52-2.61-2-4 .4 1.94 1.58 2.71 2 4Z"/>
    <path fill="#F6AFAB" fill-opacity=".21" stroke="None" d="M81 271c-1.92-2.75-5.05-4.03-7-6 1.31 1.71 4.33 4.7 7 6Z"/>
    <path fill="#BBB" fill-opacity=".12" stroke="None" d="M373 274c-1.29.17-1.75 1.7-3 2v-11c-2.28 3.01-.37 8.17-1 12 2.23.62 2.79-1.99 4-3Z"/>
    <path fill="#F4AEA9" fill-opacity=".18" stroke="None" d="M106 278c3.78-1.13 9.7-9 12-12-1.7 1.77-4.76 3.64-6.75 5.25s-3.3 5.9-5.25 6.75Z"/>
    <path fill="#D5D5D5" fill-opacity=".05" stroke="None" d="M322 268c.77-1.03.53-.67 1-2-.35.64-.65 1.26-1 2Z"/>
    <path fill="#E8E8E8" fill-opacity=".03" stroke="None" d="M335 278c1.89-2.55 1.23-8.55 1-12-.15 3.19-1 8.03-1 12Z"/>
    <path fill="#AFAFAF" fill-opacity=".14" stroke="None" d="M402 274c-2.82-1.98-1.86-5.41-1-8-2.51.54-1.64 3.49-3 5 1.58.61 2.45 2.24 4 3Z"/>
    <path fill="#9B9B9B" fill-opacity=".21" stroke="None" d="M329 275c1.84-2.3 3.25-4.69 3-8-1.22 2.34-2.94 4.98-3 8Z"/>
    <path fill="#858585" fill-opacity=".24" stroke="None" d="M295 277c4.65.05 6.34-7.85 11-8-2.1-4.29-9.26 7.65-11 8Z"/>
    <path fill="#A1A1A1" fill-opacity=".18" stroke="None" d="M433 276c-.63-2.38-3.54-6.18-5-8 .69 4.18 3.67 5.47 5 8Z"/>
    <path fill="#E4C9B1" stroke="None" d="M201 276c-7.13-11.46-27.23-8.12-36 0 5.27 1.35 12.25 6.39 17.99 4.99s9.91-8.33 18.01-4.99Z"/>
    <path fill="#C4C4C4" fill-opacity=".13" stroke="None" d="M286 276c-.34-2.69-.06-4.79-1-7-.17 2.68.55 4.96 1 7Z"/>
    <path fill="#383838" fill-opacity=".59" stroke="None" d="M321 270c-.4.85-.68.83-1 2 2.13 2.09 5.12-.52 5-3-1.49-.13-2.81.13-4 1Z"/>
    <path fill="#616161" fill-opacity=".27" stroke="None" d="M349 270s-.87-.22-1 0c-.13 1.03-1.17 1.59-2 2-.06-1 .08-2.01 0-3-1.69.96-1.43 4.97 0 6 .83-1.48 2.19-3.21 3-5Z"/>
    <path fill="#FBC1BF" fill-opacity=".13" stroke="None" d="M87 275c-1.52-1.59-3.01-2.76-5-4 .99 2.21 2.38 3.42 5 4Z"/>
    <path fill="#4F4F4F" fill-opacity=".18" stroke="None" d="M272 288c.14-.22 1 0 1 0 .56-6.23-.2-11.81-2-17 .76 5.53.48 11.24 1 17Z"/>
    <path fill="#A6A6A6" fill-opacity=".15" stroke="None" d="M421 278c4.4-3.03 1.8-3.7 0-7 1.02 2.91 2.23 4.87 0 7Z"/>
    <path fill="#6D6D6D" fill-opacity=".44" stroke="None" d="M311 280c-.76-2.38-1.7-5.9-2-8-1.57 3.53 1.24 6.46 2 8Z"/>
    <path fill="#ADADAD" fill-opacity=".13" stroke="None" d="M413 280c-.74-.98-8.11-5.08-10-6 1.32 1.89 2.62 2 3.75 4.25 1.14 2.25 5.16.74 6.25 1.75Z"/>
    <path fill="#F7B4B0" fill-opacity=".16" stroke="None" d="M95 278c-1.96-.41-4.66-2.45-7-3 2.17 1.74 4.07 2.64 7 3Z"/>
    <path fill="#848585" fill-opacity=".2" stroke="None" d="M163 281c-1.74-1.23-3.34-3.82-5-5-4.32-2.1 3.2 4.09 5 5Z"/>
    <path fill="#E7E7E7" fill-opacity=".03" stroke="None" d="M239 291c-2.95-2.07-3.56-13.16 0-15-4.4 1.6-4.94 13.71 0 15Z"/>
    <path fill="#9C9C9C" fill-opacity=".1" stroke="None" d="M298 284c2.95-1.91 5.39-4.91 7-8-1.49 2.14-4.79 6.31-7 8Z"/>
    <path fill="#B5B5B5" fill-opacity=".1" stroke="None" d="M320 286c3.98-.67 7.72-6.44 9-10-2.53 2.42-5.29 9.06-9 10Z"/>
    <path fill="#B7B7B7" fill-opacity=".13" stroke="None" d="M368 285c.03 0 0 1 0 1 4.54.56 10.04-6.36 11-10-1.32 3.26-7.39 8.82-11 9Z"/>
    <path fill="#9B9B9B" fill-opacity=".14" stroke="None" d="M394 277c5.95.75 11.99 12.61 18 7-3.42 2.21-7.75-1.37-9.77-3.23-2.02-1.85-7.06-5.47-8.23-3.77Z"/>
    <path fill="#C1C1C1" fill-opacity=".12" stroke="None" d="M345 286c-2.37-.52-8.46-4.59-10-7 .76 3.92 6.42 6.72 10 7Z"/>
    <path fill="#797979" fill-opacity=".28" stroke="None" d="M426 284c1.75-.63 6.32-3.28 7-5-1.4 1.93-5.53 2.84-7 5Z"/>
    <path fill="#3D3E3C" fill-opacity=".72" stroke="None" d="M232 288c0-2.46.53-5.6 0-8 .28 2.21-2.06 5.22 0 8Z"/>
    <path fill="#A4AAB2" stroke="None" d="M227 281c-6.04.48-14.16-.65-20 0s-16.15-3.19-15 5c6.04-.48 14.16.65 20 0s16.15 3.19 15-5Z"/>
    <path fill="#A4A9B1" stroke="None" d="M267 281c-7.55 2.31-24.6-5.23-25 5 7.55-2.31 24.6 5.23 25-5Z"/>
    <path fill="#828282" fill-opacity=".18" stroke="None" d="M368 286s.03-1 0-1c-1.7-.08-5.23-1.12-6-3 1.16 2.66 2.57 4.24 6 4Z"/>
    <path fill="#929292" fill-opacity=".13" stroke="None" d="M425 284c-2.15.05-8.84 2.2-10-1 .86 4.71 7.94 2.12 10 1Z"/>
    <path fill="#8B8E90" fill-opacity=".11" stroke="None" d="M186 287c-1.68-1.73-4.57-.86-7-1 1.87.27 4.42 1.05 7 1Z"/>
    <path fill="#CDCDCE" fill-opacity=".09" stroke="None" d="M196 292c-3.19-.96-7.05-1.42-10-4 1.75 3.87 6.22 4.26 10 4Z"/>
    <path fill="#F2F2F2" fill-opacity=".02" stroke="None" d="M240 291c3.74 2.77 13.3.5 18 1s13.01 1.26 15-4c0 0-.86-.22-1 0-4.05 6.47-24.85 3-32 3Z"/>
    <path fill="#F8F8F8" fill-opacity=".02" stroke="None" d="M198 292c5.35 0 13.98.35 19 0s12.78 2.14 15-3c-7.75 6.84-25.07-.8-34 3Z"/>
</svg>
