<svg xmlns="http://www.w3.org/2000/svg" width="500" height="500">
    <path fill="none" d="M0 500h500V0H0zm213-333c1.31-4.76 5.41-3.71 1.68-9.68s-2.54-14.36.09-20.55 2.63-6.38 7.13-8.87 5.71-3.22 7.49-6.65c1.79-3.43 3.01-4.75 4.41-7.5s5.93-5.83 6.59-7.5c.67-1.68 7.71-1.4 8.36-4.84.65-3.43 7.54-.42 9.25-3.41 1.58 1.67.97 4.81 2 7 8.66-2.26 13.44-9.53 22-11-.31 5.03.38 9.84 2 15 8.07-.17 13.09-5.65 19-9 2.7 4.36-.65 13.53 4.7 16.3 5.36 2.76 12.95-2.71 19.3-1.3-.79 7.99-4.22 17.46 2.19 23.25 6.42 5.79 2.94 15.53-.19 24.75 8.78 7.46.95 22.12-10 21 1.88 22.44-12.4 42.76-32 48 9.71 6.94 20.23 16.67 19 28 10.04-2.88 19.8 5.68 19 13 9.9-.17 20.81.24 30 0 10.23 12.43-1.97 24.1-15 18-13.04-6.1-35.03 10.46-39-6-14.08 1.5-31.4-4.49-40.75-15.25-9.36-10.76-14.63-24.61-2.25-36.75-17.03-6.59-35.71-25.88-32-48-4.49-.52-7.14-2.6-11-5 .39 3.14.69 8.71-1 11v1c.54 5.73-.66 10.29-1 16-.16 2.6-.56 5.01-1 7-3.75 16.93-7.66 30.71-19.25 43.75-11.58 13.05-31.51 7.87-42-4.5-10.49-12.38-17.63-28.86-18.75-45.25-.77-4.32-1.15-11.1-1-15-.16-1.29 0-2.7 0-4-.87-6.38-.31-11.88 1-18 .4-3.47.73-6.49 1-10 .18-2.4.75-5.24 1-7 1.03-17.29 10.02-31.31 17-47 6.12-6 12.2-4.81 19.67-8.33S158.83 89.25 161 85c18.93-5.16 31.77 11.26 37.92 28.08 6.15 16.81 13.72 34.86 14.08 53.92m178 72c-2.16-.98-9.17-.39-11 1-3.4 5.57-3.34 11.58-6.3 18.7-2.96 7.13-19.32 5.94-19.62-2.78-.31-8.71 5.16-15.11 6.27-22.62 1.12-7.5 5.01-10.97 6.58-20.37 1.56-9.41 5.26-13.63 7.07-20.93-10.28-2.61-24.17.49-33-2-3.15-24.75 1.1-53.39-2-79 9.71-5.29 23.57-3 35-3s25.32-2.28 35 3c-.64 24.8 1.27 54.42-1 78-4.02 3.26-9.56 1.07-14 3 .62 5.56-4.34 10.67-2.22 18.22s1.91 13.23 4.48 17.97c2.56 4.74 3.91 16.77 5.09 21.51 1.19 4.73 6.65 13.1 6.29 19-.35 5.9 4.96 19.31-2.72 23.22-7.69 3.9-18.13-3.42-27.92-.92 3.15 3.18-9.19 3.04-11.25-.76-2.05-3.8-4.18-13.83 1.95-16.54s13.06-1.41 20.3-1.7 14.64 2.07 12.1-6.1c-2.54-8.16-3.74-17.11-9.1-26.9m-64 13c-11.3.6-4.12-10.62-1.68-16.68 2.44-6.05 5.63-10.3 6.68-17.32 12.23-.82 2.74 11.5 1.81 15.25-.92 3.76-5.37 13.63-6.81 18.75m18-29c3.19 3.98 7.03 7.89 11 11-3.76 3.45-5.09 10.12-10.25 12.75-5.17 2.62-7.55-10.51.25-10.75-2.33-4.25-10.29-10.87-1-13m-32 11c2.47 4.47 10.17 10.68 1 13-3.19-3.98-7.03-7.89-11-11 3.66-3.96 4.47-9.28 10.25-11.75 5.77-2.48 6.86 8.89-.25 9.75m-59 142c-.4-7.34.37-15.44 1-22 0-12.64 3.01-24.48 4-37-.13-3.4-.5-3.8 1-7 3.33-10.82 11.49-10.94 21.01-11.99 9.52-1.06 19.02-3.23 23.99 6.99-8.99 5.84-21.3 3.07-31 8 .15 7.21.01 14.35-2 21 8.59-2.31 21.21 4.23 23 13-8.32 1.69-16.54 3.79-25 5-1.62 9.11-1.13 19.03-1 28 6.85 2.45 12.68-13.93 18.22-9.22s-2.55 13.82-6.97 18.47-9.83 10.59-17.33 7.82-9.18-13.2-8.92-21.07m-4-41c.15 2.74.48 6-1 8v1c3.09 6.92-4.75 23.06-5.93 30.07-1.18 7.02-8.86 21.41-16.15 22.85-7.29 1.45-23.47-3.21-23.91-12.93-.44-9.71 1.7-22.9.99-33.99-.71-11.1.42-25.24 0-37s14.05-17.82 20-7c15.87-3.81 28.15 14.22 26 29m-57-21c-5.53 4.82 3.44 12.5 3.93 21.08.5 8.58-.73 21.17-3.7 29.15s-5.62 16.59-10.53 23.47c-4.92 6.87-12.75 13.56-20.77 8.37-8.03-5.18-11.1-12.27-11.93-21.07s-1.41-20.76.33-29.67 5.03-16.41 8.97-24.03c3.95-7.61 7.74-13.53 14.78-18.22S193.96 304.9 193 314m-49-1c-24.04 11.66-29.31 46.24-25 71 10-2.79 16.52-24.87 27-16-8.42 8.25-9.34 28.14-25.01 28.99S102.85 375.1 103 362s6.72-30.82 12.31-42.69c5.58-11.88 24.15-24.58 28.69-6.31m234 65c-4.51-6.28-3.98-13.05-8.32-19.68-4.35-6.62-4.23-14.14-5.75-21.4s-2.1-15.56 1.99-23c4.09-7.45 6.72-11.44 17.16-9.99 10.43 1.45 9.22 6.16 3.62 12.77-5.61 6.6-5.57 14.24-5.92 21.52s3.07 15.29 4 23 7.06 11.92 9.99 19.01-10.93 10.31-14.79 13.75c-3.87 3.43-21.03 4.05-18.64-3.66 2.38-7.7 13.17-5.92 16.66-12.32m57 7c-10.06 6.37-23.58 17.32-35 8 .45-8.84 15.84-7.37 16.92-15.08 1.07-7.72-8.18-15.45-9.84-23S401.36 335.28 402 327s4.61-17.89 11.08-21.92c6.46-4.04 23.19-.01 17.83 6.84-5.35 6.84-9.78 13.21-10.83 22.16-1.06 8.94 2.82 19.6 4.7 28.14S433.92 376.21 435 385m-79 3c-8.06 20.38-26.14-6.23-38-10 .82 8.82-2.57 25.75-15 18 1.68-7.73-1.35-18.91 0-27s-.25-15.55.67-23.67.67-17.42 2.11-25.55c1.43-8.14 11.09-6.28 17.23-7.77s19.35 1.91 21.25 8.73c1.89 6.82.89 15.1-4.01 21.51-4.91 6.4-5.72 11.23-10.22 18.78-4.51 7.54-.66 12.64 7.05 15.89 7.7 3.26 9.49 12.23 18.92 11.08"/>
    <path fill="none" stroke="#F75757" stroke-opacity=".96" stroke-width=".3" d="M134 155c-.15 2.49-.7 5.15-1 7-.27 3.51-.6 6.53-1 10-.69 5.97-1 11.77-1 18 0 1.3-.16 2.71 0 4 .59 4.8.65 9.92 1 15 1.12 16.39 8.26 32.87 18.75 45.25 10.49 12.37 30.42 17.55 42 4.5 11.59-13.04 15.5-26.82 19.25-43.75.29-2.27.76-5.32 1-7 .34-5.71 1.54-10.27 1-16-3.2-3.08-.26-12.67 0-16 .21-3.34-.44-5.93-1-9-.36-19.06-7.93-37.11-14.08-53.92C192.77 96.26 179.93 79.84 161 85c-2.17 4.25 17.14 11.15 9.67 14.67S157.12 102 151 108c-6.98 15.69-15.97 29.71-17 47m56-2c.63 2.44 1.1 3.33 1 6 2.06 15.15-.19 31.72-3 46-2.8 14.28-5.57 30.2-17 38-6.34-11.56-11.66-22.55-12-36-.19-1.03-.97-2.38-1-4-.82-4.61-.74-9.47 0-14 1.49-27.4 5.45-58.49 20-81 5.52 14.42 10.64 29.21 12 45Z"/>
    <path fill="none" stroke="#040202" stroke-opacity=".97" stroke-width=".3" d="M213 167c.56 3.07 1.21 5.66 1 9-.03.5 0 1.5 0 2 .69.85.84.68 1 2 3.86 2.4 6.51 4.48 11 5-3.71 22.12 14.97 41.41 32 48-12.38 12.14-7.11 25.99 2.25 36.75C269.6 280.51 286.92 286.5 301 285c3.97 16.46 25.96-.1 39 6 13.03 6.1 25.23-5.57 15-18-9.19.24-20.1-.17-30 0 .8-7.32-8.96-15.88-19-13 1.23-11.33-9.29-21.06-19-28 19.6-5.24 33.88-25.56 32-48 10.95 1.12 18.78-13.54 10-21 3.13-9.22 6.61-18.96.19-24.75-6.41-5.79-2.98-15.26-2.19-23.25-6.35-1.41-13.94 4.06-19.3 1.3-5.35-2.77-2-11.94-4.7-16.3-5.91 3.35-10.93 8.83-19 9-1.62-5.16-2.31-9.97-2-15-8.56 1.47-13.34 8.74-22 11-1.03-2.19-.42-5.33-2-7-1.71 2.99-8.6-.02-9.25 3.41-.65 3.44-7.69 3.16-8.36 4.84-.66 1.67-5.19 4.75-6.59 7.5s-2.62 4.07-4.41 7.5c-1.78 3.43-2.99 4.16-7.49 6.65s-4.5 2.68-7.13 8.87-3.82 14.58-.09 20.55-.37 4.92-1.68 9.68m64-63c.37 5.06 1.63 9.91 2 15 6.99-2.03 12.99-6.97 20-9 1.2 4.61 1.15 9.54 3 14 6.18.12 11.61-2.86 18-2-2.06 16.22-12.92 19.91-28 18s-33.6 1.44-49 0c-2.32-6.1-10.52-12.29-5.69-18.69 4.82-6.41 8.02-11.78 15.69-14.31v9c8.69-2.02 15.19-9.84 24-12m-58 47c-.72-2.79-.71-4.26 0-7 1.45-5.59 5.08-12.46 12-12 1.3 3.56 4.19 6.56 6 10-6.51 3.4-11.1 9.87-12 17-4.07.41-5.22-4.87-6-8m101 8c-1.37-4.55-2.73-10.18-7-13 2.63-4.95 9.35-10.45 11.77-3.77s2.58 15.95-4.77 16.77m-7 0c-12.24 2.44-38.22-7.65-37 12-9.92 3.15-5.86-12.93-16-12-10.15.93-18.06-.7-28 0 2.95-17.77 26.15-13.06 40-13s37.65-4.93 41 13m-52 6c3.92 2.94 3.49 22.48 0 25-3.62 2.61-24.45 2.56-28 0-3.52-2.54-3.88-22.09 0-25 3.47-2.6 24.6-2.55 28 0m-36 0v13c-8.08.34-8.08-13.58 0-13m87 25c-3.55 2.64-24.49 2.53-28 0-5.82-4.2-.1-11.74-2-19s11.45-6.23 16-6 17.09-1.56 15.99 5.01S317.25 186.1 312 190m8-12v-13c8.07-.15 8.08 13.15 0 13m-43 50c-3.45.56-6.61.55-10 0-16.31-.89-31.44-15.1-34-31 9.35-.18 17.53.23 27 0s9.98-11.64 9-19c12.69-3.28 2.26 16.25 13.03 17.97 10.77 1.73 19.08.85 29.97 1.03-2.78 16.54-18.19 30.23-35 31m-4 7c7.99 2.28 7.93 13.39 11.93 19.07 4 5.69-8.17 11.6-14.62 12.24-6.46.63-11.98-8.8-13.3-16.32-1.33-7.52 5.9-17.87 15.99-14.99m27 23c-10.2 1.38-10.44-12.49-14-19 7.7 2.75 13.56 10.89 14 19m1 21c-2.64 2-5.53.4-8 0-6.58-.36-15.78-2.24-19-8 13.05-6.21 36.11-12.98 45 2-6.34.59-16.75-2.71-18 6m51 1c.5 1.86-.38 4.1 0 6h-44c-7.24-7.02 12.88-9.05 18-7s21.85-3.32 26 1Z"/>
    <path fill="none" stroke="#AC7646" stroke-width=".3" d="M277 104c-8.81 2.16-15.31 9.98-24 12v-9c-7.67 2.53-10.87 7.9-15.69 14.31-4.83 6.4 3.37 12.59 5.69 18.69 15.4 1.44 33.92-1.91 49 0s25.94-1.78 28-18c-6.39-.86-11.82 2.12-18 2-1.85-4.46-1.8-9.39-3-14-7.01 2.03-13.01 6.97-20 9-.37-5.09-1.63-9.94-2-15Z"/>
    <path fill="none" d="M158 189c-.2 3.64 0 7.35 0 11 .17 1.72.9 4.64 1 7 .34 13.45 5.66 24.44 12 36 11.43-7.8 14.2-23.72 17-38 2.81-14.28 5.06-30.85 3-46-.2-1.48-.87-3.93-1-6-1.36-15.79-6.48-30.58-12-45-14.55 22.51-18.51 53.6-20 81"/>
    <path fill="none" stroke="#000101" stroke-opacity=".95" stroke-width=".3" d="M380 240c2.59-4.23 7.87-3.96 11-1 5.36 9.79 6.56 18.74 9.1 26.9 2.54 8.17-4.86 5.81-12.1 6.1s-14.17-1.01-20.3 1.7-4 12.74-1.95 16.54c2.06 3.8 14.4 3.94 11.25.76 9.79-2.5 20.23 4.82 27.92.92 7.68-3.91 2.37-17.32 2.72-23.22.36-5.9-5.1-14.27-6.29-19-1.18-4.74-2.53-16.77-5.09-21.51-2.57-4.74-2.36-10.42-4.48-17.97s2.84-12.66 2.22-18.22c4.44-1.93 9.98.26 14-3 2.27-23.58.36-53.2 1-78-9.68-5.28-23.57-3-35-3s-25.29-2.29-35 3c3.1 25.61-1.15 54.25 2 79 8.83 2.49 22.72-.61 33 2-1.81 7.3-5.51 11.52-7.07 20.93-1.57 9.4-5.46 12.87-6.58 20.37-1.11 7.51-6.58 13.91-6.27 22.62.3 8.72 16.66 9.91 19.62 2.78 2.96-7.12 2.9-13.13 6.3-18.7m-9-114c-2.09-1.66-.52-7.36-6-5-.47 1.88 1.06 4.93-1 6-4.76 2.9-7.54-3.19-6-7-9.18-3.05-3.02 10.9-13 7-3.8-13.22 5-13.43 15-13s18 .43 28 0 18.78-.23 15 13c-10.5-.67-22.32 1.33-32-1m6 8c3.56 5.08-2 13.53 0 20s-1.89 13.55 0 21-3.66 10.44-11 9-13.74 1.08-21 0c.67-16.5-1.33-34.32 1-50 2.33-2.33 11.56-1.24 15-1s14.05-1.78 16 1m26 0c2.58 3.68-1.12 11.24 0 16s-.59 11.81 0 17-.44 11.69 0 17c-8.28 2.41-10.24-8.76-19-6-3.32-2.7-.91-17.45-1-22s-2.07-18.93 1-22c1.89-1.89 17.42-2.26 19 0m-15 50c5.36 2.09-3.05 15.17-3.92 21.08-.88 5.91-4.6 14.93-6.41 22.59-1.8 7.66-4.97 12.28-6.98 22.02-2 9.75-12.12 6.77-7.37-2.37 4.76-9.13 3.37-14.93 6.67-22.33 3.31-7.4 4.39-16.38 6.94-22.06 2.54-5.68 3.4-21.92 11.07-18.93m2 48c-2.45-1.41-4.74.04-7-1 .9-3.92 2.87-7.37 3-11 3.71 1.56 2.72 8.22 4 12m12 48c5.52 5.52-6.24 7.07-11 6s-14.76.8-20 0v-6c1.77-2.66 11.55-.99 15-1s13.56-1.44 16 1Z"/>
    <path fill="none" stroke="#ADD07E" stroke-width=".3" d="M364 127c-1.5-5.13 1.89-8.44 7-7v6c9.68 2.33 21.5.33 32 1 3.78-13.23-5-13.43-15-13s-18 .43-28 0-18.8-.22-15 13c9.98 3.9 3.82-10.05 13-7-1.54 3.81 1.24 9.9 6 7Z"/>
    <path fill="none" stroke="#465A31" stroke-width=".3" d="M364 127c2.06-1.07.53-4.12 1-6 5.48-2.36 3.91 3.34 6 5v-6c-5.11-1.44-8.5 1.87-7 7Z"/>
    <path fill="none" stroke="#A97649" stroke-width=".3" d="M219 144c-.26 2.1-.26 4.9 0 7 .78 3.13 1.93 8.41 6 8 .9-7.13 5.49-13.6 12-17-1.81-3.44-4.7-6.44-6-10-6.92-.46-10.55 6.41-12 12Z"/>
    <path fill="none" stroke="#7A7B7E" stroke-width=".3" d="M346 134c3.45-2.41 10.65 1.19 15 0s11.4.89 16 0c-1.95-2.78-12.56-.76-16-1s-12.67-1.33-15 1Z"/>
    <path fill="none" stroke="#78797C" stroke-width=".3" d="M384 134h19c-1.58-2.26-17.11-1.89-19 0Z"/>
    <path fill="none" stroke="#DEE0E5" stroke-width=".3" d="M377 134c-4.6.89-11.65-1.19-16 0s-11.55-2.41-15 0c-2.33 15.68-.33 33.5-1 50 7.26 1.08 13.66-1.44 21 0s12.89-1.55 11-9 2-14.53 0-21 3.56-14.92 0-20m-6 6c2.06 10.68-12.74 4.27-19 6-2.06-10.68 12.74-4.27 19-6m-1 13c1.5 1.5.89 3.84 1 6h-19v-6c1.54-2.3 16.25-1.75 18 0m1 12c2.06 10.68-12.74 4.27-19 6-2.06-10.68 12.74-4.27 19-6Z"/>
    <path fill="none" stroke="#5B5C5F" stroke-width=".3" d="M384 178v-44c-3.07 3.07-1.09 17.45-1 22s-2.32 19.3 1 22Z"/>
    <path fill="none" stroke="#DBDDE1" stroke-width=".3" d="M384 178c8.76-2.76 10.72 8.41 19 6-.44-5.31.59-11.81 0-17s1.12-12.24 0-17 2.58-12.32 0-16h-19v44m12-38c2.75 2.75-2.37 8.95-5.67 5.67s2.94-8.4 5.67-5.67m0 13c2.75 2.75-2.37 8.95-5.67 5.67s2.94-8.4 5.67-5.67m0 12c2.75 2.75-2.37 8.95-5.67 5.67s2.94-8.4 5.67-5.67Z"/>
    <path fill="none" stroke="#A57549" stroke-width=".3" d="M320 159c7.35-.82 7.19-10.09 4.77-16.77s-9.14-1.18-11.77 3.77c4.27 2.82 5.63 8.45 7 13Z"/>
    <path fill="none" stroke="#020203" stroke-width=".3" d="M371 140c-6.26 1.73-21.06-4.68-19 6 6.26-1.73 21.06 4.68 19-6Z"/>
    <path fill="none" stroke="#040707" stroke-width=".3" d="M396 140c-2.73-2.73-8.97 2.39-5.67 5.67s8.42-2.92 5.67-5.67Z"/>
    <path fill="none" stroke="#52321B" stroke-width=".3" d="M219 151c-.26-2.1-.26-4.9 0-7-.71 2.74-.72 4.21 0 7Z"/>
    <path fill="none" stroke="#E9CCB2" stroke-width=".3" d="M313 159c-3.35-17.93-27.15-12.94-41-13s-37.05-4.77-40 13c9.94-.7 17.85.93 28 0 10.14-.93 6.08 15.15 16 12-1.22-19.65 24.76-9.56 37-12Z"/>
    <path fill="none" stroke="#757578" stroke-width=".3" d="M352 153c4.55 2.1 13.93-2.8 18 0-1.75-1.75-16.46-2.3-18 0Z"/>
    <path fill="none" stroke="#9D3F3B" stroke-opacity=".36" stroke-width=".3" d="M191 159c.1-2.67-.37-3.56-1-6 .13 2.07.8 4.52 1 6Z"/>
    <path fill="none" stroke="#030304" stroke-width=".3" d="M370 153c-4.07-2.8-13.45 2.1-18 0v6h19c-.11-2.16.5-4.5-1-6Z"/>
    <path fill="none" stroke="#020409" stroke-width=".3" d="M396 153c-2.73-2.73-8.97 2.39-5.67 5.67s8.42-2.92 5.67-5.67Z"/>
    <path fill="none" stroke="#813734" stroke-opacity=".27" stroke-width=".3" d="M133 162c.3-1.85.85-4.51 1-7-.25 1.76-.82 4.6-1 7Z"/>
    <path fill="none" stroke="#001D26" stroke-width=".3" d="M233 165c2.9-1.5 10.66 0 14 0s11.1-1.5 14 0c-3.4-2.55-24.53-2.6-28 0Z"/>
    <path fill="none" stroke="#D4BEA9" stroke-width=".3" d="M225 165c-8.08-.58-8.08 13.34 0 13z"/>
    <path fill="none" stroke="#6BCAE4" stroke-width=".3" d="M233 190c2.99 1.48 10.59 0 14 0s11.01 1.48 14 0c3.49-2.52 3.92-22.06 0-25-2.9-1.5-10.66 0-14 0s-11.1-1.5-14 0c-3.88 2.91-3.52 22.46 0 25m26-10c-4.81 4.85-7.13-2.65-12.01-1.99-4.87.65-6.99 6.32-11.99 1.99 2.89-11.18 20.67-11.31 24 0Z"/>
    <path fill="none" stroke="#69CAE4" stroke-width=".3" d="M284 190c2.97 1.47 10.62.01 14 0s11.06 1.5 14 0c5.25-3.9.89-13.42 1.99-19.99S302.55 165.23 298 165s-17.9-1.26-16 6-3.82 14.8 2 19m26-10c-5.71 5.19-14.32-8.27-18 2-10.39-.63-2.85-8.63 3.03-9.97 5.87-1.35 12.95 1.45 14.97 7.97Z"/>
    <path fill="none" stroke="#D5BEAA" stroke-width=".3" d="M320 178c8.08.15 8.07-13.15 0-13z"/>
    <path fill="none" stroke="#040707" stroke-width=".3" d="M371 165c-6.26 1.73-21.06-4.68-19 6 6.26-1.73 21.06 4.68 19-6Z"/>
    <path fill="none" stroke="#04090C" stroke-width=".3" d="M396 165c-2.73-2.73-8.97 2.39-5.67 5.67s8.42-2.92 5.67-5.67Z"/>
    <path fill="none" stroke="#030E11" stroke-width=".3" d="M259 180c-3.33-11.31-21.11-11.18-24 0 5 4.33 7.12-1.34 11.99-1.99 4.88-.66 7.2 6.84 12.01 1.99Z"/>
    <path fill="none" stroke="#030D12" stroke-width=".3" d="M310 180c-2.02-6.52-9.1-9.32-14.97-7.97-5.88 1.34-13.42 9.34-3.03 9.97 3.68-10.27 12.29 3.19 18-2Z"/>
    <path fill="none" stroke="#6C2120" stroke-opacity=".09" stroke-width=".3" d="M131 190c0-6.23.31-12.03 1-18-1.31 6.12-1.87 11.62-1 18Z"/>
    <path fill="none" stroke="#CF5552" stroke-opacity=".6" stroke-width=".3" d="M214 192v-14c0-.5-.03-1.5 0-2-.26 3.33-3.2 12.92 0 16Z"/>
    <path fill="none" stroke="#480503" stroke-opacity=".03" stroke-width=".3" d="M214 191c1.69-2.29 1.39-7.86 1-11-.16-1.32-.31-1.15-1-2z"/>
    <path fill="none" stroke="#E8CBB1" stroke-width=".3" d="M267 228c3.27.18 6.73.18 10 0 16.81-.77 32.22-14.46 35-31-10.89-.18-19.2.7-29.97-1.03-10.77-1.72-.34-21.25-13.03-17.97.98 7.36.47 18.77-9 19s-17.65-.18-27 0c2.56 15.9 17.69 30.11 34 31m24-20c-4.69 10.9-18.21 7.55-28 8-1.94-13.07 19.05.22 22-11 2.09.97 4.22 1.44 6 3Z"/>
    <path fill="none" stroke="#C2C6CD" stroke-width=".3" d="M388 184c-7.67-2.99-8.53 13.25-11.07 18.93-2.55 5.68-3.63 14.66-6.94 22.06-3.3 7.4-1.91 13.2-6.67 22.33-4.75 9.14 5.37 12.12 7.37 2.37 2.01-9.74 5.18-14.36 6.98-22.02 1.81-7.66 5.53-16.68 6.41-22.59.87-5.91 9.28-18.99 3.92-21.08Z"/>
    <path fill="none" stroke="#D85B5C" stroke-opacity=".61" stroke-width=".3" d="M158 203c-.02-1 0-2 0-3 0-3.65-.2-7.36 0-11-.74 4.53-.82 9.39 0 14Z"/>
    <path fill="none" stroke="#3B6A76" stroke-width=".3" d="M261 190c-2.99 1.48-10.59 0-14 0s-11.01 1.48-14 0c3.55 2.56 24.38 2.61 28 0Z"/>
    <path fill="none" stroke="#3B6A77" stroke-width=".3" d="M312 190c-2.94 1.5-10.62-.01-14 0s-11.03 1.47-14 0c3.51 2.53 24.45 2.64 28 0Z"/>
    <path fill="none" stroke="#7F3738" stroke-opacity=".19" stroke-width=".3" d="M132 209c-.35-5.08-.41-10.2-1-15-.15 3.9.23 10.68 1 15Z"/>
    <path fill="none" stroke="#62211F" stroke-opacity=".09" stroke-width=".3" d="M158 203c.03 1.62.81 2.97 1 4-.1-2.36-.83-5.28-1-7 0 1-.02 2 0 3Z"/>
    <path fill="none" stroke="#0D0503" stroke-width=".3" d="M291 208c-1.78-1.56-3.91-2.03-6-3-2.95 11.22-23.94-2.07-22 11 9.79-.45 23.31 2.9 28-8Z"/>
    <path fill="none" stroke="#5D251F" stroke-opacity=".1" stroke-width=".3" d="M212 215c.44-1.99.84-4.4 1-7-.24 1.68-.71 4.73-1 7Z"/>
    <path fill="none" stroke="#000" stroke-opacity=".82" stroke-width=".3" d="M327 252c1.44-5.12 5.89-14.99 6.81-18.75.93-3.75 10.42-16.07-1.81-15.25-1.05 7.02-4.24 11.27-6.68 17.32-2.44 6.06-9.62 17.28 1.68 16.68Z"/>
    <path fill="none" stroke="#010101" stroke-opacity=".2" stroke-width=".3" d="M390 232c-1.28-3.78-.29-10.44-4-12-.13 3.63-2.1 7.08-3 11 2.26 1.04 4.55-.41 7 1Z"/>
    <path fill="none" stroke="#000" stroke-opacity=".82" stroke-width=".3" d="M345 223c-9.29 2.13-1.33 8.75 1 13-7.8.24-5.42 13.37-.25 10.75 5.16-2.63 6.49-9.3 10.25-12.75-3.97-3.11-7.81-7.02-11-11Zm-32 11c7.11-.86 6.02-12.23.25-9.75-5.78 2.47-6.59 7.79-10.25 11.75 3.97 3.11 7.81 7.02 11 11 9.17-2.32 1.47-8.53-1-13Z"/>
    <path fill="none" stroke="#7D6A66" stroke-width=".3" d="M277 228c-3.27.18-6.73.18-10 0 3.39.55 6.55.56 10 0Z"/>
    <path fill="none" stroke="#F4D171" stroke-width=".3" d="M273 235c-10.09-2.88-17.32 7.47-15.99 14.99 1.32 7.52 6.84 16.95 13.3 16.32 6.45-.64 18.62-6.55 14.62-12.24-4-5.68-3.94-16.79-11.93-19.07Z"/>
    <path fill="none" stroke="#030403" stroke-opacity=".51" stroke-width=".3" d="M380 240c1.83-1.39 8.84-1.98 11-1-3.13-2.96-8.41-3.23-11 1Z"/>
    <path fill="none" stroke="#DCC170" stroke-width=".3" d="M300 258c-.44-8.11-6.3-16.25-14-19 3.56 6.51 3.8 20.38 14 19Z"/>
    <path fill="none" stroke="#E4C8B0" stroke-width=".3" d="M293 279c2.66.14 5.34-.11 8 0 1.25-8.71 11.66-5.41 18-6-8.89-14.98-31.95-8.21-45-2 3.22 5.76 12.42 7.64 19 8Z"/>
    <path fill="none" stroke="#6B5A4E" stroke-width=".3" d="M301 279c-2.66-.11-5.34.14-8 0 2.47.4 5.36 2 8 0Z"/>
    <path fill="none" stroke="#5A5F63" stroke-width=".3" d="M308 286c-.04 0 0-1 0-1-.36-1.58.28-3.4 0-5h44c-4.15-4.32-20.88 1.05-26-1s-25.24-.02-18 7Z"/>
    <path fill="none" stroke="#5A5F64" stroke-width=".3" d="M371 280c4.46 1 10.73-1.34 15 0s12.43-2.43 16 0c-2.44-2.44-12.55-1.01-16-1s-13.23-1.66-15 1Z"/>
    <path fill="none" stroke="#AAB2BC" stroke-width=".3" d="M308 285c14.22-1.29 28.75.97 43 0v-5h-43c.28 1.6-.36 3.42 0 5Z"/>
    <path fill="none" stroke="#8C9198" stroke-width=".3" d="M308 285s-.04 1 0 1h44c-.38-1.9.5-4.14 0-6h-1v5c-14.25.97-28.78-1.29-43 0Z"/>
    <path fill="none" stroke="#A4ABB3" stroke-width=".3" d="M402 280c-3.57-2.43-11.73 1.34-16 0s-10.54 1-15 0v6c5.24.8 15.24-1.07 20 0s16.52-.48 11-6Z"/>
    <path fill="none" stroke="#F6F6F6" stroke-opacity=".93" stroke-width=".3" d="M260 310c-.76 2.45-.79 4.33-1 7-.99 12.52-4 24.36-4 37 0 7.28-.72 15.51-1 22-.26 7.87 1.42 18.3 8.92 21.07s12.91-3.17 17.33-7.82 12.51-13.76 6.97-18.47S275.85 382.45 269 380c-.13-8.97-.62-18.89 1-28 8.46-1.21 16.68-3.31 25-5-1.79-8.77-14.41-15.31-23-13 2.01-6.65 2.15-13.79 2-21 9.7-4.93 22.01-2.16 31-8-4.97-10.22-14.47-8.05-23.99-6.99-9.52 1.05-17.68 1.17-21.01 11.99Z"/>
    <path fill="none" stroke="#FAFAFA" stroke-opacity=".95" stroke-width=".3" d="M249 344c-.43-2.59-1.97-5.33 0-8 .22-.3.94-.76 1-1 2.15-14.78-10.13-32.81-26-29-5.95-10.82-20.42-4.76-20 7s-.71 25.9 0 37c.71 11.09-1.43 24.28-.99 33.99.44 9.72 16.62 14.38 23.91 12.93 7.29-1.44 14.97-15.83 16.15-22.85 1.18-7.01 9.02-23.15 5.93-30.07m-26 14c0-3.1.77-6.64 1-9 0-9.47.79-14.45.98-24.02.18-9.58 5.89-8.04 13.02-2.98.34 4.84 1.28 9.53 3 14-11 9.92-7.43 30.26-19 41-.76-6.61 1.37-12.47 1-19Z"/>
    <path fill="none" stroke="#F7F7F7" stroke-opacity=".94" stroke-width=".3" d="M193 314c.96-9.1-11.88-15.61-18.92-10.92s-10.83 10.61-14.78 18.22c-3.94 7.62-7.23 15.12-8.97 24.03S149.17 366.2 150 375s3.9 15.89 11.93 21.07c8.02 5.19 15.85-1.5 20.77-8.37 4.91-6.88 7.56-15.49 10.53-23.47s4.2-20.57 3.7-29.15c-.49-8.58-9.46-16.26-3.93-21.08m-11 34h3c-1.4 1.29-.21 4.46-3 4-2.1 10.9-10.73 21.87-16 31-6.74-21.35 5.8-42.46 16-60 4.89 7.07 1.96 16.68 0 25m-2 19c-2.41 6.31-5.72 1.59 0 0Z"/>
    <path fill="none" stroke="#F6F6F6" stroke-opacity=".93" stroke-width=".3" d="M144 313c-4.54-18.27-23.11-5.57-28.69 6.31-5.59 11.87-12.16 29.59-12.31 42.69s2.32 35.84 17.99 34.99S137.58 376.25 146 368c-10.48-8.87-17 13.21-27 16-4.31-24.76.96-59.34 25-71Z"/>
    <path fill="none" stroke="#F7F7F7" stroke-opacity=".93" stroke-width=".3" d="M378 378c-3.49 6.4-14.28 4.62-16.66 12.32-2.39 7.71 14.77 7.09 18.64 3.66 3.86-3.44 17.72-6.66 14.79-13.75s-9.06-11.3-9.99-19.01-4.35-15.72-4-23 .31-14.92 5.92-21.52c5.6-6.61 6.81-11.32-3.62-12.77-10.44-1.45-13.07 2.54-17.16 9.99-4.09 7.44-3.51 15.74-1.99 23s1.4 14.78 5.75 21.4c4.34 6.63 3.81 13.4 8.32 19.68Z"/>
    <path fill="none" stroke="#F8F8F8" stroke-opacity=".94" stroke-width=".3" d="M435 385c-1.08-8.79-8.34-14.24-10.22-22.78s-5.76-19.2-4.7-28.14c1.05-8.95 5.48-15.32 10.83-22.16 5.36-6.85-11.37-10.88-17.83-6.84-6.47 4.03-10.44 13.64-11.08 21.92s3.42 20.37 5.08 27.92 10.91 15.28 9.84 23c-1.08 7.71-16.47 6.24-16.92 15.08 11.42 9.32 24.94-1.63 35-8Z"/>
    <path fill="none" stroke="#7D7D7D" stroke-opacity=".08" stroke-width=".3" d="M259 317c.21-2.67.24-4.55 1-7-1.5 3.2-1.13 3.6-1 7Z"/>
    <path fill="none" stroke="#F6F6F6" stroke-opacity=".93" stroke-width=".3" d="M356 388c-9.43 1.15-11.22-7.82-18.92-11.08-7.71-3.25-11.56-8.35-7.05-15.89 4.5-7.55 5.31-12.38 10.22-18.78 4.9-6.41 5.9-14.69 4.01-21.51-1.9-6.82-15.11-10.22-21.25-8.73s-15.8-.37-17.23 7.77c-1.44 8.13-1.19 17.43-2.11 25.55s.68 15.58-.67 23.67 1.68 19.27 0 27c12.43 7.75 15.82-9.18 15-18 11.86 3.77 29.94 30.38 38 10m-38-37c-.14-3.48.74-7.29 1-10 0-5.41.19-10.13 2-15 5.53-.08 11.1-.35 16 2-5.23 9.56-12.36 19.81-19 29z"/>
    <path fill="none" d="M224 349c0 3.1-.77 6.64-1 9 .37 6.53-1.76 12.39-1 19 11.57-10.74 8-31.08 19-41-1.72-4.47-2.66-9.16-3-14-7.13-5.06-12.84-6.6-13.02 2.98-.19 9.57-.98 14.55-.98 24.02"/>
    <path fill="none" stroke="#000" stroke-opacity=".01" stroke-width=".3" d="M182 352c.24-1.27-.12-2.71 0-4 1.96-8.32 4.89-17.93 0-25-10.2 17.54-22.74 38.65-16 60 5.27-9.13 13.9-20.1 16-31Zm137-11c0 3.34-.84 7.42-1 10v6c6.64-9.19 13.77-19.44 19-29-4.9-2.35-10.47-2.08-16-2-1.81 4.87-2 9.59-2 15Z"/>
    <path fill="none" stroke="#686868" stroke-opacity=".13" stroke-width=".3" d="M249 336c-.4 2.16 0 4.8 0 7 1.48-2 1.15-5.26 1-8-.06.24-.78.7-1 1Z"/>
    <path fill="none" stroke="#F9F9F9" stroke-opacity=".79" stroke-width=".3" d="M249 344v-1c0-2.2-.4-4.84 0-7-1.97 2.67-.43 5.41 0 8Z"/>
    <path fill="none" stroke="#707070" stroke-opacity=".23" stroke-width=".3" d="M318 351c.16-2.58 1-6.66 1-10-.26 2.71-1.14 6.52-1 10Z"/>
    <path fill="none" stroke="#DADADA" stroke-opacity=".69" stroke-width=".3" d="M182 352c2.79.46 1.6-2.71 3-4h-3c-.12 1.29.24 2.73 0 4Z"/>
    <path fill="none" stroke="#656565" stroke-opacity=".21" stroke-width=".3" d="M223 358c.23-2.36 1-5.9 1-9-.23 2.36-1 5.9-1 9Z"/>
    <path fill="none" stroke="#7E7E7E" stroke-opacity=".27" stroke-width=".3" d="M254 376c.28-6.49 1-14.72 1-22-.63 6.56-1.4 14.66-1 22Z"/>
    <path fill="none" stroke="#262626" stroke-opacity=".07" stroke-width=".3" d="M180 367c-5.72 1.59-2.41 6.31 0 0Z"/>
    <path fill="none" stroke="None" d="M0 500h500V0H0v500m213-333c1.31-4.76 5.41-3.71 1.68-9.68s-2.54-14.36.09-20.55 2.63-6.38 7.13-8.87 5.71-3.22 7.49-6.65c1.79-3.43 3.01-4.75 4.41-7.5s5.93-5.83 6.59-7.5c.67-1.68 7.71-1.4 8.36-4.84.65-3.43 7.54-.42 9.25-3.41 1.58 1.67.97 4.81 2 7 8.66-2.26 13.44-9.53 22-11-.31 5.03.38 9.84 2 15 8.07-.17 13.09-5.65 19-9 2.7 4.36-.65 13.53 4.7 16.3 5.36 2.76 12.95-2.71 19.3-1.3-.79 7.99-4.22 17.46 2.19 23.25 6.42 5.79 2.94 15.53-.19 24.75 8.78 7.46.95 22.12-10 21 1.88 22.44-12.4 42.76-32 48 9.71 6.94 20.23 16.67 19 28 10.04-2.88 19.8 5.68 19 13 9.9-.17 20.81.24 30 0 10.23 12.43-1.97 24.1-15 18-13.04-6.1-35.03 10.46-39-6-14.08 1.5-31.4-4.49-40.75-15.25-9.36-10.76-14.63-24.61-2.25-36.75-17.03-6.59-35.71-25.88-32-48-4.49-.52-7.14-2.6-11-5 .39 3.14.69 8.71-1 11v1c.54 5.73-.66 10.29-1 16-.16 2.6-.56 5.01-1 7-3.75 16.93-7.66 30.71-19.25 43.75-11.58 13.05-31.51 7.87-42-4.5-10.49-12.38-17.63-28.86-18.75-45.25-.77-4.32-1.15-11.1-1-15-.16-1.29 0-2.7 0-4-.87-6.38-.31-11.88 1-18 .4-3.47.73-6.49 1-10 .18-2.4.75-5.24 1-7 1.03-17.29 10.02-31.31 17-47 6.12-6 12.2-4.81 19.67-8.33S158.83 89.25 161 85c18.93-5.16 31.77 11.26 37.92 28.08 6.15 16.81 13.72 34.86 14.08 53.92m178 72c-2.16-.98-9.17-.39-11 1-3.4 5.57-3.34 11.58-6.3 18.7-2.96 7.13-19.32 5.94-19.62-2.78-.31-8.71 5.16-15.11 6.27-22.62 1.12-7.5 5.01-10.97 6.58-20.37 1.56-9.41 5.26-13.63 7.07-20.93-10.28-2.61-24.17.49-33-2-3.15-24.75 1.1-53.39-2-79 9.71-5.29 23.57-3 35-3s25.32-2.28 35 3c-.64 24.8 1.27 54.42-1 78-4.02 3.26-9.56 1.07-14 3 .62 5.56-4.34 10.67-2.22 18.22s1.91 13.23 4.48 17.97c2.56 4.74 3.91 16.77 5.09 21.51 1.19 4.73 6.65 13.1 6.29 19-.35 5.9 4.96 19.31-2.72 23.22-7.69 3.9-18.13-3.42-27.92-.92 3.15 3.18-9.19 3.04-11.25-.76-2.05-3.8-4.18-13.83 1.95-16.54s13.06-1.41 20.3-1.7 14.64 2.07 12.1-6.1c-2.54-8.16-3.74-17.11-9.1-26.9m-64 13c-11.3.6-4.12-10.62-1.68-16.68 2.44-6.05 5.63-10.3 6.68-17.32 12.23-.82 2.74 11.5 1.81 15.25-.92 3.76-5.37 13.63-6.81 18.75m18-29c3.19 3.98 7.03 7.89 11 11-3.76 3.45-5.09 10.12-10.25 12.75-5.17 2.62-7.55-10.51.25-10.75-2.33-4.25-10.29-10.87-1-13m-32 11c2.47 4.47 10.17 10.68 1 13-3.19-3.98-7.03-7.89-11-11 3.66-3.96 4.47-9.28 10.25-11.75 5.77-2.48 6.86 8.89-.25 9.75m-59 142c-.4-7.34.37-15.44 1-22 0-12.64 3.01-24.48 4-37-.13-3.4-.5-3.8 1-7 3.33-10.82 11.49-10.94 21.01-11.99 9.52-1.06 19.02-3.23 23.99 6.99-8.99 5.84-21.3 3.07-31 8 .15 7.21.01 14.35-2 21 8.59-2.31 21.21 4.23 23 13-8.32 1.69-16.54 3.79-25 5-1.62 9.11-1.13 19.03-1 28 6.85 2.45 12.68-13.93 18.22-9.22s-2.55 13.82-6.97 18.47-9.83 10.59-17.33 7.82-9.18-13.2-8.92-21.07m-4-41c.15 2.74.48 6-1 8v1c3.09 6.92-4.75 23.06-5.93 30.07-1.18 7.02-8.86 21.41-16.15 22.85-7.29 1.45-23.47-3.21-23.91-12.93-.44-9.71 1.7-22.9.99-33.99-.71-11.1.42-25.24 0-37s14.05-17.82 20-7c15.87-3.81 28.15 14.22 26 29m-57-21c-5.53 4.82 3.44 12.5 3.93 21.08.5 8.58-.73 21.17-3.7 29.15s-5.62 16.59-10.53 23.47c-4.92 6.87-12.75 13.56-20.77 8.37-8.03-5.18-11.1-12.27-11.93-21.07s-1.41-20.76.33-29.67 5.03-16.41 8.97-24.03c3.95-7.61 7.74-13.53 14.78-18.22S193.96 304.9 193 314m-49-1c-24.04 11.66-29.31 46.24-25 71 10-2.79 16.52-24.87 27-16-8.42 8.25-9.34 28.14-25.01 28.99S102.85 375.1 103 362s6.72-30.82 12.31-42.69c5.58-11.88 24.15-24.58 28.69-6.31m234 65c-4.51-6.28-3.98-13.05-8.32-19.68-4.35-6.62-4.23-14.14-5.75-21.4s-2.1-15.56 1.99-23c4.09-7.45 6.72-11.44 17.16-9.99 10.43 1.45 9.22 6.16 3.62 12.77-5.61 6.6-5.57 14.24-5.92 21.52s3.07 15.29 4 23 7.06 11.92 9.99 19.01-10.93 10.31-14.79 13.75c-3.87 3.43-21.03 4.05-18.64-3.66 2.38-7.7 13.17-5.92 16.66-12.32m57 7c-10.06 6.37-23.58 17.32-35 8 .45-8.84 15.84-7.37 16.92-15.08 1.07-7.72-8.18-15.45-9.84-23S401.36 335.28 402 327s4.61-17.89 11.08-21.92c6.46-4.04 23.19-.01 17.83 6.84-5.35 6.84-9.78 13.21-10.83 22.16-1.06 8.94 2.82 19.6 4.7 28.14S433.92 376.21 435 385m-79 3c-8.06 20.38-26.14-6.23-38-10 .82 8.82-2.57 25.75-15 18 1.68-7.73-1.35-18.91 0-27s-.25-15.55.67-23.67.67-17.42 2.11-25.55c1.43-8.14 11.09-6.28 17.23-7.77s19.35 1.91 21.25 8.73c1.89 6.82.89 15.1-4.01 21.51-4.91 6.4-5.72 11.23-10.22 18.78-4.51 7.54-.66 12.64 7.05 15.89 7.7 3.26 9.49 12.23 18.92 11.08Z"/>
    <path fill="#F75757" fill-opacity=".96" stroke="None" d="M134 155c-.15 2.49-.7 5.15-1 7-.27 3.51-.6 6.53-1 10-.69 5.97-1 11.77-1 18 0 1.3-.16 2.71 0 4 .59 4.8.65 9.92 1 15 1.12 16.39 8.26 32.87 18.75 45.25 10.49 12.37 30.42 17.55 42 4.5 11.59-13.04 15.5-26.82 19.25-43.75.29-2.27.76-5.32 1-7 .34-5.71 1.54-10.27 1-16-3.2-3.08-.26-12.67 0-16 .21-3.34-.44-5.93-1-9-.36-19.06-7.93-37.11-14.08-53.92C192.77 96.26 179.93 79.84 161 85c-2.17 4.25 17.14 11.15 9.67 14.67S157.12 102 151 108c-6.98 15.69-15.97 29.71-17 47m56-2c.63 2.44 1.1 3.33 1 6 2.06 15.15-.19 31.72-3 46-2.8 14.28-5.57 30.2-17 38-6.34-11.56-11.66-22.55-12-36-.19-1.03-.97-2.38-1-4-.82-4.61-.74-9.47 0-14 1.49-27.4 5.45-58.49 20-81 5.52 14.42 10.64 29.21 12 45Z"/>
    <path fill="#040202" fill-opacity=".97" stroke="None" d="M213 167c.56 3.07 1.21 5.66 1 9-.03.5 0 1.5 0 2 .69.85.84.68 1 2 3.86 2.4 6.51 4.48 11 5-3.71 22.12 14.97 41.41 32 48-12.38 12.14-7.11 25.99 2.25 36.75C269.6 280.51 286.92 286.5 301 285c3.97 16.46 25.96-.1 39 6 13.03 6.1 25.23-5.57 15-18-9.19.24-20.1-.17-30 0 .8-7.32-8.96-15.88-19-13 1.23-11.33-9.29-21.06-19-28 19.6-5.24 33.88-25.56 32-48 10.95 1.12 18.78-13.54 10-21 3.13-9.22 6.61-18.96.19-24.75-6.41-5.79-2.98-15.26-2.19-23.25-6.35-1.41-13.94 4.06-19.3 1.3-5.35-2.77-2-11.94-4.7-16.3-5.91 3.35-10.93 8.83-19 9-1.62-5.16-2.31-9.97-2-15-8.56 1.47-13.34 8.74-22 11-1.03-2.19-.42-5.33-2-7-1.71 2.99-8.6-.02-9.25 3.41-.65 3.44-7.69 3.16-8.36 4.84-.66 1.67-5.19 4.75-6.59 7.5s-2.62 4.07-4.41 7.5c-1.78 3.43-2.99 4.16-7.49 6.65s-4.5 2.68-7.13 8.87-3.82 14.58-.09 20.55-.37 4.92-1.68 9.68m64-63c.37 5.06 1.63 9.91 2 15 6.99-2.03 12.99-6.97 20-9 1.2 4.61 1.15 9.54 3 14 6.18.12 11.61-2.86 18-2-2.06 16.22-12.92 19.91-28 18s-33.6 1.44-49 0c-2.32-6.1-10.52-12.29-5.69-18.69 4.82-6.41 8.02-11.78 15.69-14.31v9c8.69-2.02 15.19-9.84 24-12m-58 47c-.72-2.79-.71-4.26 0-7 1.45-5.59 5.08-12.46 12-12 1.3 3.56 4.19 6.56 6 10-6.51 3.4-11.1 9.87-12 17-4.07.41-5.22-4.87-6-8m101 8c-1.37-4.55-2.73-10.18-7-13 2.63-4.95 9.35-10.45 11.77-3.77s2.58 15.95-4.77 16.77m-7 0c-12.24 2.44-38.22-7.65-37 12-9.92 3.15-5.86-12.93-16-12-10.15.93-18.06-.7-28 0 2.95-17.77 26.15-13.06 40-13s37.65-4.93 41 13m-52 6c3.92 2.94 3.49 22.48 0 25-3.62 2.61-24.45 2.56-28 0-3.52-2.54-3.88-22.09 0-25 3.47-2.6 24.6-2.55 28 0m-36 0v13c-8.08.34-8.08-13.58 0-13m87 25c-3.55 2.64-24.49 2.53-28 0-5.82-4.2-.1-11.74-2-19s11.45-6.23 16-6 17.09-1.56 15.99 5.01S317.25 186.1 312 190m8-12v-13c8.07-.15 8.08 13.15 0 13m-43 50c-3.45.56-6.61.55-10 0-16.31-.89-31.44-15.1-34-31 9.35-.18 17.53.23 27 0s9.98-11.64 9-19c12.69-3.28 2.26 16.25 13.03 17.97 10.77 1.73 19.08.85 29.97 1.03-2.78 16.54-18.19 30.23-35 31m-4 7c7.99 2.28 7.93 13.39 11.93 19.07 4 5.69-8.17 11.6-14.62 12.24-6.46.63-11.98-8.8-13.3-16.32-1.33-7.52 5.9-17.87 15.99-14.99m27 23c-10.2 1.38-10.44-12.49-14-19 7.7 2.75 13.56 10.89 14 19m1 21c-2.64 2-5.53.4-8 0-6.58-.36-15.78-2.24-19-8 13.05-6.21 36.11-12.98 45 2-6.34.59-16.75-2.71-18 6m51 1c.5 1.86-.38 4.1 0 6h-44c-7.24-7.02 12.88-9.05 18-7s21.85-3.32 26 1Z"/>
    <path fill="#AC7646" stroke="None" d="M277 104c-8.81 2.16-15.31 9.98-24 12v-9c-7.67 2.53-10.87 7.9-15.69 14.31-4.83 6.4 3.37 12.59 5.69 18.69 15.4 1.44 33.92-1.91 49 0s25.94-1.78 28-18c-6.39-.86-11.82 2.12-18 2-1.85-4.46-1.8-9.39-3-14-7.01 2.03-13.01 6.97-20 9-.37-5.09-1.63-9.94-2-15Z"/>
    <path fill="none" stroke="None" d="M158 189c-.2 3.64 0 7.35 0 11 .17 1.72.9 4.64 1 7 .34 13.45 5.66 24.44 12 36 11.43-7.8 14.2-23.72 17-38 2.81-14.28 5.06-30.85 3-46-.2-1.48-.87-3.93-1-6-1.36-15.79-6.48-30.58-12-45-14.55 22.51-18.51 53.6-20 81Z"/>
    <path fill="#000101" fill-opacity=".95" stroke="None" d="M380 240c2.59-4.23 7.87-3.96 11-1 5.36 9.79 6.56 18.74 9.1 26.9 2.54 8.17-4.86 5.81-12.1 6.1s-14.17-1.01-20.3 1.7-4 12.74-1.95 16.54c2.06 3.8 14.4 3.94 11.25.76 9.79-2.5 20.23 4.82 27.92.92 7.68-3.91 2.37-17.32 2.72-23.22.36-5.9-5.1-14.27-6.29-19-1.18-4.74-2.53-16.77-5.09-21.51-2.57-4.74-2.36-10.42-4.48-17.97s2.84-12.66 2.22-18.22c4.44-1.93 9.98.26 14-3 2.27-23.58.36-53.2 1-78-9.68-5.28-23.57-3-35-3s-25.29-2.29-35 3c3.1 25.61-1.15 54.25 2 79 8.83 2.49 22.72-.61 33 2-1.81 7.3-5.51 11.52-7.07 20.93-1.57 9.4-5.46 12.87-6.58 20.37-1.11 7.51-6.58 13.91-6.27 22.62.3 8.72 16.66 9.91 19.62 2.78 2.96-7.12 2.9-13.13 6.3-18.7m-9-114c-2.09-1.66-.52-7.36-6-5-.47 1.88 1.06 4.93-1 6-4.76 2.9-7.54-3.19-6-7-9.18-3.05-3.02 10.9-13 7-3.8-13.22 5-13.43 15-13s18 .43 28 0 18.78-.23 15 13c-10.5-.67-22.32 1.33-32-1m6 8c3.56 5.08-2 13.53 0 20s-1.89 13.55 0 21-3.66 10.44-11 9-13.74 1.08-21 0c.67-16.5-1.33-34.32 1-50 2.33-2.33 11.56-1.24 15-1s14.05-1.78 16 1m26 0c2.58 3.68-1.12 11.24 0 16s-.59 11.81 0 17-.44 11.69 0 17c-8.28 2.41-10.24-8.76-19-6-3.32-2.7-.91-17.45-1-22s-2.07-18.93 1-22c1.89-1.89 17.42-2.26 19 0m-15 50c5.36 2.09-3.05 15.17-3.92 21.08-.88 5.91-4.6 14.93-6.41 22.59-1.8 7.66-4.97 12.28-6.98 22.02-2 9.75-12.12 6.77-7.37-2.37 4.76-9.13 3.37-14.93 6.67-22.33 3.31-7.4 4.39-16.38 6.94-22.06 2.54-5.68 3.4-21.92 11.07-18.93m2 48c-2.45-1.41-4.74.04-7-1 .9-3.92 2.87-7.37 3-11 3.71 1.56 2.72 8.22 4 12m12 48c5.52 5.52-6.24 7.07-11 6s-14.76.8-20 0v-6c1.77-2.66 11.55-.99 15-1s13.56-1.44 16 1Z"/>
    <path fill="#ADD07E" stroke="None" d="M364 127c-1.5-5.13 1.89-8.44 7-7v6c9.68 2.33 21.5.33 32 1 3.78-13.23-5-13.43-15-13s-18 .43-28 0-18.8-.22-15 13c9.98 3.9 3.82-10.05 13-7-1.54 3.81 1.24 9.9 6 7Z"/>
    <path fill="#465A31" stroke="None" d="M364 127c2.06-1.07.53-4.12 1-6 5.48-2.36 3.91 3.34 6 5v-6c-5.11-1.44-8.5 1.87-7 7Z"/>
    <path fill="#A97649" stroke="None" d="M219 144c-.26 2.1-.26 4.9 0 7 .78 3.13 1.93 8.41 6 8 .9-7.13 5.49-13.6 12-17-1.81-3.44-4.7-6.44-6-10-6.92-.46-10.55 6.41-12 12Z"/>
    <path fill="#7A7B7E" stroke="None" d="M346 134c3.45-2.41 10.65 1.19 15 0s11.4.89 16 0c-1.95-2.78-12.56-.76-16-1s-12.67-1.33-15 1Z"/>
    <path fill="#78797C" stroke="None" d="M384 134h19c-1.58-2.26-17.11-1.89-19 0Z"/>
    <path fill="#DEE0E5" stroke="None" d="M377 134c-4.6.89-11.65-1.19-16 0s-11.55-2.41-15 0c-2.33 15.68-.33 33.5-1 50 7.26 1.08 13.66-1.44 21 0s12.89-1.55 11-9 2-14.53 0-21 3.56-14.92 0-20m-6 6c2.06 10.68-12.74 4.27-19 6-2.06-10.68 12.74-4.27 19-6m-1 13c1.5 1.5.89 3.84 1 6h-19v-6c1.54-2.3 16.25-1.75 18 0m1 12c2.06 10.68-12.74 4.27-19 6-2.06-10.68 12.74-4.27 19-6Z"/>
    <path fill="#5B5C5F" stroke="None" d="M384 178v-44c-3.07 3.07-1.09 17.45-1 22s-2.32 19.3 1 22Z"/>
    <path fill="#DBDDE1" stroke="None" d="M384 178c8.76-2.76 10.72 8.41 19 6-.44-5.31.59-11.81 0-17s1.12-12.24 0-17 2.58-12.32 0-16h-19v44m12-38c2.75 2.75-2.37 8.95-5.67 5.67s2.94-8.4 5.67-5.67m0 13c2.75 2.75-2.37 8.95-5.67 5.67s2.94-8.4 5.67-5.67m0 12c2.75 2.75-2.37 8.95-5.67 5.67s2.94-8.4 5.67-5.67Z"/>
    <path fill="#A57549" stroke="None" d="M320 159c7.35-.82 7.19-10.09 4.77-16.77s-9.14-1.18-11.77 3.77c4.27 2.82 5.63 8.45 7 13Z"/>
    <path fill="#020203" stroke="None" d="M371 140c-6.26 1.73-21.06-4.68-19 6 6.26-1.73 21.06 4.68 19-6Z"/>
    <path fill="#040707" stroke="None" d="M396 140c-2.73-2.73-8.97 2.39-5.67 5.67s8.42-2.92 5.67-5.67Z"/>
    <path fill="#52321B" stroke="None" d="M219 151c-.26-2.1-.26-4.9 0-7-.71 2.74-.72 4.21 0 7Z"/>
    <path fill="#E9CCB2" stroke="None" d="M313 159c-3.35-17.93-27.15-12.94-41-13s-37.05-4.77-40 13c9.94-.7 17.85.93 28 0 10.14-.93 6.08 15.15 16 12-1.22-19.65 24.76-9.56 37-12Z"/>
    <path fill="#757578" stroke="None" d="M352 153c4.55 2.1 13.93-2.8 18 0-1.75-1.75-16.46-2.3-18 0Z"/>
    <path fill="#9D3F3B" fill-opacity=".36" stroke="None" d="M191 159c.1-2.67-.37-3.56-1-6 .13 2.07.8 4.52 1 6Z"/>
    <path fill="#030304" stroke="None" d="M370 153c-4.07-2.8-13.45 2.1-18 0v6h19c-.11-2.16.5-4.5-1-6Z"/>
    <path fill="#020409" stroke="None" d="M396 153c-2.73-2.73-8.97 2.39-5.67 5.67s8.42-2.92 5.67-5.67Z"/>
    <path fill="#813734" fill-opacity=".27" stroke="None" d="M133 162c.3-1.85.85-4.51 1-7-.25 1.76-.82 4.6-1 7Z"/>
    <path fill="#001D26" stroke="None" d="M233 165c2.9-1.5 10.66 0 14 0s11.1-1.5 14 0c-3.4-2.55-24.53-2.6-28 0Z"/>
    <path fill="#D4BEA9" stroke="None" d="M225 165c-8.08-.58-8.08 13.34 0 13z"/>
    <path fill="#6BCAE4" stroke="None" d="M233 190c2.99 1.48 10.59 0 14 0s11.01 1.48 14 0c3.49-2.52 3.92-22.06 0-25-2.9-1.5-10.66 0-14 0s-11.1-1.5-14 0c-3.88 2.91-3.52 22.46 0 25m26-10c-4.81 4.85-7.13-2.65-12.01-1.99-4.87.65-6.99 6.32-11.99 1.99 2.89-11.18 20.67-11.31 24 0Z"/>
    <path fill="#69CAE4" stroke="None" d="M284 190c2.97 1.47 10.62.01 14 0s11.06 1.5 14 0c5.25-3.9.89-13.42 1.99-19.99S302.55 165.23 298 165s-17.9-1.26-16 6-3.82 14.8 2 19m26-10c-5.71 5.19-14.32-8.27-18 2-10.39-.63-2.85-8.63 3.03-9.97 5.87-1.35 12.95 1.45 14.97 7.97Z"/>
    <path fill="#D5BEAA" stroke="None" d="M320 178c8.08.15 8.07-13.15 0-13z"/>
    <path fill="#040707" stroke="None" d="M371 165c-6.26 1.73-21.06-4.68-19 6 6.26-1.73 21.06 4.68 19-6Z"/>
    <path fill="#04090C" stroke="None" d="M396 165c-2.73-2.73-8.97 2.39-5.67 5.67s8.42-2.92 5.67-5.67Z"/>
    <path fill="#030E11" stroke="None" d="M259 180c-3.33-11.31-21.11-11.18-24 0 5 4.33 7.12-1.34 11.99-1.99 4.88-.66 7.2 6.84 12.01 1.99Z"/>
    <path fill="#030D12" stroke="None" d="M310 180c-2.02-6.52-9.1-9.32-14.97-7.97-5.88 1.34-13.42 9.34-3.03 9.97 3.68-10.27 12.29 3.19 18-2Z"/>
    <path fill="#6C2120" fill-opacity=".09" stroke="None" d="M131 190c0-6.23.31-12.03 1-18-1.31 6.12-1.87 11.62-1 18Z"/>
    <path fill="#CF5552" fill-opacity=".6" stroke="None" d="M214 192v-14c0-.5-.03-1.5 0-2-.26 3.33-3.2 12.92 0 16Z"/>
    <path fill="#480503" fill-opacity=".03" stroke="None" d="M214 191c1.69-2.29 1.39-7.86 1-11-.16-1.32-.31-1.15-1-2z"/>
    <path fill="#E8CBB1" stroke="None" d="M267 228c3.27.18 6.73.18 10 0 16.81-.77 32.22-14.46 35-31-10.89-.18-19.2.7-29.97-1.03-10.77-1.72-.34-21.25-13.03-17.97.98 7.36.47 18.77-9 19s-17.65-.18-27 0c2.56 15.9 17.69 30.11 34 31m24-20c-4.69 10.9-18.21 7.55-28 8-1.94-13.07 19.05.22 22-11 2.09.97 4.22 1.44 6 3Z"/>
    <path fill="#C2C6CD" stroke="None" d="M388 184c-7.67-2.99-8.53 13.25-11.07 18.93-2.55 5.68-3.63 14.66-6.94 22.06-3.3 7.4-1.91 13.2-6.67 22.33-4.75 9.14 5.37 12.12 7.37 2.37 2.01-9.74 5.18-14.36 6.98-22.02 1.81-7.66 5.53-16.68 6.41-22.59.87-5.91 9.28-18.99 3.92-21.08Z"/>
    <path fill="#D85B5C" fill-opacity=".61" stroke="None" d="M158 203c-.02-1 0-2 0-3 0-3.65-.2-7.36 0-11-.74 4.53-.82 9.39 0 14Z"/>
    <path fill="#3B6A76" stroke="None" d="M261 190c-2.99 1.48-10.59 0-14 0s-11.01 1.48-14 0c3.55 2.56 24.38 2.61 28 0Z"/>
    <path fill="#3B6A77" stroke="None" d="M312 190c-2.94 1.5-10.62-.01-14 0s-11.03 1.47-14 0c3.51 2.53 24.45 2.64 28 0Z"/>
    <path fill="#7F3738" fill-opacity=".19" stroke="None" d="M132 209c-.35-5.08-.41-10.2-1-15-.15 3.9.23 10.68 1 15Z"/>
    <path fill="#62211F" fill-opacity=".09" stroke="None" d="M158 203c.03 1.62.81 2.97 1 4-.1-2.36-.83-5.28-1-7 0 1-.02 2 0 3Z"/>
    <path fill="#0D0503" stroke="None" d="M291 208c-1.78-1.56-3.91-2.03-6-3-2.95 11.22-23.94-2.07-22 11 9.79-.45 23.31 2.9 28-8Z"/>
    <path fill="#5D251F" fill-opacity=".1" stroke="None" d="M212 215c.44-1.99.84-4.4 1-7-.24 1.68-.71 4.73-1 7Z"/>
    <path fill-opacity=".82" stroke="None" d="M327 252c1.44-5.12 5.89-14.99 6.81-18.75.93-3.75 10.42-16.07-1.81-15.25-1.05 7.02-4.24 11.27-6.68 17.32-2.44 6.06-9.62 17.28 1.68 16.68Z"/>
    <path fill="#010101" fill-opacity=".2" stroke="None" d="M390 232c-1.28-3.78-.29-10.44-4-12-.13 3.63-2.1 7.08-3 11 2.26 1.04 4.55-.41 7 1Z"/>
    <path fill-opacity=".82" stroke="None" d="M345 223c-9.29 2.13-1.33 8.75 1 13-7.8.24-5.42 13.37-.25 10.75 5.16-2.63 6.49-9.3 10.25-12.75-3.97-3.11-7.81-7.02-11-11Zm-32 11c7.11-.86 6.02-12.23.25-9.75-5.78 2.47-6.59 7.79-10.25 11.75 3.97 3.11 7.81 7.02 11 11 9.17-2.32 1.47-8.53-1-13Z"/>
    <path fill="#7D6A66" stroke="None" d="M277 228c-3.27.18-6.73.18-10 0 3.39.55 6.55.56 10 0Z"/>
    <path fill="#F4D171" stroke="None" d="M273 235c-10.09-2.88-17.32 7.47-15.99 14.99 1.32 7.52 6.84 16.95 13.3 16.32 6.45-.64 18.62-6.55 14.62-12.24-4-5.68-3.94-16.79-11.93-19.07Z"/>
    <path fill="#030403" fill-opacity=".51" stroke="None" d="M380 240c1.83-1.39 8.84-1.98 11-1-3.13-2.96-8.41-3.23-11 1Z"/>
    <path fill="#DCC170" stroke="None" d="M300 258c-.44-8.11-6.3-16.25-14-19 3.56 6.51 3.8 20.38 14 19Z"/>
    <path fill="#E4C8B0" stroke="None" d="M293 279c2.66.14 5.34-.11 8 0 1.25-8.71 11.66-5.41 18-6-8.89-14.98-31.95-8.21-45-2 3.22 5.76 12.42 7.64 19 8Z"/>
    <path fill="#6B5A4E" stroke="None" d="M301 279c-2.66-.11-5.34.14-8 0 2.47.4 5.36 2 8 0Z"/>
    <path fill="#5A5F63" stroke="None" d="M308 286c-.04 0 0-1 0-1-.36-1.58.28-3.4 0-5h44c-4.15-4.32-20.88 1.05-26-1s-25.24-.02-18 7Z"/>
    <path fill="#5A5F64" stroke="None" d="M371 280c4.46 1 10.73-1.34 15 0s12.43-2.43 16 0c-2.44-2.44-12.55-1.01-16-1s-13.23-1.66-15 1Z"/>
    <path fill="#AAB2BC" stroke="None" d="M308 285c14.22-1.29 28.75.97 43 0v-5h-43c.28 1.6-.36 3.42 0 5Z"/>
    <path fill="#8C9198" stroke="None" d="M308 285s-.04 1 0 1h44c-.38-1.9.5-4.14 0-6h-1v5c-14.25.97-28.78-1.29-43 0Z"/>
    <path fill="#A4ABB3" stroke="None" d="M402 280c-3.57-2.43-11.73 1.34-16 0s-10.54 1-15 0v6c5.24.8 15.24-1.07 20 0s16.52-.48 11-6Z"/>
    <path fill="#F6F6F6" fill-opacity=".93" stroke="None" d="M260 310c-.76 2.45-.79 4.33-1 7-.99 12.52-4 24.36-4 37 0 7.28-.72 15.51-1 22-.26 7.87 1.42 18.3 8.92 21.07s12.91-3.17 17.33-7.82 12.51-13.76 6.97-18.47S275.85 382.45 269 380c-.13-8.97-.62-18.89 1-28 8.46-1.21 16.68-3.31 25-5-1.79-8.77-14.41-15.31-23-13 2.01-6.65 2.15-13.79 2-21 9.7-4.93 22.01-2.16 31-8-4.97-10.22-14.47-8.05-23.99-6.99-9.52 1.05-17.68 1.17-21.01 11.99Z"/>
    <path fill="#FAFAFA" fill-opacity=".95" stroke="None" d="M249 344c-.43-2.59-1.97-5.33 0-8 .22-.3.94-.76 1-1 2.15-14.78-10.13-32.81-26-29-5.95-10.82-20.42-4.76-20 7s-.71 25.9 0 37c.71 11.09-1.43 24.28-.99 33.99.44 9.72 16.62 14.38 23.91 12.93 7.29-1.44 14.97-15.83 16.15-22.85 1.18-7.01 9.02-23.15 5.93-30.07m-26 14c0-3.1.77-6.64 1-9 0-9.47.79-14.45.98-24.02.18-9.58 5.89-8.04 13.02-2.98.34 4.84 1.28 9.53 3 14-11 9.92-7.43 30.26-19 41-.76-6.61 1.37-12.47 1-19Z"/>
    <path fill="#F7F7F7" fill-opacity=".94" stroke="None" d="M193 314c.96-9.1-11.88-15.61-18.92-10.92s-10.83 10.61-14.78 18.22c-3.94 7.62-7.23 15.12-8.97 24.03S149.17 366.2 150 375s3.9 15.89 11.93 21.07c8.02 5.19 15.85-1.5 20.77-8.37 4.91-6.88 7.56-15.49 10.53-23.47s4.2-20.57 3.7-29.15c-.49-8.58-9.46-16.26-3.93-21.08m-11 34h3c-1.4 1.29-.21 4.46-3 4-2.1 10.9-10.73 21.87-16 31-6.74-21.35 5.8-42.46 16-60 4.89 7.07 1.96 16.68 0 25m-2 19c-2.41 6.31-5.72 1.59 0 0Z"/>
    <path fill="#F6F6F6" fill-opacity=".93" stroke="None" d="M144 313c-4.54-18.27-23.11-5.57-28.69 6.31-5.59 11.87-12.16 29.59-12.31 42.69s2.32 35.84 17.99 34.99S137.58 376.25 146 368c-10.48-8.87-17 13.21-27 16-4.31-24.76.96-59.34 25-71Z"/>
    <path fill="#F7F7F7" fill-opacity=".93" stroke="None" d="M378 378c-3.49 6.4-14.28 4.62-16.66 12.32-2.39 7.71 14.77 7.09 18.64 3.66 3.86-3.44 17.72-6.66 14.79-13.75s-9.06-11.3-9.99-19.01-4.35-15.72-4-23 .31-14.92 5.92-21.52c5.6-6.61 6.81-11.32-3.62-12.77-10.44-1.45-13.07 2.54-17.16 9.99-4.09 7.44-3.51 15.74-1.99 23s1.4 14.78 5.75 21.4c4.34 6.63 3.81 13.4 8.32 19.68Z"/>
    <path fill="#F8F8F8" fill-opacity=".94" stroke="None" d="M435 385c-1.08-8.79-8.34-14.24-10.22-22.78s-5.76-19.2-4.7-28.14c1.05-8.95 5.48-15.32 10.83-22.16 5.36-6.85-11.37-10.88-17.83-6.84-6.47 4.03-10.44 13.64-11.08 21.92s3.42 20.37 5.08 27.92 10.91 15.28 9.84 23c-1.08 7.71-16.47 6.24-16.92 15.08 11.42 9.32 24.94-1.63 35-8Z"/>
    <path fill="#7D7D7D" fill-opacity=".08" stroke="None" d="M259 317c.21-2.67.24-4.55 1-7-1.5 3.2-1.13 3.6-1 7Z"/>
    <path fill="#F6F6F6" fill-opacity=".93" stroke="None" d="M356 388c-9.43 1.15-11.22-7.82-18.92-11.08-7.71-3.25-11.56-8.35-7.05-15.89 4.5-7.55 5.31-12.38 10.22-18.78 4.9-6.41 5.9-14.69 4.01-21.51-1.9-6.82-15.11-10.22-21.25-8.73s-15.8-.37-17.23 7.77c-1.44 8.13-1.19 17.43-2.11 25.55s.68 15.58-.67 23.67 1.68 19.27 0 27c12.43 7.75 15.82-9.18 15-18 11.86 3.77 29.94 30.38 38 10m-38-37c-.14-3.48.74-7.29 1-10 0-5.41.19-10.13 2-15 5.53-.08 11.1-.35 16 2-5.23 9.56-12.36 19.81-19 29z"/>
    <path fill="none" stroke="None" d="M224 349c0 3.1-.77 6.64-1 9 .37 6.53-1.76 12.39-1 19 11.57-10.74 8-31.08 19-41-1.72-4.47-2.66-9.16-3-14-7.13-5.06-12.84-6.6-13.02 2.98-.19 9.57-.98 14.55-.98 24.02Z"/>
    <path fill-opacity=".01" stroke="None" d="M182 352c.24-1.27-.12-2.71 0-4 1.96-8.32 4.89-17.93 0-25-10.2 17.54-22.74 38.65-16 60 5.27-9.13 13.9-20.1 16-31Zm137-11c0 3.34-.84 7.42-1 10v6c6.64-9.19 13.77-19.44 19-29-4.9-2.35-10.47-2.08-16-2-1.81 4.87-2 9.59-2 15Z"/>
    <path fill="#686868" fill-opacity=".13" stroke="None" d="M249 336c-.4 2.16 0 4.8 0 7 1.48-2 1.15-5.26 1-8-.06.24-.78.7-1 1Z"/>
    <path fill="#F9F9F9" fill-opacity=".79" stroke="None" d="M249 344v-1c0-2.2-.4-4.84 0-7-1.97 2.67-.43 5.41 0 8Z"/>
    <path fill="#707070" fill-opacity=".23" stroke="None" d="M318 351c.16-2.58 1-6.66 1-10-.26 2.71-1.14 6.52-1 10Z"/>
    <path fill="#DADADA" fill-opacity=".69" stroke="None" d="M182 352c2.79.46 1.6-2.71 3-4h-3c-.12 1.29.24 2.73 0 4Z"/>
    <path fill="#656565" fill-opacity=".21" stroke="None" d="M223 358c.23-2.36 1-5.9 1-9-.23 2.36-1 5.9-1 9Z"/>
    <path fill="#7E7E7E" fill-opacity=".27" stroke="None" d="M254 376c.28-6.49 1-14.72 1-22-.63 6.56-1.4 14.66-1 22Z"/>
    <path fill="#262626" fill-opacity=".07" stroke="None" d="M180 367c-5.72 1.59-2.41 6.31 0 0Z"/>
</svg>
